<svg width="1440" height="300" viewBox="0 0 1440 300" fill="none" xmlns="http://www.w3.org/2000/svg">
<rect opacity="0.3" width="1440" height="300" fill="url(#paint0_linear)"/>
<path opacity="0.3" d="M1440 0H0L1440 300V0Z" fill="url(#paint1_linear)"/>
<g clip-path="url(#clip0)">
<path d="M247.016 301.752C246.6 301.695 246.227 301.476 245.977 301.14C242.332 296.236 215.828 257.853 251.101 222.768C284.586 189.462 299.764 182.623 301.783 163.054C302.019 160.768 305.113 160.22 306.132 162.28C313.74 177.678 325.595 213.607 286.365 237.189C243.091 263.203 246.638 291.72 248.73 299.824C249.007 300.894 248.114 301.9 247.016 301.752Z" fill="url(#paint2_linear)"/>
<path d="M252.383 302.481C251.398 302.347 250.618 301.589 250.467 300.608C249.433 293.934 246.897 268.993 265.299 262.38C285.558 255.099 301.913 273.937 316.805 259.193C317.588 258.417 318.906 259.093 318.719 260.179C317.393 267.88 311.49 285.72 285.224 289.31C257.11 293.152 253.946 296.372 254.515 300.366C254.689 301.597 253.618 302.648 252.383 302.481Z" fill="url(#paint3_linear)"/>
<path opacity="0.47" d="M300.805 183.004C300.461 184.456 300.005 185.818 299.46 187.171C298.925 188.522 298.309 189.839 297.637 191.128C296.307 193.714 294.711 196.161 292.964 198.492C289.445 203.142 285.188 207.227 280.496 210.691C278.157 212.413 275.655 213.995 273.182 215.426C270.774 216.82 268.457 218.38 266.238 220.07C261.797 223.448 257.77 227.369 254.214 231.667C247.129 240.27 242.101 250.653 240.445 261.707C239.601 267.222 239.591 272.868 240.351 278.429C241.103 283.996 242.693 289.449 244.789 294.705C244.902 294.985 244.766 295.305 244.485 295.418C244.216 295.526 243.908 295.402 243.785 295.144C241.333 289.949 239.503 284.426 238.489 278.724C237.971 275.875 237.665 272.983 237.577 270.079C237.507 267.176 237.629 264.26 237.996 261.371C238.7 255.587 240.334 249.921 242.688 244.586C245.048 239.25 248.166 234.266 251.809 229.719C255.449 225.166 259.674 221.092 264.293 217.534C266.608 215.759 269.027 214.116 271.553 212.641C274.026 211.224 276.373 209.784 278.646 208.146C283.185 204.909 287.378 201.173 290.986 196.909C292.812 194.796 294.466 192.534 295.977 190.176C297.458 187.814 298.842 185.32 299.839 182.743L299.852 182.71C299.951 182.452 300.241 182.325 300.499 182.424C300.734 182.514 300.861 182.765 300.805 183.004Z" fill="white"/>
<path opacity="0.47" d="M251.216 297.954C251.302 297.712 251.275 297.487 251.267 297.257L251.246 296.569L251.23 295.194C251.232 294.278 251.252 293.361 251.292 292.446C251.374 290.614 251.53 288.785 251.775 286.965C252.276 283.331 253.101 279.708 254.57 276.295C256.023 272.906 258.223 269.667 261.416 267.551C263.006 266.512 264.801 265.772 266.661 265.397C268.519 265.006 270.428 264.948 272.296 265.111C279.614 265.959 286.787 267.359 293.979 268.497C297.561 269.031 301.194 269.507 304.711 269.026C305.585 268.898 306.446 268.708 307.283 268.44C308.111 268.152 308.924 267.814 309.684 267.369C311.213 266.497 312.558 265.305 313.76 263.982L313.763 263.977C313.929 263.796 314.211 263.782 314.394 263.947C314.574 264.11 314.589 264.386 314.431 264.569C313.214 265.969 311.821 267.264 310.195 268.238C309.387 268.733 308.517 269.119 307.628 269.449C306.731 269.759 305.809 269.983 304.879 270.139C301.133 270.687 297.42 270.221 293.797 269.725C290.163 269.209 286.575 268.536 282.974 267.954C279.384 267.371 275.752 266.807 272.178 266.388C270.413 266.218 268.629 266.26 266.908 266.606C265.185 266.938 263.538 267.602 262.064 268.545C259.093 270.434 256.937 273.44 255.474 276.694C253.992 279.965 253.113 283.505 252.555 287.077C252.28 288.867 252.092 290.671 251.978 292.482C251.921 293.387 251.885 294.293 251.867 295.2L251.857 296.56L251.866 297.239C251.872 297.464 251.862 297.695 251.972 297.909C252.078 298.111 251.999 298.361 251.796 298.466C251.592 298.572 251.342 298.492 251.237 298.29C251.182 298.184 251.178 298.066 251.214 297.962L251.216 297.954Z" fill="white"/>
<path d="M203.242 60.7558C192.216 60.6688 181.094 62.415 171.254 66.4912C148.349 75.9808 128.91 101.088 136.517 126.735C138.988 135.065 137.69 144.257 146.002 147.878C150.5 149.837 162.748 151.003 167.405 149.459C179.783 145.355 187.919 134.126 181.186 121.673C179.031 117.684 176.24 114.041 174.379 109.909C172.518 105.776 171.669 100.87 173.567 96.7525C177.292 88.6714 189.669 86.103 197.694 86.3449C207.168 86.6311 215.75 91.3094 220.848 99.3339C227.201 109.336 228.811 121.501 227.881 133.11C226.886 145.533 221.64 155.02 213.778 164.55C207.009 172.754 199.555 180.63 195.056 190.265C190.925 199.11 189.576 208.91 189.389 218.586C189.353 220.462 180.012 238.135 180.052 243.535C180.058 244.298 190.647 246.824 191.411 246.833C195.397 246.878 206.69 247.004 210.846 247.05C211.701 247.059 212.405 246.377 212.414 245.524C212.71 219.254 220.803 194.209 241.29 176.566C248.744 170.146 256.772 164.919 262.569 156.816C270.83 145.267 274.906 133.901 273.73 119.647C272.655 106.629 268.363 93.6046 259.864 83.5042C250.73 72.6485 237.36 65.8691 223.465 62.944C216.987 61.5806 210.133 60.8106 203.242 60.7558Z" fill="#3C2984"/>
<path d="M223.575 276.499C223.575 288.579 216.869 299.267 204.77 299.267C202.157 299.267 193.268 299.291 190.944 298.452C182.509 295.41 182.479 288.94 182.479 279.469C182.479 267.39 186.564 255.509 198.663 255.509C210.763 255.509 223.575 264.419 223.575 276.499Z" fill="#3C2984"/>
<path d="M192.766 58.0036C181.74 57.9166 170.618 59.6628 160.778 63.739C137.872 73.2278 118.433 98.3358 126.041 123.981C128.512 132.313 134.226 142.8 142.538 146.42C147.036 148.379 152.272 148.249 156.929 146.705C169.306 142.602 177.443 131.373 170.711 118.919C168.555 114.931 165.765 111.288 163.904 107.155C162.042 103.023 161.194 98.1165 163.092 93.9994C166.817 85.9184 179.194 83.35 187.219 83.5918C196.692 83.8781 205.275 88.5564 210.373 96.5809C216.726 106.583 218.336 118.748 217.406 130.357C216.411 142.78 211.165 152.267 203.303 161.797C196.534 170.001 189.08 177.877 184.581 187.512C180.45 196.357 179.1 206.157 178.914 215.833C178.878 217.709 179.51 237.294 179.55 242.693C179.556 243.456 180.171 244.072 180.935 244.081C184.921 244.125 196.214 244.251 200.37 244.298C201.225 244.307 201.929 243.625 201.938 242.772C202.234 216.502 210.327 191.457 230.813 173.814C238.267 167.394 246.296 162.166 252.092 154.064C260.354 142.514 264.43 131.149 263.253 116.895C262.179 103.877 257.886 90.8524 249.388 80.752C240.253 69.8963 226.884 63.1169 212.989 60.1918C206.51 58.8275 199.656 58.0575 192.766 58.0036Z" fill="url(#paint4_linear)"/>
<path d="M193.908 298.59C206.007 298.59 215.815 288.798 215.815 276.717C215.815 264.637 206.007 254.844 193.908 254.844C181.809 254.844 172.001 264.637 172.001 276.717C172.001 288.798 181.809 298.59 193.908 298.59Z" fill="#5B45B2"/>
<path d="M133.292 121.47C133.163 121.47 133.047 121.381 133.017 121.25C131.482 114.328 131.257 103.49 138.901 91.1615C146.363 79.1269 156.829 71.0745 170.01 67.228C184.099 63.1162 200.827 63.9967 219.73 69.8443C219.878 69.8904 219.961 70.047 219.916 70.1958C219.869 70.3437 219.713 70.4264 219.564 70.3811C200.768 64.5666 184.149 63.6869 170.167 67.7675C157.124 71.5731 146.766 79.5436 139.38 91.4564C131.835 103.625 132.054 114.308 133.566 121.128C133.6 121.279 133.505 121.429 133.353 121.463C133.332 121.467 133.312 121.47 133.292 121.47Z" fill="white"/>
<path d="M137.9 132.605C137.814 132.605 137.727 132.565 137.672 132.491C137.606 132.4 136.027 130.222 134.56 126.386C134.504 126.241 134.577 126.079 134.722 126.023C134.867 125.969 135.029 126.041 135.085 126.185C136.527 129.952 138.112 132.137 138.127 132.159C138.219 132.284 138.192 132.46 138.066 132.551C138.016 132.587 137.957 132.605 137.9 132.605Z" fill="white"/>
<g opacity="0.7">
<path d="M201.238 262.541C201.196 262.541 201.152 262.531 201.111 262.51C198.866 261.373 196.443 260.797 193.908 260.797C193.753 260.797 193.627 260.671 193.627 260.516C193.627 260.361 193.752 260.235 193.908 260.235C196.533 260.235 199.042 260.832 201.366 262.009C201.504 262.08 201.559 262.248 201.489 262.387C201.44 262.485 201.341 262.541 201.238 262.541Z" fill="white"/>
</g>
<g opacity="0.7">
<path d="M184.836 290.432C184.782 290.432 184.727 290.416 184.679 290.384C180.122 287.31 177.401 282.201 177.401 276.717C177.401 270.638 180.736 265.072 186.104 262.19C186.241 262.116 186.411 262.168 186.485 262.304C186.558 262.441 186.506 262.611 186.37 262.684C181.185 265.468 177.964 270.845 177.964 276.717C177.964 282.013 180.592 286.948 184.995 289.918C185.123 290.005 185.157 290.179 185.07 290.308C185.015 290.388 184.926 290.432 184.836 290.432Z" fill="white"/>
</g>
<path d="M230.981 132.345L219.073 144.507L233.356 140.697L230.981 132.345Z" fill="#F8CC6B"/>
<path d="M301.833 137.379L234.174 140.658C232.436 140.742 230.981 139.358 230.981 137.621V109.829C230.981 106.808 233.384 104.334 236.408 104.241L297.387 102.357C301.928 102.357 305.609 106.032 305.609 110.566V133.422C305.609 135.536 303.947 137.277 301.833 137.379Z" fill="#F8CC6B"/>
<path opacity="0.85" d="M236.197 139.541C235.119 139.541 234.102 139.136 233.316 138.387C232.48 137.591 232.02 136.517 232.02 135.364V110.316C232.02 107.364 234.391 104.98 237.417 104.889L296.458 103.109C300.933 103.109 304.57 106.654 304.57 111.012V132.608C304.57 134.686 302.903 136.393 300.774 136.494L236.401 139.538C236.333 139.54 236.265 139.541 236.197 139.541ZM296.461 103.402L237.425 105.182C234.558 105.268 232.312 107.524 232.312 110.316V135.365C232.312 136.437 232.74 137.436 233.517 138.175C234.295 138.916 235.314 139.294 236.386 139.245L300.759 136.2L300.766 136.347L300.759 136.2C302.73 136.107 304.275 134.529 304.275 132.608V111.012C304.276 106.816 300.77 103.402 296.461 103.402Z" fill="white"/>
<path opacity="0.94" d="M290.749 108.469L236.648 110.491C236.116 110.511 235.698 110.863 235.716 111.274L235.736 111.75C235.754 112.157 236.192 112.47 236.717 112.451L290.821 110.478C291.352 110.459 291.771 110.107 291.754 109.695L291.731 109.172C291.715 108.763 291.275 108.449 290.749 108.469Z" fill="white"/>
<path opacity="0.94" d="M263.79 123.901L237.381 124.73C237.122 124.738 236.926 125.092 236.944 125.519L236.965 126.01C236.983 126.432 237.204 126.767 237.461 126.76L263.871 125.982C264.13 125.974 264.326 125.62 264.308 125.193L264.284 124.65C264.268 124.227 264.046 123.893 263.79 123.901Z" fill="white"/>
<path opacity="0.94" d="M296.175 123.348L269.766 124.177C269.507 124.185 269.311 124.539 269.329 124.967L269.35 125.458C269.368 125.88 269.589 126.215 269.846 126.207L296.256 125.429C296.515 125.422 296.711 125.067 296.693 124.64L296.67 124.097C296.654 123.675 296.432 123.34 296.175 123.348Z" fill="white"/>
<path opacity="0.94" d="M263.79 129.487L237.381 130.316C237.122 130.324 236.926 130.678 236.944 131.106L236.965 131.597C236.983 132.019 237.204 132.354 237.461 132.346L263.871 131.568C264.13 131.561 264.326 131.206 264.308 130.779L264.284 130.236C264.268 129.813 264.046 129.479 263.79 129.487Z" fill="white"/>
<path opacity="0.94" d="M296.175 128.934L269.766 129.763C269.507 129.771 269.311 130.125 269.329 130.552L269.35 131.044C269.368 131.466 269.589 131.801 269.846 131.793L296.256 131.015C296.515 131.007 296.711 130.653 296.693 130.226L296.67 129.683C296.654 129.261 296.432 128.926 296.175 128.934Z" fill="white"/>
<path opacity="0.94" d="M265.687 113.945L236.2 114.803C235.91 114.812 235.693 115.209 235.717 115.687L235.744 116.239C235.767 116.713 236.018 117.089 236.304 117.081L265.795 116.28C266.085 116.272 266.301 115.875 266.277 115.396L266.247 114.787C266.225 114.313 265.974 113.938 265.687 113.945Z" fill="white"/>
<path d="M128.247 290.667C128.247 290.667 127.69 293.819 127.416 296.94C127.309 298.16 128.251 299.219 129.476 299.269C133.638 299.442 142.54 299.779 145.735 299.636C146.215 299.615 146.529 299.124 146.352 298.678C146.203 298.305 145.915 298.002 145.549 297.835L130.843 291.086L128.247 290.667Z" fill="url(#paint5_linear)"/>
<path d="M127.79 288.815L128.238 292.585C128.238 292.585 130.814 293.783 132.573 292.435L131.506 288.233L127.79 288.815Z" fill="url(#paint6_linear)"/>
<path d="M128.127 217.927C127.934 218.912 127.088 267.064 132.244 288.642C132.328 288.995 132.149 289.358 131.813 289.494C131.023 289.817 129.473 290.284 127.615 290.346C127.04 290.365 126.524 289.992 126.362 289.44C124.888 284.434 117.827 259.349 116.906 235.387C115.877 208.612 116.906 234.476 116.906 234.476L117.51 217.925L128.127 217.927Z" fill="url(#paint7_linear)"/>
<path d="M111.331 292.311C111.331 292.311 110.443 293.903 109.583 298.131C109.428 298.895 109.963 299.626 110.74 299.701C112.114 299.836 114.23 300.01 115.925 299.998C116.706 299.993 117.316 299.313 117.221 298.539C117.034 296.996 116.448 294.463 114.642 292.49L111.331 292.311Z" fill="url(#paint8_linear)"/>
<path d="M110.551 287.462L111.597 293.164C111.597 293.164 112.632 293.933 114.68 293.375L114.181 287.241L110.551 287.462Z" fill="url(#paint9_linear)"/>
<path d="M107.723 219.404C103.507 244.81 108.638 282.196 110.368 289.513C110.474 289.961 110.836 290.304 111.291 290.38C112.063 290.508 113.335 290.612 114.588 290.248C115.02 290.123 115.323 289.734 115.341 289.285C115.573 283.37 115.155 247.051 119.084 232.699C119.282 231.972 119.728 231.337 120.343 230.9L127.968 225.488L128.552 216.74L107.723 219.404Z" fill="url(#paint10_linear)"/>
<path d="M134.589 171.266C121.953 171.058 108.012 174.579 108.012 174.579C104.246 196.521 107.353 221.829 107.353 221.829C117.135 224.39 128.17 220.263 128.17 220.263C129.796 211.091 137.381 185.28 137.381 185.28C143.555 184.516 148.641 182.737 152.829 180.385C149.634 176.689 148.129 171.983 147.474 169.203C143.006 170.59 138.486 171.331 134.589 171.266Z" fill="#0DE0C0"/>
<path d="M171.911 152.684C170.67 151.188 169.099 151.895 169.099 151.895C167.239 159.737 157.49 166.095 147.474 169.203C148.129 171.984 149.634 176.688 152.829 180.386C169.451 171.055 171.911 152.684 171.911 152.684Z" fill="url(#paint11_linear)"/>
<path d="M171.61 153.065C171.74 153.477 170.236 154.104 169.35 152.418C169.319 151.61 168.827 148.148 169.311 147.49C171.887 143.984 176.88 139.589 176.88 139.589C177.724 140.421 177.029 141.237 177.029 141.237L174.606 143.758C175.112 144.672 175.731 145.444 176.02 146.55C176.24 147.387 176.105 148.282 175.682 149.044C175.257 149.809 174.676 150.803 174.128 151.581C173.089 153.054 171.61 153.065 171.61 153.065Z" fill="url(#paint12_linear)"/>
<path d="M173.546 145.393L171.339 147.261L170.646 149.122L172.614 151.302C172.614 151.302 173.276 147.611 173.768 146.812C174.26 146.013 174.004 145.627 173.546 145.393Z" fill="url(#paint13_linear)"/>
<path d="M112.858 186.794L108.012 174.579C108.012 174.579 96.2099 182.585 94.2692 192.737C96.4992 192.9 100.557 193.48 104.529 195.483C105.402 190.689 112.858 186.794 112.858 186.794Z" fill="#00D2B3"/>
<path d="M123.172 198.289C123.172 198.289 109.922 205.766 105.45 199.382C104.522 198.056 104.3 196.739 104.529 195.482C100.557 193.48 96.4992 192.901 94.2692 192.736C93.6837 195.796 93.9939 199.051 95.7942 202.341C103.626 216.645 124.926 201.55 124.926 201.55L123.172 198.289Z" fill="url(#paint14_linear)"/>
<path d="M121.58 207.748L128.812 182.533C128.894 182.246 129.139 182.038 129.435 182.003C130.746 181.851 134.542 181.422 138.926 181.052C144.206 180.605 150.338 180.244 154.002 180.552C154.523 180.595 154.838 181.146 154.606 181.613C152.522 185.822 149.951 202.943 145.659 208.552C145.517 208.738 145.297 208.846 145.063 208.844L122.284 208.688C121.795 208.685 121.445 208.217 121.58 207.748Z" fill="url(#paint15_linear)"/>
<path d="M123.327 201.655C123.327 201.655 122.32 197.519 122.726 196.052C123.132 194.584 123.92 192.698 126.544 193.118C129.168 193.537 132.264 194.641 132.264 194.641C132.264 194.641 132.108 196.553 130.113 195.936L131.35 196.891C131.35 196.891 131.173 198.421 129.488 197.604L130.639 198.87C130.639 198.87 129.915 200.128 128.675 199.321C127.436 198.515 126.842 202.154 123.327 201.655Z" fill="url(#paint16_linear)"/>
<path d="M121.79 161.025L117.77 172.633C117.703 172.826 117.782 173.039 117.96 173.137C119.057 173.742 123.005 175.491 127.763 172.478C128.259 172.164 128.596 171.653 128.671 171.072L129.973 161.024H121.79V161.025Z" fill="url(#paint17_linear)"/>
<path d="M130.537 150.274C130.537 150.274 134.952 158.572 134.386 161.924C133.821 165.275 128.349 165.035 123.571 162.312L120.233 153.354L130.537 150.274Z" fill="url(#paint18_linear)"/>
<path d="M123.783 157.913C123.977 157.826 124.049 157.59 123.933 157.412C123.579 156.873 122.916 155.772 122.704 154.808C122.704 154.808 121.91 154.301 124.724 153.628C127.538 152.956 131.734 151.913 132.616 149.521C133.476 147.189 131.216 141.327 127.612 145.998C127.475 146.176 127.206 146.18 127.069 146.002C126.478 145.233 124.925 143.64 122.768 144.606C120.75 145.51 120.522 146.986 120.55 147.731C120.558 147.95 120.362 148.12 120.147 148.079C119.126 147.885 116.678 147.718 115.534 150.227C114.593 152.292 115.205 153.462 115.762 154.034C115.942 154.219 115.863 154.525 115.615 154.6C114.944 154.806 114.079 155.373 114.165 156.942C114.286 159.111 116.713 158.919 117.405 158.82C117.519 158.804 117.633 158.843 117.709 158.927C118.302 159.582 120.974 162.364 123.864 162.699C124.114 162.727 124.309 162.481 124.227 162.243L122.975 158.611C122.917 158.442 122.998 158.258 123.161 158.185L123.783 157.913Z" fill="url(#paint19_linear)"/>
<path d="M124.286 158.429C124.286 158.429 121.143 156.275 120.913 158.089C120.683 159.902 123.743 160.715 125.259 160.039L124.286 158.429Z" fill="url(#paint20_linear)"/>
<circle cx="139" cy="194" r="3" fill="#313171"/>
</g>
<defs>
<linearGradient id="paint0_linear" x1="720" y1="0" x2="720" y2="300" gradientUnits="userSpaceOnUse">
<stop stop-color="#41FFFF"/>
<stop offset="1" stop-color="#12E1FF"/>
</linearGradient>
<linearGradient id="paint1_linear" x1="524.5" y1="13.5001" x2="1431.5" y2="292" gradientUnits="userSpaceOnUse">
<stop stop-color="#41FFFF" stop-opacity="0.6"/>
<stop offset="1" stop-color="#12E1FF"/>
</linearGradient>
<linearGradient id="paint2_linear" x1="273.471" y1="161" x2="273.471" y2="301.766" gradientUnits="userSpaceOnUse">
<stop stop-color="#0DE0C0"/>
<stop offset="1" stop-color="#00D2B3"/>
</linearGradient>
<linearGradient id="paint3_linear" x1="313" y1="259" x2="247" y2="300.5" gradientUnits="userSpaceOnUse">
<stop stop-color="#0DE0C0"/>
<stop offset="1" stop-color="#00D2B3"/>
</linearGradient>
<linearGradient id="paint4_linear" x1="81.0128" y1="255.67" x2="468.515" y2="-155.319" gradientUnits="userSpaceOnUse">
<stop stop-color="#5D47B2"/>
<stop offset="1" stop-color="#573FB4"/>
</linearGradient>
<linearGradient id="paint5_linear" x1="145.27" y1="286.31" x2="91.5092" y2="344.878" gradientUnits="userSpaceOnUse">
<stop stop-color="#2B3582"/>
<stop offset="1" stop-color="#150E42"/>
</linearGradient>
<linearGradient id="paint6_linear" x1="127.79" y1="290.654" x2="132.574" y2="290.654" gradientUnits="userSpaceOnUse">
<stop stop-color="#F9B776"/>
<stop offset="1" stop-color="#F47960"/>
</linearGradient>
<linearGradient id="paint7_linear" x1="149.51" y1="220.172" x2="103.78" y2="282.249" gradientUnits="userSpaceOnUse">
<stop stop-color="#2B3582"/>
<stop offset="1" stop-color="#150E42"/>
</linearGradient>
<linearGradient id="paint8_linear" x1="133.189" y1="275.221" x2="79.4297" y2="333.789" gradientUnits="userSpaceOnUse">
<stop stop-color="#2B3582"/>
<stop offset="1" stop-color="#150E42"/>
</linearGradient>
<linearGradient id="paint9_linear" x1="110.551" y1="290.409" x2="114.681" y2="290.409" gradientUnits="userSpaceOnUse">
<stop stop-color="#F9B776"/>
<stop offset="1" stop-color="#F47960"/>
</linearGradient>
<linearGradient id="paint10_linear" x1="141.343" y1="214.156" x2="95.6136" y2="276.233" gradientUnits="userSpaceOnUse">
<stop stop-color="#2B3582"/>
<stop offset="1" stop-color="#150E42"/>
</linearGradient>
<linearGradient id="paint11_linear" x1="168.142" y1="137.63" x2="159.726" y2="161.714" gradientUnits="userSpaceOnUse">
<stop stop-color="#F9B776"/>
<stop offset="1" stop-color="#F47960"/>
</linearGradient>
<linearGradient id="paint12_linear" x1="175.356" y1="140.151" x2="166.94" y2="164.234" gradientUnits="userSpaceOnUse">
<stop stop-color="#F9B776"/>
<stop offset="1" stop-color="#F47960"/>
</linearGradient>
<linearGradient id="paint13_linear" x1="168.873" y1="155.532" x2="175.214" y2="142.721" gradientUnits="userSpaceOnUse">
<stop stop-color="#F9B776"/>
<stop offset="1" stop-color="#F47960"/>
</linearGradient>
<linearGradient id="paint14_linear" x1="94" y1="200.618" x2="124.925" y2="200.618" gradientUnits="userSpaceOnUse">
<stop stop-color="#F9B776"/>
<stop offset="1" stop-color="#F47960"/>
</linearGradient>
<linearGradient id="paint15_linear" x1="148.477" y1="163.645" x2="132.59" y2="207.042" gradientUnits="userSpaceOnUse">
<stop stop-color="#2B3582"/>
<stop offset="1" stop-color="#150E42"/>
</linearGradient>
<linearGradient id="paint16_linear" x1="122.629" y1="197.381" x2="132.264" y2="197.381" gradientUnits="userSpaceOnUse">
<stop stop-color="#F9B776"/>
<stop offset="1" stop-color="#F47960"/>
</linearGradient>
<linearGradient id="paint17_linear" x1="117.746" y1="167.609" x2="129.973" y2="167.609" gradientUnits="userSpaceOnUse">
<stop stop-color="#F9B776"/>
<stop offset="1" stop-color="#F47960"/>
</linearGradient>
<linearGradient id="paint18_linear" x1="132.881" y1="159.842" x2="119.449" y2="151.637" gradientUnits="userSpaceOnUse">
<stop stop-color="#F9B776"/>
<stop offset="1" stop-color="#F47960"/>
</linearGradient>
<linearGradient id="paint19_linear" x1="112.322" y1="143.026" x2="129.668" y2="156.748" gradientUnits="userSpaceOnUse">
<stop stop-color="#2B3582"/>
<stop offset="1" stop-color="#150E42"/>
</linearGradient>
<linearGradient id="paint20_linear" x1="129.35" y1="162.895" x2="117.265" y2="155.513" gradientUnits="userSpaceOnUse">
<stop stop-color="#F9B776"/>
<stop offset="1" stop-color="#F47960"/>
</linearGradient>
<clipPath id="clip0">
<rect width="227" height="242" fill="white" transform="translate(94 58)"/>
</clipPath>
</defs>
</svg>
