<svg width="146" height="41" viewBox="0 0 146 41" fill="none" xmlns="http://www.w3.org/2000/svg">
<g filter="url(#filter0_f)">
<g clip-path="url(#clip0)">
<path d="M82.8098 2.62354V28.5855H78.2303V28.2279C77.5333 25.0365 76.3601 22.2171 74.7368 19.8482C73.8946 18.6216 73.1338 17.799 72.3294 16.9299C71.6034 16.1422 70.8571 15.3371 70.0527 14.2471V28.5855H65.4731V2.62354H70.0527V3.15835C70.6451 5.87604 71.6557 8.36702 73.067 10.5557C73.9818 11.9741 74.8123 12.8694 75.6893 13.8198C76.4879 14.686 77.3126 15.5783 78.2303 16.8602V2.62354H82.8098Z" fill="#4A2CBE"/>
<path d="M116.401 2.62354L111.708 28.6058H107.434L103.351 17.0491L99.2763 28.6058H95.0017L90.3118 2.62354H94.9668L97.8882 18.7931L101.733 7.8787H104.977L108.822 18.7931L111.737 2.62354H116.401Z" fill="#4A2CBE"/>
<path d="M117.53 6.00105C117.53 4.664 118.613 3.57983 119.949 3.57983C121.285 3.57983 122.368 4.664 122.368 6.00105C122.368 7.33809 121.285 8.42226 119.949 8.42226C118.613 8.42226 117.53 7.33809 117.53 6.00105ZM117.658 28.6145V9.57328H122.237V28.6145H117.658Z" fill="#4A2CBE"/>
<path d="M138.993 16.5026V28.5884H134.413V16.5026C134.413 15.6103 133.969 14.7935 133.283 14.4186C132.084 13.7646 130.519 14.5988 129.285 15.6946C128.504 16.3893 128.077 17.3979 128.077 18.4442V28.6145H123.497V9.57324H128.077V10.9045C130.278 9.57034 132.909 8.99773 135.473 10.3958C137.645 11.5759 138.993 13.9186 138.993 16.5026Z" fill="#4A2CBE"/>
<path d="M19.304 28.6116V2.62354H23.8835V28.6116H19.304Z" fill="#4A2CBE"/>
<path d="M40.6697 22.394C40.6552 24.4489 40.6929 26.5097 40.7772 28.5415H36.1918C36.1773 28.0764 36.1599 27.6084 36.1541 27.1434C36.1541 27.1405 36.1541 27.1405 36.1541 27.1376C35.9508 27.2335 35.7446 27.3294 35.5326 27.4137C34.5162 27.8148 33.1601 28.12 31.7371 28.12C30.4942 28.12 29.202 27.8875 28.0433 27.28C26.539 26.4894 25.5401 25.2047 25.1568 23.5595C24.5092 20.7866 26.086 17.9061 28.9871 16.5517C31.0518 15.5896 33.6421 15.3105 36.2005 15.7175C36.2005 15.7116 36.2005 15.7058 36.2005 15.7029C36.186 14.9472 36.125 14.5577 35.9711 14.299C35.1928 12.9852 31.9869 12.8777 27.9968 14.0316L26.7307 9.62518C33.224 7.75332 37.9022 8.5788 39.9089 11.9621C40.8556 13.5578 40.8236 15.017 40.7394 18.1939C40.7104 19.2926 40.6784 20.6616 40.6697 22.394ZM36.1163 20.3593C34.2549 19.9379 32.3179 20.057 30.9211 20.7081C30.1661 21.0598 29.4517 21.8155 29.6143 22.5219C29.6927 22.859 29.8496 23.0567 30.169 23.2224C31.014 23.6642 32.6316 23.6351 33.8512 23.1526C34.7718 22.7893 35.5442 22.205 36.1018 21.4871C36.1018 21.0918 36.1076 20.711 36.1163 20.3593Z" fill="#4A2CBE"/>
<path d="M58.5977 10.2461C57.5204 15.5071 54.93 28.1857 54.4828 30.3715C54.0647 32.3945 53.9804 34.7169 51.1287 36.8417C50.1792 37.5073 49.0001 37.6235 47.885 37.6235C47.0458 37.6235 46.3488 37.6526 41.3017 37.2777C40.8981 37.2486 40.5061 37.1469 40.1518 36.9492C37.7182 35.5889 36.2779 33.1154 36.1182 30.8366L40.6658 30.8075C40.7268 31.6475 41.6299 32.7956 42.6492 33.0601C43.1661 33.313 47.5917 33.5543 48.5152 33.0834C49.6245 32.101 49.7145 30.9296 50.002 29.5402L41.203 10.2548L41.2175 10.2461H46.2065L51.5498 21.954C52.3687 17.9428 53.3183 13.2777 53.9427 10.2461H58.5977Z" fill="#4A2CBE"/>
<path d="M18.1151 11.8817C17.4182 17.9245 11.7613 19.3459 8.08774 19.6249V28.6471H3.5111V15.0557H8.09064V15.0528C10.559 14.8493 13.2626 14.0093 13.5704 11.3556C13.7505 9.79181 13.1261 7.91995 11.6102 7.53046C11.073 7.39385 10.0973 7.08866 3.11325 7.25433L3 2.6735C10.498 2.4962 11.7119 2.82755 12.7428 3.09205C16.8141 4.13844 18.5275 8.30653 18.1151 11.8817Z" fill="#4A2CBE"/>
<path d="M5.78777 35.0075C7.07082 35.0075 8.11094 33.9665 8.11094 32.6822C8.11094 31.398 7.07082 30.3569 5.78777 30.3569C4.50472 30.3569 3.4646 31.398 3.4646 32.6822C3.4646 33.9665 4.50472 35.0075 5.78777 35.0075Z" fill="#4A2CBE"/>
</g>
</g>
<g clip-path="url(#clip1)">
<path d="M81.8098 2.62354V28.5855H77.2303V28.2279C76.5333 25.0365 75.3601 22.2171 73.7368 19.8482C72.8946 18.6216 72.1338 17.799 71.3294 16.9299C70.6034 16.1422 69.8571 15.3371 69.0527 14.2471V28.5855H64.4731V2.62354H69.0527V3.15835C69.6451 5.87604 70.6557 8.36702 72.067 10.5557C72.9818 11.9741 73.8123 12.8694 74.6893 13.8198C75.4879 14.686 76.3126 15.5783 77.2303 16.8602V2.62354H81.8098Z" fill="url(#paint0_linear)"/>
<path d="M115.401 2.62354L110.708 28.6058H106.434L102.351 17.0491L98.2763 28.6058H94.0017L89.3118 2.62354H93.9668L96.8882 18.7931L100.733 7.8787H103.977L107.822 18.7931L110.737 2.62354H115.401Z" fill="url(#paint1_linear)"/>
<path d="M116.53 6.00105C116.53 4.664 117.613 3.57983 118.949 3.57983C120.285 3.57983 121.368 4.664 121.368 6.00105C121.368 7.33809 120.285 8.42226 118.949 8.42226C117.613 8.42226 116.53 7.33809 116.53 6.00105ZM116.658 28.6145V9.57328H121.237V28.6145H116.658Z" fill="url(#paint2_linear)"/>
<path d="M137.993 16.5026V28.5884H133.413V16.5026C133.413 15.6103 132.969 14.7935 132.283 14.4186C131.084 13.7646 129.519 14.5988 128.285 15.6946C127.504 16.3893 127.077 17.3979 127.077 18.4442V28.6145H122.497V9.57324H127.077V10.9045C129.278 9.57034 131.909 8.99773 134.473 10.3958C136.645 11.5759 137.993 13.9186 137.993 16.5026Z" fill="url(#paint3_linear)"/>
<path d="M18.304 28.6116V2.62354H22.8835V28.6116H18.304Z" fill="url(#paint4_linear)"/>
<path d="M39.6697 22.394C39.6552 24.4489 39.6929 26.5097 39.7772 28.5415H35.1918C35.1773 28.0764 35.1599 27.6084 35.1541 27.1434C35.1541 27.1405 35.1541 27.1405 35.1541 27.1376C34.9508 27.2335 34.7446 27.3294 34.5326 27.4137C33.5162 27.8148 32.1601 28.12 30.7371 28.12C29.4942 28.12 28.202 27.8875 27.0433 27.28C25.539 26.4894 24.5401 25.2047 24.1568 23.5595C23.5092 20.7866 25.086 17.9061 27.9871 16.5517C30.0518 15.5896 32.6421 15.3105 35.2005 15.7175C35.2005 15.7116 35.2005 15.7058 35.2005 15.7029C35.186 14.9472 35.125 14.5577 34.9711 14.299C34.1928 12.9852 30.9869 12.8777 26.9968 14.0316L25.7307 9.62518C32.224 7.75332 36.9022 8.5788 38.9089 11.9621C39.8556 13.5578 39.8236 15.017 39.7394 18.1939C39.7104 19.2926 39.6784 20.6616 39.6697 22.394ZM35.1163 20.3593C33.2549 19.9379 31.3179 20.057 29.9211 20.7081C29.1661 21.0598 28.4517 21.8155 28.6143 22.5219C28.6927 22.859 28.8496 23.0567 29.169 23.2224C30.014 23.6642 31.6316 23.6351 32.8512 23.1526C33.7718 22.7893 34.5442 22.205 35.1018 21.4871C35.1018 21.0918 35.1076 20.711 35.1163 20.3593Z" fill="url(#paint5_linear)"/>
<path d="M57.5977 10.2461C56.5204 15.5071 53.93 28.1857 53.4828 30.3715C53.0647 32.3945 52.9804 34.7169 50.1287 36.8417C49.1792 37.5073 48.0001 37.6235 46.885 37.6235C46.0458 37.6235 45.3488 37.6526 40.3017 37.2777C39.8981 37.2486 39.5061 37.1469 39.1518 36.9492C36.7182 35.5889 35.2779 33.1154 35.1182 30.8366L39.6658 30.8075C39.7268 31.6475 40.6299 32.7956 41.6492 33.0601C42.1661 33.313 46.5917 33.5543 47.5152 33.0834C48.6245 32.101 48.7145 30.9296 49.002 29.5402L40.203 10.2548L40.2175 10.2461H45.2065L50.5498 21.954C51.3687 17.9428 52.3183 13.2777 52.9427 10.2461H57.5977Z" fill="url(#paint6_linear)"/>
<path d="M17.1151 11.8817C16.4182 17.9245 10.7613 19.3459 7.08774 19.6249V28.6471H2.5111V15.0557H7.09064V15.0528C9.55901 14.8493 12.2626 14.0093 12.5704 11.3556C12.7505 9.79181 12.1261 7.91995 10.6102 7.53046C10.073 7.39385 9.09728 7.08866 2.11325 7.25433L2 2.6735C9.49803 2.4962 10.7119 2.82755 11.7428 3.09205C15.8141 4.13844 17.5275 8.30653 17.1151 11.8817Z" fill="url(#paint7_linear)"/>
<path d="M4.78777 35.0075C6.07082 35.0075 7.11094 33.9665 7.11094 32.6822C7.11094 31.398 6.07082 30.3569 4.78777 30.3569C3.50472 30.3569 2.4646 31.398 2.4646 32.6822C2.4646 33.9665 3.50472 35.0075 4.78777 35.0075Z" fill="url(#paint8_linear)"/>
</g>
<defs>
<filter id="filter0_f" x="0" y="0" width="146" height="40.6237" filterUnits="userSpaceOnUse" color-interpolation-filters="sRGB">
<feFlood flood-opacity="0" result="BackgroundImageFix"/>
<feBlend mode="normal" in="SourceGraphic" in2="BackgroundImageFix" result="shape"/>
<feGaussianBlur stdDeviation="1.5" result="effect1_foregroundBlur"/>
</filter>
<linearGradient id="paint0_linear" x1="73.1415" y1="2.62354" x2="73.1415" y2="28.5855" gradientUnits="userSpaceOnUse">
<stop stop-color="white"/>
<stop offset="1" stop-color="#C7F5FE"/>
</linearGradient>
<linearGradient id="paint1_linear" x1="102.356" y1="2.62354" x2="102.356" y2="28.6058" gradientUnits="userSpaceOnUse">
<stop stop-color="#41FFFF"/>
<stop offset="1" stop-color="#12E1FF"/>
</linearGradient>
<linearGradient id="paint2_linear" x1="118.949" y1="3.57983" x2="118.949" y2="28.6145" gradientUnits="userSpaceOnUse">
<stop stop-color="#41FFFF"/>
<stop offset="1" stop-color="#12E1FF"/>
</linearGradient>
<linearGradient id="paint3_linear" x1="130.245" y1="9.57324" x2="130.245" y2="28.6145" gradientUnits="userSpaceOnUse">
<stop stop-color="#41FFFF"/>
<stop offset="1" stop-color="#12E1FF"/>
</linearGradient>
<linearGradient id="paint4_linear" x1="20.5937" y1="2.62354" x2="20.5937" y2="28.6116" gradientUnits="userSpaceOnUse">
<stop stop-color="#41FFFF"/>
<stop offset="1" stop-color="#12E1FF"/>
</linearGradient>
<linearGradient id="paint5_linear" x1="31.8954" y1="8.64502" x2="31.8954" y2="28.5415" gradientUnits="userSpaceOnUse">
<stop stop-color="#41FFFF"/>
<stop offset="1" stop-color="#12E1FF"/>
</linearGradient>
<linearGradient id="paint6_linear" x1="46.358" y1="10.2461" x2="46.358" y2="37.6241" gradientUnits="userSpaceOnUse">
<stop stop-color="#41FFFF"/>
<stop offset="1" stop-color="#12E1FF"/>
</linearGradient>
<linearGradient id="paint7_linear" x1="9.58745" y1="2.62354" x2="9.58745" y2="28.6471" gradientUnits="userSpaceOnUse">
<stop stop-color="#41FFFF"/>
<stop offset="1" stop-color="#12E1FF"/>
</linearGradient>
<linearGradient id="paint8_linear" x1="4.78777" y1="30.3569" x2="4.78777" y2="35.0075" gradientUnits="userSpaceOnUse">
<stop stop-color="#41FFFF"/>
<stop offset="1" stop-color="#12E1FF"/>
</linearGradient>
<clipPath id="clip0">
<rect width="140" height="34.6237" fill="white" transform="translate(3 3)"/>
</clipPath>
<clipPath id="clip1">
<rect width="140" height="34.6237" fill="white" transform="translate(2 3)"/>
</clipPath>
</defs>
</svg>
