<svg width="328" height="233" viewBox="0 0 328 233" fill="none" xmlns="http://www.w3.org/2000/svg">
<path d="M239.01 206.894L239.435 206.869L239.431 206.452C239.459 206.279 239.489 206.038 239.506 205.741L239.506 205.741C239.543 205.096 239.517 204.181 239.264 203.103C238.759 200.938 237.348 198.137 233.762 195.555L233.678 195.702L233.678 195.702L233.762 195.555C231.5 193.927 228.641 192.873 226.361 192.226L226.361 192.226C225.218 191.903 224.216 191.679 223.499 191.537C223.159 191.469 222.883 191.42 222.686 191.386L222.142 191.294L222.166 191.888C222.174 192.066 222.19 192.295 222.221 192.568L222.221 192.569C222.302 193.258 222.485 194.23 222.895 195.363L222.895 195.363C223.717 197.633 225.448 200.539 229.071 203.105L229.072 203.105C232.151 205.285 234.684 206.229 236.455 206.627C237.34 206.826 238.033 206.888 238.507 206.9L238.508 206.9C238.719 206.905 238.887 206.901 239.01 206.894Z" fill="#0DE0C0" stroke="white"/>
<path d="M253.424 200.263L253.424 200.263C253.423 200.542 253.4 200.766 253.375 200.923C253.375 200.923 253.375 200.924 253.375 200.925L253.375 200.925L253.374 200.929L253.318 201.298L252.973 201.329C252.848 201.34 252.666 201.351 252.43 201.354L252.43 201.354C251.944 201.359 251.228 201.327 250.302 201.178C248.452 200.879 245.768 200.112 242.41 198.242L242.41 198.242C238.529 196.08 236.676 193.705 235.798 191.848C235.359 190.921 235.167 190.129 235.084 189.565L235.084 189.565C235.05 189.336 235.034 189.145 235.028 188.997L235.005 188.459L235.5 188.49C235.679 188.501 235.937 188.519 236.261 188.548C236.261 188.548 236.261 188.548 236.261 188.548L236.254 189.067L253.424 200.263ZM253.424 200.263C253.426 199.7 253.338 198.905 252.981 197.966L253.424 200.263ZM252.981 197.966C252.266 196.083 250.485 193.655 246.275 191.344L252.981 197.966Z" fill="#0DE0C0" stroke="white"/>
<path d="M247.616 183.148C248.339 182.92 249.358 182.629 250.538 182.371C252.892 181.854 255.917 181.463 258.537 181.996L258.481 182.507L258.537 181.996C263.063 182.916 265.431 185.195 266.658 187.266L266.659 187.266C267.269 188.296 267.592 189.265 267.762 189.977C267.762 189.977 267.762 189.977 267.762 189.977L267.3 190.076C267.38 190.409 267.424 190.68 267.448 190.865L247.616 183.148ZM247.616 183.148C247.256 183.261 246.969 183.358 246.772 183.426C246.764 183.429 246.758 183.431 246.756 183.432C246.756 183.432 246.755 183.432 246.755 183.432L246.344 183.565L246.46 184.033C246.508 184.229 246.583 184.498 246.693 184.82L246.693 184.82C246.93 185.512 247.333 186.455 248 187.454C249.339 189.46 251.728 191.675 255.908 192.557L255.908 192.557C259.512 193.317 262.508 192.994 264.601 192.48C265.647 192.223 266.469 191.919 267.03 191.678L267.031 191.678C267.311 191.558 267.527 191.453 267.672 191.379L267.677 191.377L267.975 191.238L267.927 190.864L267.927 190.863C267.925 190.852 267.924 190.839 267.922 190.825L247.616 183.148ZM267.666 191.382L267.67 191.38C267.666 191.382 267.664 191.383 267.666 191.382Z" fill="#0DE0C0" stroke="white"/>
<path d="M260.511 176.703L260.511 176.702C260.393 176.415 260.314 176.175 260.263 175.996L260.135 175.55L260.518 175.387L260.541 175.377L260.544 175.375L260.544 175.375C260.728 175.299 260.999 175.19 261.344 175.062C262.035 174.806 263.023 174.478 264.215 174.18C266.597 173.587 269.808 173.119 273.098 173.636L273.086 173.814L273.086 173.814L273.098 173.636C277.407 174.314 279.924 176.462 281.366 178.478C282.488 180.046 282.951 181.521 283.115 182.15L283.223 182.562L282.881 182.735C282.733 182.81 282.516 182.915 282.235 183.035L260.511 176.703ZM260.511 176.703C260.769 177.332 261.215 178.188 261.965 179.106M260.511 176.703L271.009 183.996M271.009 183.996L271.009 183.996C266.182 183.009 263.47 180.946 261.965 179.106M271.009 183.996C274.611 184.733 277.637 184.386 279.761 183.856M271.009 183.996L279.761 183.856M261.965 179.106L262.313 178.775M261.965 179.106L262.313 178.775M262.313 178.775C261.603 177.907 261.185 177.101 260.946 176.519L271.066 183.485C266.335 182.517 263.731 180.51 262.313 178.775ZM279.761 183.856C280.823 183.591 281.661 183.28 282.235 183.035L279.761 183.856Z" fill="#0DE0C0" stroke="white"/>
<path d="M279.907 171.987L279.907 171.987L279.92 172.188C275.61 172.182 272.693 171.023 270.847 169.849C269.925 169.264 269.272 168.678 268.848 168.233M279.907 171.987L281.627 162.703C278.157 162.717 274.812 163.849 272.342 164.97L272.342 164.97C271.106 165.532 270.085 166.092 269.373 166.512L269.373 166.513C269.018 166.722 268.739 166.897 268.548 167.02L268.075 167.325L268.465 167.802C268.563 167.921 268.689 168.067 268.848 168.233M279.907 171.987L279.92 172.188C283.105 172.191 285.997 171.11 288.086 170.035L288.086 170.035C289.132 169.496 289.979 168.958 290.566 168.554L290.567 168.554C290.858 168.353 291.086 168.185 291.24 168.067L291.628 167.772L291.32 167.335C291.218 167.19 291.073 166.998 290.884 166.775C290.484 166.302 289.888 165.69 289.081 165.084L289.081 165.084M279.907 171.987L289.081 165.084M268.848 168.233C268.848 168.233 268.848 168.233 268.848 168.233L269.167 167.87L268.848 168.233C268.848 168.233 268.848 168.233 268.848 168.233ZM289.081 165.084C287.464 163.87 285.012 162.688 281.627 162.703L289.081 165.084Z" fill="#0DE0C0" stroke="white"/>
<path d="M296.856 147.285L296.855 147.284C296.646 147.162 296.346 147.004 295.969 146.833C295.216 146.491 294.146 146.097 292.858 145.855L292.858 145.855C290.279 145.373 286.833 145.504 283.312 147.88C280.795 149.577 278.873 151.946 277.214 154.016L277.213 154.016L277.092 154.168C277.092 154.168 277.092 154.168 277.092 154.168C276.307 155.148 275.582 156.053 274.877 156.786L274.876 156.787C274.364 157.32 273.865 157.76 273.365 158.072L272.396 158.675L273.521 159.027C273.572 159.043 273.624 159.059 273.678 159.075L273.679 159.076C274.279 159.256 275.157 159.467 276.277 159.598L276.278 159.598C278.521 159.858 281.735 159.79 285.641 158.494L285.641 158.494C289.334 157.269 292.243 154.578 294.225 152.207L294.225 152.207C295.217 151.019 295.98 149.908 296.495 149.094L296.495 149.094C296.752 148.686 296.948 148.353 297.08 148.121L297.08 148.12C297.091 148.1 297.101 148.082 297.111 148.066L297.374 147.611L296.921 147.323C296.903 147.312 296.887 147.303 296.877 147.297L296.856 147.285Z" fill="#0DE0C0" stroke="white"/>
<path d="M279.822 144.874L280.069 144.255C280.152 144.046 280.271 143.752 280.423 143.389L280.423 143.389C280.744 142.623 281.212 141.553 281.801 140.338L281.801 140.338C282.979 137.909 284.643 134.891 286.586 132.552L286.586 132.552C289.307 129.279 292.384 128.089 294.802 127.735L294.802 127.735C296.01 127.558 297.05 127.59 297.798 127.672L297.798 127.672C298.172 127.713 298.473 127.767 298.685 127.814M279.822 144.874L286.951 132.915C285.044 135.211 283.4 138.189 282.228 140.605C281.644 141.811 281.179 142.872 280.861 143.631C280.805 143.765 280.753 143.889 280.706 144.003C280.655 143.995 280.608 143.986 280.565 143.978L280.51 144.489L280.847 144.667L280.829 145.062C280.829 145.062 280.829 145.062 280.83 145.062M279.822 144.874L280.455 145.001C280.557 145.021 280.682 145.043 280.83 145.062M279.822 144.874L282.904 145.027M298.685 127.814L298.622 128.317L298.656 128.331L298.649 128.387L298.649 128.387L298.591 128.841L298.558 128.833L298.558 128.833C298.539 128.829 298.52 128.825 298.5 128.821C298.442 128.997 298.373 129.199 298.294 129.424C297.98 130.306 297.497 131.53 296.824 132.892M298.685 127.814L298.72 127.821L299.285 127.947L299.112 128.522L299.095 128.578L299.095 128.579C299.018 128.829 298.901 129.191 298.742 129.64L298.742 129.64C298.422 130.537 297.933 131.779 297.249 133.163M298.685 127.814L298.685 127.813L298.622 128.317L282.904 145.027M296.824 132.892C295.533 135.505 293.549 138.609 290.72 140.803L290.75 140.861L290.891 141.134L290.504 141.35L290.621 141.53C290.621 141.53 290.621 141.53 290.621 141.53M296.824 132.892L297.249 133.163C297.249 133.163 297.249 133.163 297.249 133.163M296.824 132.892L297.249 133.163M290.621 141.53L290.504 141.35L290.477 141.365L290.064 141.595L289.947 141.369C286.883 143.518 284.468 144.283 282.812 144.51C282.05 144.615 281.448 144.605 281.016 144.563C280.992 144.621 280.971 144.674 280.952 144.723L280.847 144.668L280.83 145.062C280.83 145.062 280.83 145.062 280.83 145.062M290.621 141.53C287.322 143.928 284.707 144.779 282.904 145.027M290.621 141.53C293.738 139.266 295.884 135.926 297.249 133.163M280.83 145.062C281.306 145.122 282.003 145.15 282.904 145.027" fill="#0DE0C0" stroke="white"/>
<path d="M283.095 129.944L283.095 129.944C283.016 129.937 282.945 129.928 282.881 129.917L282.344 129.824L282.456 129.26C282.496 129.058 282.556 128.766 282.638 128.4M283.095 129.944L294.398 110.209C292.026 110.911 289.095 112.693 286.744 116.947C285.188 119.762 284.101 122.922 283.404 125.376C283.054 126.603 282.802 127.654 282.638 128.4M283.095 129.944C283.46 129.974 284 129.949 284.733 129.739C286.197 129.319 288.433 128.16 291.581 125.225C294.558 122.449 296.364 118.682 297.426 115.616L297.426 115.616C297.957 114.083 298.303 112.722 298.516 111.743L298.516 111.743C298.622 111.255 298.695 110.863 298.742 110.591M283.095 129.944L298.742 110.591M282.638 128.4C282.638 128.4 282.637 128.4 282.637 128.401L283.103 128.554L282.638 128.4C282.638 128.4 282.638 128.4 282.638 128.4ZM298.742 110.591C298.748 110.56 298.753 110.529 298.758 110.499L298.846 109.942L298.32 109.862C298.301 109.859 298.3 109.859 298.299 109.859C298.298 109.859 298.297 109.858 298.283 109.856L298.283 109.856L298.277 109.855C298.061 109.825 297.754 109.795 297.377 109.789L297.377 109.789C296.623 109.777 295.582 109.858 294.398 110.209L298.742 110.591Z" fill="#0DE0C0" stroke="white"/>
<path d="M284.002 111.663L284.034 111.074C284.044 110.879 284.062 110.607 284.089 110.27L284.089 110.269C284.149 109.546 284.255 108.522 284.446 107.318L284.446 107.318C284.827 104.91 285.544 101.775 286.889 98.8771L287.319 99.1363L286.889 98.8771C288.757 94.8508 291.27 92.6181 293.338 91.3994L284.002 111.663ZM284.002 111.663L284.547 111.66M284.002 111.663L284.547 111.66M284.547 111.66C284.675 111.659 284.839 111.653 285.033 111.637L285.033 111.637C285.537 111.594 286.249 111.479 287.093 111.193L287.093 111.193C288.782 110.619 290.99 109.36 293.106 106.625L293.106 106.625C296.582 102.128 297.646 98.0254 297.835 95.0362L297.835 95.0361C297.93 93.5421 297.806 92.3283 297.658 91.4854L297.658 91.4851C297.584 91.0632 297.503 90.7344 297.441 90.5102L297.441 90.5096C297.439 90.5055 297.438 90.5011 297.437 90.4966C297.43 90.4712 297.421 90.4401 297.413 90.411L297.278 89.9631L296.861 90.0254C296.839 90.0287 296.815 90.0328 296.794 90.0363C296.788 90.0373 296.783 90.0382 296.778 90.0391L296.778 90.0391L296.774 90.0398C296.578 90.0745 296.303 90.1355 295.967 90.2352L295.966 90.2353M284.547 111.66L295.966 90.2353M295.966 90.2353C295.293 90.435 294.372 90.7904 293.338 91.3994L295.966 90.2353Z" fill="#0DE0C0" stroke="white"/>
<path d="M283.442 95.3498L283.441 95.3503C283.337 95.4513 283.242 95.5412 283.157 95.6187L282.43 96.2875L282.357 95.2146C282.344 95.0352 282.331 94.8163 282.318 94.5625L282.318 94.5621C282.278 93.7975 282.242 92.7124 282.255 91.4306C282.281 88.8681 282.505 85.5141 283.295 82.3568L283.442 95.3498ZM283.442 95.3498C283.863 94.9412 284.454 94.3289 285.132 93.5121L283.442 95.3498ZM286.812 74.6141L286.812 74.6141C287.479 73.5958 288.12 72.7517 288.634 72.1404L286.812 74.6141ZM286.812 74.6141C285.48 76.6495 284.038 79.3874 283.295 82.3567L286.812 74.6141ZM289.302 71.4014L289.302 71.4014C289.364 71.34 289.419 71.2878 289.466 71.2441L289.878 70.8651L290.188 71.3924C290.287 71.5595 290.42 71.8058 290.565 72.13L289.302 71.4014ZM289.302 71.4014L289.301 71.4031M289.302 71.4014L289.301 71.4031M289.301 71.4031C289.118 71.5863 288.891 71.8346 288.634 72.1403L289.301 71.4031ZM291.404 75.0092L291.404 75.0093C291.818 77.5418 291.697 81.2776 289.604 86.15L291.404 75.0092ZM291.404 75.0092C291.197 73.7432 290.857 72.7805 290.565 72.1302L291.404 75.0092Z" fill="#0DE0C0" stroke="white"/>
<path d="M278.459 80.3614L278.254 79.4212C278.216 79.2464 278.172 79.031 278.124 78.7786L278.124 78.7784C277.987 78.0477 277.82 77.0029 277.706 75.7433L277.706 75.7432C277.477 73.2245 277.453 69.8436 278.278 66.3966C278.961 63.5435 280.084 60.791 281.211 58.6282L281.212 58.628C281.776 57.5468 282.342 56.6112 282.857 55.8831L278.459 80.3614ZM278.459 80.3614L279.065 79.7198M278.459 80.3614L279.065 79.7198M279.065 79.7198C280.107 78.6183 282.335 75.8984 284.531 69.8201L284.531 69.8201C286.185 65.2397 286.19 61.4141 285.776 58.7251L285.776 58.7251C285.569 57.3811 285.257 56.3228 284.996 55.5977C284.874 55.2588 284.763 54.9928 284.679 54.8045L284.393 54.1663M279.065 79.7198L284.393 54.1663M284.393 54.1663L283.926 54.6M284.393 54.1663L283.926 54.6M283.926 54.6C283.617 54.8866 283.253 55.3219 282.857 55.883L283.926 54.6ZM278.593 78.7081C278.458 77.9926 278.295 76.9662 278.182 75.7276L284.084 69.6016C282.162 74.9195 280.225 77.6176 279.113 78.9004C279.139 79.0317 279.163 79.148 279.185 79.2485L278.719 79.3349L278.374 78.9499C278.441 78.8786 278.515 78.7993 278.594 78.7114C278.593 78.7103 278.593 78.7092 278.593 78.7081Z" fill="#0DE0C0" stroke="white"/>
<path d="M265.898 62.0503L265.898 62.0503L265.75 62.1447C264.38 59.7821 263.351 56.6644 262.713 53.9184C262.394 52.5432 262.171 51.2558 262.052 50.1958L265.898 62.0503ZM265.898 62.0503L265.75 62.1447C266.991 64.2837 269.366 66.1955 271.4 67.562C272.422 68.2485 273.367 68.8033 274.057 69.1867L265.898 62.0503ZM275.461 69.9334L274.794 69.5844C274.606 69.4861 274.355 69.3523 274.057 69.1867L275.461 69.9334ZM275.461 69.9334L275.455 69.1495M275.461 69.9334L275.455 69.1495M275.455 69.1495C275.441 67.366 275.023 62.5437 272.84 56.645M275.455 69.1495L272.671 56.708L272.84 56.645M262.013 47.681L262.449 47.7142C262.462 47.7152 262.481 47.7169 262.495 47.7182C262.5 47.7187 262.505 47.7191 262.507 47.7193L262.512 47.7197L262.512 47.7197C262.722 47.7397 263.023 47.7778 263.395 47.8511L263.395 47.8512C264.138 47.998 265.161 48.286 266.288 48.8518C268.549 49.987 271.207 52.2324 272.84 56.645M262.013 47.681L272.397 56.8099L272.635 57.2783L272.89 57.1392L272.671 56.708L272.84 56.645M262.013 47.681L261.972 48.1484M262.013 47.681L261.972 48.1484M261.972 48.1484C261.929 48.6318 261.956 49.3368 262.052 50.1956L261.972 48.1484Z" fill="#0DE0C0" stroke="white"/>
<path d="M279.273 83.7263L278.611 83.6906C277.227 83.6159 273.969 83.2737 269.123 80.0258C265.996 77.9305 264.078 75.2096 262.942 73.0159C262.373 71.919 262 70.9525 261.769 70.2592L279.273 83.7263ZM279.273 83.7263L279.054 83.0325M279.273 83.7263L279.054 83.0325M279.054 83.0325C279.003 82.8718 278.937 82.6705 278.852 82.4345C278.621 81.7853 278.257 80.8766 277.727 79.8355L277.727 79.8354C276.668 77.754 274.942 75.1351 272.273 73.0023L272.008 73.4139L272.273 73.0023C268.347 69.8637 264.721 68.7642 261.95 68.8935L261.378 68.9202M279.054 83.0325L261.378 68.9202M261.378 68.9202L261.545 69.5303M261.378 68.9202L261.545 69.5303M261.545 69.5303C261.596 69.7165 261.67 69.9631 261.769 70.2591L261.545 69.5303Z" fill="#0DE0C0" stroke="white"/>
<path d="M275.195 87.0663L275.296 86.9141C277.874 89.0159 279.5 91.5667 280.48 93.5866L280.48 93.5867C280.97 94.5966 281.3 95.4763 281.508 96.1044C281.508 96.1045 281.508 96.1047 281.508 96.1048L281.059 96.2503L275.195 87.0663ZM275.195 87.0663L275.195 87.0663L275.296 86.9141M275.195 87.0663L275.296 86.9141M265.904 83.7908L266.398 83.7421C267.65 83.6187 268.872 83.6231 270.232 84.0131L265.904 83.7908ZM265.904 83.7908L266.005 84.3302M265.904 83.7908L266.005 84.3302M266.005 84.3302C266.037 84.501 266.084 84.7262 266.152 84.9964L266.005 84.3302ZM275.296 86.9141C273.319 85.3031 271.705 84.435 270.233 84.0131L275.296 86.9141ZM266.152 84.9966C266.313 85.6408 266.591 86.5412 267.058 87.5696L266.152 84.9966Z" fill="#0DE0C0" stroke="white"/>
<path d="M266.825 95.8316L267.378 95.8784C268.681 95.9887 270.133 96.1455 271.759 96.8914L271.759 96.8914C273.539 97.7075 275.504 99.2175 277.714 102.093M266.825 95.8316L281.867 110.571C281.143 108.096 279.878 104.908 277.714 102.093M266.825 95.8316L266.9 96.4317C267.042 97.5791 267.359 99.8065 268.146 102.26C268.931 104.709 270.197 107.423 272.26 109.511M266.825 95.8316L281.867 110.571M277.714 102.093L277.587 102.205L277.914 102.568L277.701 102.794L277.669 102.829C279.585 105.463 280.736 108.386 281.412 110.697M277.714 102.093L277.587 102.205L277.568 102.184L277.222 101.799L277.034 101.999C274.999 99.4472 273.204 98.1044 271.6 97.3689C270.244 96.7471 269.013 96.5531 267.858 96.4408C267.855 96.4143 267.852 96.3883 267.849 96.3628L267.374 96.3972L267.37 96.9161C267.394 96.9181 267.418 96.9202 267.443 96.9223C267.791 99.4569 268.821 105.031 272.217 108.766L272.192 108.799L272.004 109.053L272.369 109.382L272.26 109.511M281.412 110.697C281.768 111.913 281.991 112.957 282.126 113.696C282.136 113.754 282.146 113.81 282.156 113.864C282.203 113.873 282.249 113.882 282.293 113.89L282.243 114.403L281.771 114.451C281.764 114.406 281.757 114.358 281.749 114.307C280.043 113.959 276.58 113.025 272.939 109.504L272.766 109.739L272.385 109.396L272.369 109.382L272.26 109.511C272.26 109.511 272.26 109.511 272.26 109.511M281.412 110.697L281.867 110.571M281.412 110.697L281.867 110.571M272.26 109.511C276.543 113.847 280.671 114.63 282.194 114.915L282.816 115.032L282.716 114.355C282.687 114.163 282.647 113.918 282.595 113.63L282.595 113.629C282.457 112.874 282.23 111.81 281.867 110.571" fill="#0DE0C0" stroke="white"/>
<path d="M281.445 129.79L280.84 129.631C279.366 129.243 275.372 128.182 271.503 123.491C269.641 121.233 268.61 118.391 268.03 115.852C267.448 113.307 267.309 111.022 267.258 109.846L267.232 109.259L267.77 109.342C269.039 109.536 270.455 109.788 271.998 110.654L271.998 110.654C273.686 111.601 275.498 113.266 277.443 116.333L281.445 129.79ZM281.445 129.79L281.4 129.122M281.445 129.79L281.4 129.122M281.4 129.122C281.386 128.926 281.366 128.676 281.337 128.378L281.337 128.378C281.261 127.602 281.119 126.505 280.86 125.223L280.86 125.223M281.4 129.122L280.86 125.223M280.86 125.223C280.341 122.66 279.347 119.336 277.443 116.333L280.86 125.223Z" fill="#0DE0C0" stroke="white"/>
<path d="M275.274 130.098L275.274 130.098C274.065 126.654 272.383 124.776 270.656 123.633L270.428 124.073L270.656 123.633C269.409 122.808 268.171 122.381 267.107 122.015L267.095 122.011C267.095 122.011 267.095 122.011 267.095 122.011C267.095 122.011 267.095 122.011 267.095 122.011C266.827 121.919 266.573 121.831 266.328 121.741L265.704 121.51L265.724 122.213C265.821 125.6 265.982 130.688 268.326 135.771C270.926 141.41 275.367 143.69 277.009 144.514L277.804 144.912L277.656 143.989C277.439 142.632 277.305 141.286 277.169 139.915L277.169 139.915L277.166 139.889C277.095 139.172 277.023 138.449 276.938 137.72L276.938 137.72C276.663 135.36 276.249 132.879 275.274 130.098Z" fill="#0DE0C0" stroke="white"/>
<path d="M263.434 134.758L262.812 134.43L262.771 135.156C262.581 138.612 262.548 143.68 264.46 149.163L264.46 149.163C266.519 155.069 270.582 157.391 272.296 158.37L272.298 158.372L272.3 158.373C272.335 158.392 272.363 158.408 272.392 158.425C272.415 158.438 272.439 158.452 272.468 158.468L273.211 158.89L273.143 158.003C273.057 156.891 273.004 155.853 272.951 154.828C272.951 154.828 272.951 154.828 272.951 154.828L272.95 154.819C272.789 151.687 272.637 148.717 271.577 144.453C270.668 140.791 269.178 138.662 267.575 137.27C266.405 136.254 265.204 135.652 264.161 135.128L264.145 135.12C264.145 135.12 264.145 135.12 264.145 135.12C264.114 135.104 264.083 135.089 264.052 135.073C263.838 134.966 263.633 134.863 263.434 134.758Z" fill="#0DE0C0" stroke="white"/>
<path d="M256.865 143.388L257.473 143.788C257.519 143.819 257.567 143.85 257.614 143.881C257.689 143.93 257.764 143.98 257.84 144.03L257.858 144.042C259.004 144.794 260.402 145.712 261.628 147.145C262.87 148.599 263.92 150.562 264.411 153.387C264.916 156.288 264.96 157.987 264.965 159.795C264.966 159.9 264.966 160.005 264.966 160.111C264.966 160.169 264.966 160.227 264.966 160.285L264.966 160.285L264.966 160.291C264.968 161.797 264.971 163.457 265.207 166.004L265.322 167.242L264.432 166.404C264.047 166.042 263.624 165.694 263.173 165.327L256.865 143.388ZM256.865 143.388L256.772 144.122M256.865 143.388L256.772 144.122M256.772 144.122C256.356 147.379 255.982 151.761 257.461 157.174L257.461 157.174C258.296 160.227 259.661 162.107 261.083 163.511L261.084 163.511C261.749 164.167 262.426 164.718 263.055 165.23L263.063 165.237L263.064 165.237M256.772 144.122L263.064 165.237M263.064 165.237C263.086 165.255 263.102 165.268 263.119 165.283M263.064 165.237L263.119 165.283M263.119 165.283C263.134 165.295 263.15 165.309 263.173 165.327L263.119 165.283Z" fill="#0DE0C0" stroke="white"/>
<path d="M251.683 157.292C251.59 158.12 251.513 158.798 251.462 159.428L251.669 164.946C252.131 168.962 253.894 171.158 255.516 173.178L255.527 173.191L255.527 173.191L255.543 173.211C255.849 173.593 256.147 173.964 256.434 174.344L257.237 175.407L257.274 174.082C257.337 171.813 257.641 170.035 257.923 168.39L257.923 168.387C257.927 168.362 257.932 168.332 257.938 168.301C257.945 168.261 257.952 168.218 257.958 168.181C258.283 166.276 258.564 164.528 258.365 162.4C258.042 158.94 257.205 156.749 256.118 155.207C255.145 153.826 253.987 152.989 252.873 152.233L252.233 151.798L252.164 152.585C252.016 154.273 251.877 155.563 251.76 156.614L251.759 156.615C251.744 156.753 251.729 156.887 251.714 157.017C251.705 157.1 251.696 157.182 251.687 157.263L251.683 157.292ZM257.467 168.169C257.462 168.199 257.457 168.23 257.452 168.261L257.888 162.417C258.08 164.464 257.812 166.148 257.487 168.054C257.48 168.092 257.474 168.13 257.467 168.169Z" fill="#0DE0C0" stroke="white"/>
<path d="M246.888 158.587L246.357 158.051L246.123 158.75C245.873 159.5 245.622 160.188 245.38 160.854L245.362 160.902L245.362 160.902L245.361 160.905C244.34 163.701 243.482 166.049 243.657 170.31L243.657 170.31C243.737 172.264 244.314 174.146 245.044 175.922C245.501 177.034 246.012 178.094 246.5 179.106L246.512 179.132L246.513 179.132L246.518 179.143C246.674 179.466 246.828 179.784 246.978 180.1L247.593 181.397L247.868 180.031C248.316 177.803 248.89 176.379 249.412 175.085L249.412 175.085L249.412 175.085L249.412 175.085L249.412 175.084L249.412 175.084L249.412 175.084L249.412 175.084L249.412 175.084L249.412 175.084L249.412 175.083L249.412 175.083L249.413 175.083L249.413 175.083L249.413 175.083L249.413 175.083L249.413 175.083L249.413 175.082L249.413 175.082L249.413 175.082L249.413 175.082L249.413 175.082L249.413 175.082L249.413 175.081L249.413 175.081L249.413 175.081L249.413 175.081L249.413 175.081L249.414 175.081L249.414 175.081L249.414 175.08L249.414 175.08L249.414 175.08L249.414 175.08L249.414 175.08L249.414 175.08L249.414 175.079L249.414 175.079L249.414 175.079L249.414 175.079L249.414 175.079L249.414 175.079L249.414 175.078L249.415 175.078L249.415 175.078L249.415 175.078L249.415 175.078L249.415 175.078L249.415 175.078L249.415 175.077L249.415 175.077L249.415 175.077L249.415 175.077L249.415 175.077L249.415 175.077L249.415 175.076L249.415 175.076L249.415 175.076L249.415 175.076L249.416 175.076L249.416 175.076L249.416 175.075L249.416 175.075L249.416 175.075L249.416 175.075L249.416 175.075L249.416 175.075L249.416 175.075L249.416 175.074L249.416 175.074L249.416 175.074L249.416 175.074L249.416 175.074L249.416 175.074L249.416 175.073L249.417 175.073L249.417 175.073L249.417 175.073L249.417 175.073L249.417 175.073L249.417 175.073L249.417 175.072L249.417 175.072L249.417 175.072L249.417 175.072L249.417 175.072L249.417 175.072L249.417 175.071L249.417 175.071L249.417 175.071L249.417 175.071L249.418 175.071L249.418 175.071L249.418 175.071L249.418 175.07L249.418 175.07L249.418 175.07L249.418 175.07L249.418 175.07L249.418 175.07L249.418 175.069L249.418 175.069L249.418 175.069L249.418 175.069L249.418 175.069L249.418 175.069L249.419 175.068L249.419 175.068L249.419 175.068L249.419 175.068L249.419 175.068L249.419 175.068L249.419 175.068L249.419 175.067L249.419 175.067L249.419 175.067L249.419 175.067L249.419 175.067L249.419 175.067L249.419 175.066L249.419 175.066L249.419 175.066L249.42 175.066L249.42 175.066L249.42 175.066L249.42 175.066L249.42 175.065L249.42 175.065L249.42 175.065L249.42 175.065L249.42 175.065L249.42 175.065L249.42 175.064L249.42 175.064L249.42 175.064L249.42 175.064L249.42 175.064L249.42 175.064L249.421 175.064L249.421 175.063L249.421 175.063L249.421 175.063L249.421 175.063L249.421 175.063L249.421 175.063L249.421 175.062L249.421 175.062L249.421 175.062L249.421 175.062L249.421 175.062L249.421 175.062L249.421 175.061L249.421 175.061L249.421 175.061L249.422 175.061L249.422 175.061L249.422 175.061L249.422 175.061L249.422 175.06L249.422 175.06L249.422 175.06L249.422 175.06L249.422 175.06L249.422 175.06L249.422 175.059L249.422 175.059L249.422 175.059L249.422 175.059L249.422 175.059L249.422 175.059L249.423 175.059L249.423 175.058L249.423 175.058L249.423 175.058L249.423 175.058L249.423 175.058L249.423 175.058L249.423 175.057L249.423 175.057L249.423 175.057L249.423 175.057L249.423 175.057L249.423 175.057L249.423 175.057L249.423 175.056L249.423 175.056L249.424 175.056L249.424 175.056L249.424 175.056L249.424 175.056L249.424 175.055L249.424 175.055L249.424 175.055L249.424 175.055L249.424 175.055L249.424 175.055L249.424 175.055L249.424 175.054L249.424 175.054L249.424 175.054L249.424 175.054L249.425 175.054L249.425 175.054L249.425 175.053L249.425 175.053L249.425 175.053L249.425 175.053L249.425 175.053L249.425 175.053L249.425 175.053L249.425 175.052L249.425 175.052L249.425 175.052L249.425 175.052L249.425 175.052L249.425 175.052L249.425 175.051L249.426 175.051L249.426 175.051L249.426 175.051L249.426 175.051L249.426 175.051L249.426 175.051L249.426 175.05L249.426 175.05L249.426 175.05L249.426 175.05L249.426 175.05L249.426 175.05L249.426 175.049L249.426 175.049L249.426 175.049L249.426 175.049L249.427 175.049L249.427 175.049L249.427 175.048L249.427 175.048L249.427 175.048L249.427 175.048L249.427 175.048L249.427 175.048L249.427 175.048L249.427 175.047L249.427 175.047L249.427 175.047L249.427 175.047L249.427 175.047L249.427 175.047L249.427 175.046L249.428 175.046L249.428 175.046L249.428 175.046L249.428 175.046L249.428 175.046L249.428 175.046L249.428 175.045L249.428 175.045L249.428 175.045L249.428 175.045L249.428 175.045L249.428 175.045L249.428 175.044L249.428 175.044L249.428 175.044L249.428 175.044L249.429 175.044L249.429 175.044L249.429 175.044L249.429 175.043L249.429 175.043L249.429 175.043L249.429 175.043L249.429 175.043L249.429 175.043L249.429 175.042L249.429 175.042L249.429 175.042L249.429 175.042L249.429 175.042L249.429 175.042L249.429 175.042L249.43 175.041L249.43 175.041L249.43 175.041L249.43 175.041L249.43 175.041L249.43 175.041L249.43 175.04L249.43 175.04L249.43 175.04L249.43 175.04L249.43 175.04L249.43 175.04L249.43 175.04L249.43 175.039L249.43 175.039L249.43 175.039L249.431 175.039L249.431 175.039L249.431 175.039L249.431 175.038L249.431 175.038L249.431 175.038L249.431 175.038L249.431 175.038L249.431 175.038L249.431 175.038L249.431 175.037L249.431 175.037L249.431 175.037L249.431 175.037L249.431 175.037L249.431 175.037L249.432 175.036L249.432 175.036L249.432 175.036L249.432 175.036L249.432 175.036L249.432 175.036L249.432 175.036L249.432 175.035L249.432 175.035L249.432 175.035L249.432 175.035L249.432 175.035L249.432 175.035L249.432 175.034L249.432 175.034L249.432 175.034L249.433 175.034L249.433 175.034L249.433 175.034L249.433 175.034L249.433 175.033L249.433 175.033L249.433 175.033L249.433 175.033L249.433 175.033L249.433 175.033L249.433 175.032L249.433 175.032L249.433 175.032L249.433 175.032L249.433 175.032L249.433 175.032L249.434 175.032L249.434 175.031L249.434 175.031L249.434 175.031L249.434 175.031L249.434 175.031L249.434 175.031L249.434 175.03L249.434 175.03L249.434 175.03L249.434 175.03L249.434 175.03L249.434 175.03L249.434 175.03L249.434 175.029L249.434 175.029L249.435 175.029L249.435 175.029L249.435 175.029L249.435 175.029L249.435 175.028L249.435 175.028L249.435 175.028L249.435 175.028L249.435 175.028L249.435 175.028L249.435 175.028L249.435 175.027L249.435 175.027L249.435 175.027L249.435 175.027L249.435 175.027L249.436 175.027L249.436 175.026L249.436 175.026L249.436 175.026L249.436 175.026L249.436 175.026L249.436 175.026L249.436 175.026L249.436 175.025L249.436 175.025L249.436 175.025L249.436 175.025L249.436 175.025L249.436 175.025L249.436 175.024L249.436 175.024L249.437 175.024L249.437 175.024L249.437 175.024L249.437 175.024L249.437 175.024L249.437 175.023L249.437 175.023L249.437 175.023L249.437 175.023L249.437 175.023L249.437 175.023L249.437 175.022L249.437 175.022L249.437 175.022L249.437 175.022L249.437 175.022L249.438 175.022L249.438 175.022L249.438 175.021L249.438 175.021L249.438 175.021L249.438 175.021L249.438 175.021L249.438 175.021L249.438 175.02L249.438 175.02L249.438 175.02L249.438 175.02L249.438 175.02L249.438 175.02L249.438 175.02L249.438 175.019L249.439 175.019L249.439 175.019L249.439 175.019L249.439 175.019L249.439 175.019L249.439 175.018L249.439 175.018L249.439 175.018L249.439 175.018L249.439 175.018L249.439 175.018L249.439 175.018L249.439 175.017L249.439 175.017L249.439 175.017L249.439 175.017L249.44 175.017L249.44 175.017L249.44 175.016L249.44 175.016L249.44 175.016L249.44 175.016L249.44 175.016L249.44 175.016L249.44 175.016L249.44 175.015L249.44 175.015L249.44 175.015L249.44 175.015L249.44 175.015L249.44 175.015L249.44 175.014L249.441 175.014L249.441 175.014L249.441 175.014L249.441 175.014L249.441 175.014L249.441 175.014L249.441 175.013L249.441 175.013L249.441 175.013L249.441 175.013L249.441 175.013L249.441 175.013L249.441 175.013L249.441 175.012L249.441 175.012L249.441 175.012L249.442 175.012L249.442 175.012L249.442 175.012L249.442 175.011L249.442 175.011L249.442 175.011L249.442 175.011L249.442 175.011L249.442 175.011L249.442 175.011L249.442 175.01L249.442 175.01L249.442 175.01L249.442 175.01L249.442 175.01L249.442 175.01L249.443 175.009L249.443 175.009L249.443 175.009L249.443 175.009L249.443 175.009L249.443 175.009L249.443 175.009L249.443 175.008L249.443 175.008L249.443 175.008L249.443 175.008L249.443 175.008L249.443 175.008L249.443 175.007L249.443 175.007L249.443 175.007L249.444 175.007L249.444 175.007L249.444 175.007L249.444 175.005C250.042 173.522 250.566 172.192 250.727 170.013L250.727 170.012C250.988 166.472 250.515 164.094 249.682 162.312C248.929 160.702 247.893 159.601 246.888 158.587Z" fill="#0DE0C0" stroke="white"/>
<path d="M240.042 164.992L239.834 164.511L239.833 164.511C239.834 164.511 239.834 164.511 240.042 164.992ZM240.042 164.992L240.044 164.993M240.042 164.992L240.041 164.991L239.604 164.755C239.633 164.684 239.673 164.633 239.706 164.6C239.728 164.578 239.747 164.563 239.757 164.556C239.775 164.543 239.79 164.534 239.802 164.527C239.808 164.524 239.814 164.521 239.819 164.518L239.827 164.514L239.83 164.513L239.832 164.512L239.833 164.512L239.762 164.544L239.706 164.6C239.597 164.709 239.44 164.87 239.246 165.082L240.044 164.993M240.044 164.993L240.045 164.993M240.044 164.993L241.56 175.418C242.98 171.618 242.66 168.89 241.954 167.09C241.602 166.192 241.158 165.535 240.797 165.099L240.797 165.098C240.617 164.882 240.459 164.72 240.343 164.611L240.295 164.565L240.239 164.534L240.24 164.534L240.242 164.536L240.246 164.538L240.255 164.543C240.26 164.547 240.267 164.55 240.273 164.555C240.286 164.563 240.301 164.574 240.317 164.587C240.325 164.594 240.334 164.602 240.343 164.611C240.37 164.635 240.4 164.669 240.429 164.714C240.471 164.778 240.508 164.864 240.519 164.968C240.531 165.071 240.512 165.161 240.484 165.23L240.045 164.993L240.045 164.993M236.143 184.454C236.143 184.454 236.143 184.454 236.143 184.454L235.822 184.065L236.143 184.454ZM236.143 184.454C236.499 184.113 236.998 183.587 237.579 182.839C238.743 181.344 240.235 178.964 241.56 175.418L236.143 184.454ZM240.045 164.993C240.238 164.533 240.238 164.534 240.238 164.534L240.238 164.533L240.045 164.993ZM237.749 166.931C236.593 168.533 235.244 170.851 234.482 173.713L239.246 165.082C238.859 165.506 238.328 166.129 237.749 166.93L237.749 166.931ZM234.045 182.317C234.276 183.209 234.578 183.849 234.826 184.27L234.045 182.317ZM234.482 173.713C233.403 177.757 233.582 180.534 234.045 182.317L234.482 173.713Z" fill="#0DE0C0" stroke="white"/>
<path d="M229.636 168.382L229.327 168.123L229.043 168.392L229.042 168.393C229.037 168.397 229.03 168.404 229.021 168.413C228.905 168.521 228.741 168.68 228.539 168.887L229.636 168.382ZM229.636 168.382C229.637 168.383 229.638 168.383 229.639 168.384C229.766 168.481 229.938 168.625 230.13 168.824L230.13 168.824C230.523 169.23 231.001 169.864 231.356 170.777L231.356 170.777C232.067 172.606 232.27 175.519 230.388 179.931L230.388 179.931C229.155 182.822 227.61 184.945 226.371 186.346C225.752 187.046 225.209 187.566 224.821 187.912L224.821 187.912C224.667 188.049 224.537 188.159 224.434 188.243L224.023 188.577L223.731 188.074C223.669 187.968 223.595 187.832 223.515 187.668L223.515 187.667C223.29 187.208 223.018 186.522 222.817 185.611L223.282 185.523L222.817 185.611C222.413 183.787 222.296 181.067 223.405 177.44L229.636 168.382ZM226.952 170.719L226.952 170.719C227.568 169.925 228.13 169.308 228.539 168.888L226.952 170.719ZM226.952 170.719C225.721 172.308 224.27 174.605 223.405 177.44L226.952 170.719Z" fill="#0DE0C0" stroke="white"/>
<path d="M88.332 206.894L87.9067 206.869L87.911 206.453C87.8833 206.279 87.853 206.039 87.836 205.741L87.836 205.741C87.7994 205.096 87.8255 204.181 88.0775 203.103C88.5834 200.938 89.9941 198.137 93.5803 195.555L93.6643 195.702L93.6643 195.702L93.5803 195.555C95.8418 193.927 98.7007 192.873 100.981 192.226L100.981 192.226C102.124 191.903 103.126 191.679 103.844 191.537C104.183 191.469 104.459 191.42 104.656 191.386L105.2 191.294L105.176 191.888C105.168 192.066 105.152 192.295 105.121 192.568L105.121 192.569C105.04 193.258 104.857 194.23 104.447 195.363L104.447 195.363C103.625 197.633 101.894 200.54 98.2706 203.105L98.2705 203.105C95.1907 205.285 92.6578 206.229 90.8868 206.627C90.0023 206.826 89.309 206.888 88.8346 206.9L88.8343 206.9C88.6232 206.905 88.455 206.901 88.332 206.894Z" fill="#0DE0C0" stroke="white"/>
<path d="M73.918 200.263L73.918 200.263C73.9193 200.542 73.9419 200.766 73.9667 200.923C73.9668 200.923 73.9669 200.924 73.967 200.925L73.9671 200.925L73.9676 200.929L74.0237 201.298L74.3691 201.329C74.4941 201.34 74.6759 201.351 74.9117 201.354L74.9118 201.354C75.3984 201.36 76.1145 201.328 77.0396 201.178C78.8901 200.879 81.5742 200.112 84.9316 198.242L84.9316 198.242C88.8135 196.08 90.6662 193.705 91.5443 191.848C91.9828 190.921 92.1753 190.129 92.2585 189.565L92.2585 189.565C92.2921 189.336 92.3076 189.145 92.3139 188.997L92.3366 188.46L91.8418 188.49C91.6634 188.501 91.4051 188.519 91.0814 188.548C91.0814 188.548 91.0813 188.548 91.0813 188.548L91.0885 189.067L73.918 200.263ZM73.918 200.263C73.9156 199.7 74.0044 198.905 74.3612 197.967L73.918 200.263ZM74.3613 197.966C75.0761 196.084 76.8569 193.655 81.0666 191.344L74.3613 197.966Z" fill="#0DE0C0" stroke="white"/>
<path d="M79.7259 183.148C79.0026 182.92 77.9841 182.629 76.8041 182.371C74.4501 181.854 71.4247 181.463 68.8047 181.996L68.861 182.507L68.8047 181.996C64.2789 182.916 61.9113 185.195 60.6836 187.266L60.6835 187.266C60.0733 188.296 59.7504 189.265 59.5797 189.977C59.5797 189.977 59.5796 189.977 59.5796 189.977L60.0424 190.075C59.9623 190.409 59.9178 190.68 59.894 190.865L79.7259 183.148ZM79.7259 183.148C80.0864 183.261 80.3729 183.358 80.5699 183.426C80.5776 183.429 80.5839 183.431 80.586 183.432C80.5865 183.432 80.5869 183.432 80.5873 183.432L80.9981 183.565L80.8822 184.033C80.8339 184.229 80.7595 184.498 80.6492 184.82L80.6492 184.82C80.4123 185.512 80.0091 186.455 79.3421 187.454C78.0031 189.46 75.6137 191.675 71.4338 192.557L71.4338 192.557C67.8296 193.317 64.8344 192.993 62.7412 192.48C61.695 192.223 60.8727 191.919 60.3116 191.678L60.3113 191.678C60.0307 191.558 59.8152 191.453 59.6699 191.379L59.6653 191.377L59.3671 191.238L59.4152 190.864L59.4154 190.863C59.4167 190.852 59.4184 190.839 59.4203 190.825L79.7259 183.148ZM59.6757 191.381L59.6725 191.38C59.6765 191.382 59.6779 191.382 59.6757 191.381Z" fill="#0DE0C0" stroke="white"/>
<path d="M66.8307 176.703L66.8311 176.702C66.9485 176.415 67.028 176.175 67.0793 175.996L67.2071 175.55L66.8242 175.387L66.8011 175.377L66.7974 175.375L66.7974 175.375C66.6134 175.299 66.3429 175.19 65.9973 175.062C65.3068 174.806 64.3192 174.478 63.1268 174.18C60.7449 173.587 57.5334 173.119 54.2436 173.636L54.2561 173.814L54.2561 173.814L54.2436 173.636C49.935 174.314 47.4176 176.462 45.9757 178.478C44.8542 180.046 44.391 181.521 44.2264 182.15L44.1187 182.562L44.4604 182.735C44.6091 182.81 44.8263 182.915 45.1067 183.035L66.8307 176.703ZM66.8307 176.703C66.5724 177.332 66.127 178.188 65.3766 179.106M66.8307 176.703L56.3324 183.996M56.3324 183.996L56.3324 183.996C61.1596 183.009 63.8716 180.946 65.3766 179.106M56.3324 183.996C52.7309 184.733 49.7051 184.386 47.5807 183.856M56.3324 183.996L47.5807 183.856M65.3766 179.106L65.0285 178.775M65.3766 179.106L65.0285 178.775M65.0285 178.775C65.7389 177.907 66.1565 177.101 66.3957 176.519L56.2756 183.485C61.0067 182.517 63.6104 180.51 65.0285 178.775ZM47.5807 183.856C46.5185 183.591 45.6805 183.28 45.1069 183.035L47.5807 183.856Z" fill="#0DE0C0" stroke="white"/>
<path d="M47.4348 171.987L47.4348 171.987L47.4223 172.188C51.7316 172.182 54.6486 171.023 56.4954 169.849C57.4171 169.264 58.0697 168.678 58.4938 168.233M47.4348 171.987L45.7151 162.703C49.1848 162.717 52.5298 163.849 54.9999 164.97L54.9999 164.97C56.2363 165.532 57.2573 166.092 57.9693 166.512L57.9695 166.513C58.3241 166.722 58.6029 166.897 58.7935 167.02L59.2666 167.325L58.8768 167.802C58.7795 167.921 58.6529 168.067 58.4938 168.233M47.4348 171.987L47.4222 172.188C44.2367 172.191 41.3454 171.11 39.2562 170.035L39.2561 170.035C38.2103 169.496 37.3626 168.958 36.7759 168.554L36.7755 168.554C36.4838 168.353 36.2565 168.185 36.1017 168.067L35.7136 167.772L36.0215 167.335C36.1243 167.19 36.2689 166.998 36.4577 166.775C36.8577 166.302 37.4543 165.69 38.2609 165.084L38.2612 165.084M47.4348 171.987L38.2612 165.084M58.4938 168.233C58.4937 168.233 58.4937 168.233 58.4936 168.233L58.1746 167.87L58.4944 168.233C58.4942 168.233 58.494 168.233 58.4938 168.233ZM38.2612 165.084C39.8776 163.87 42.3303 162.688 45.715 162.703L38.2612 165.084Z" fill="#0DE0C0" stroke="white"/>
<path d="M30.4861 147.285L30.4869 147.284C30.6964 147.162 30.9962 147.004 31.3726 146.833C32.1265 146.491 33.1962 146.097 34.4838 145.855L34.4841 145.855C37.063 145.373 40.5087 145.505 44.0303 147.88C46.5468 149.577 48.4695 151.946 50.1284 154.016L50.1287 154.016L50.2498 154.168C50.2499 154.168 50.2499 154.168 50.25 154.168C51.0352 155.148 51.7605 156.053 52.4655 156.787L52.4657 156.787C52.9778 157.321 53.4769 157.76 53.9771 158.072L54.9461 158.675L53.8206 159.027C53.7699 159.043 53.7177 159.059 53.6638 159.075L53.663 159.076C53.0628 159.256 52.1854 159.467 51.0646 159.598L51.0645 159.598C48.8207 159.858 45.6069 159.791 41.7006 158.494L41.7006 158.494C38.0084 157.269 35.0989 154.578 33.1171 152.207L33.117 152.207C32.125 151.019 31.362 149.908 30.8472 149.094L30.847 149.094C30.59 148.687 30.394 148.353 30.2625 148.121L30.2621 148.12C30.2511 148.101 30.2408 148.083 30.2314 148.066L29.9679 147.612L30.4213 147.323C30.4389 147.312 30.4548 147.303 30.4649 147.297L30.4861 147.285Z" fill="#0DE0C0" stroke="white"/>
<path d="M47.5195 144.874L47.2731 144.255C47.1899 144.046 47.0711 143.752 46.9191 143.389L46.9191 143.389C46.5982 142.623 46.1299 141.553 45.5408 140.338L45.5407 140.338C44.3626 137.909 42.6985 134.891 40.7554 132.552L40.7554 132.552C38.0348 129.279 34.9583 128.089 32.54 127.735L32.5399 127.735C31.332 127.558 30.2914 127.59 29.544 127.672L29.5439 127.672C29.1702 127.713 28.8692 127.767 28.6564 127.814M47.5195 144.874L40.3903 132.915C42.2978 135.211 43.9421 138.189 45.1138 140.605C45.6983 141.811 46.1629 142.872 46.481 143.631C46.5371 143.765 46.5886 143.889 46.6354 144.003C46.6872 143.995 46.7342 143.986 46.7764 143.978L46.8317 144.489L46.4951 144.667L46.5129 145.062C46.5127 145.062 46.5125 145.062 46.5123 145.062M47.5195 144.874L46.8869 145.001C46.7848 145.021 46.6596 145.043 46.5123 145.062M47.5195 144.874L44.4379 145.027M28.6564 127.814L28.7194 128.317L28.686 128.331L28.693 128.387L28.693 128.387L28.7504 128.841L28.7833 128.833L28.7841 128.833C28.8023 128.829 28.8215 128.825 28.8416 128.821C28.8998 128.997 28.9686 129.199 29.0483 129.424C29.3623 130.306 29.8444 131.53 30.518 132.892M28.6564 127.814L28.6215 127.821L28.0572 127.947L28.2297 128.522L28.2465 128.578L28.2468 128.579C28.3239 128.829 28.4407 129.191 28.6 129.64L28.6002 129.64C28.9193 130.537 29.4088 131.779 30.0927 133.163M28.6564 127.814L28.6571 127.813L28.7194 128.317L44.4379 145.027M30.518 132.892C31.8086 135.505 33.7923 138.609 36.6215 140.803L36.5916 140.861L36.4507 141.134L36.8379 141.35L36.7208 141.53C36.7208 141.53 36.7208 141.53 36.7208 141.53M30.518 132.892L30.0927 133.163C30.0927 133.163 30.0927 133.163 30.0927 133.163M30.518 132.892L30.0927 133.163M36.7208 141.53L36.8379 141.35L36.8644 141.365L37.2782 141.595L37.3945 141.369C40.4591 143.518 42.8742 144.283 44.5297 144.51C45.2913 144.615 45.8938 144.605 46.3262 144.563C46.3495 144.621 46.3708 144.674 46.3902 144.723L46.4948 144.668L46.5117 145.062C46.5119 145.062 46.5121 145.062 46.5123 145.062M36.7208 141.53C40.0201 143.928 42.6345 144.779 44.4379 145.027M36.7208 141.53C33.6039 139.266 31.458 135.926 30.0927 133.163M46.5123 145.062C46.0358 145.122 45.3388 145.15 44.4379 145.027" fill="#0DE0C0" stroke="white"/>
<path d="M44.2464 129.944L44.2472 129.944C44.3256 129.937 44.3964 129.928 44.4605 129.917L44.9976 129.824L44.8856 129.26C44.8455 129.058 44.7855 128.766 44.7042 128.4M44.2464 129.944L32.9442 110.209C35.3158 110.911 38.2464 112.693 40.5973 116.947C42.1534 119.762 43.2404 122.922 43.9383 125.376C44.2874 126.603 44.5396 127.655 44.7042 128.4M44.2464 129.944C43.8823 129.974 43.3416 129.95 42.6083 129.739C41.1445 129.319 38.9086 128.16 35.7611 125.225C32.7836 122.45 30.9779 118.682 29.9162 115.617L29.9162 115.617C29.3851 114.083 29.0389 112.722 28.8257 111.743L28.8256 111.743C28.7198 111.256 28.6463 110.863 28.5995 110.591M44.2464 129.944L28.5995 110.591M44.7042 128.4C44.7043 128.4 44.7043 128.401 44.7043 128.401L44.2383 128.555L44.7042 128.4C44.7042 128.4 44.7042 128.4 44.7042 128.4ZM28.5995 110.591C28.5938 110.56 28.5886 110.529 28.5839 110.5L28.4956 109.943L29.0213 109.862C29.0407 109.859 29.042 109.859 29.0431 109.859C29.0441 109.859 29.0449 109.859 29.0584 109.857L29.0584 109.857L29.0647 109.856C29.281 109.825 29.5874 109.796 29.9648 109.789L29.9651 109.789C30.7189 109.777 31.7603 109.858 32.9441 110.209L28.5995 110.591Z" fill="#0DE0C0" stroke="white"/>
<path d="M43.3399 111.663L43.308 111.074C43.2975 110.879 43.2801 110.607 43.2525 110.27L43.2525 110.269C43.1932 109.546 43.0864 108.523 42.8957 107.318L42.8957 107.318C42.5145 104.911 41.7976 101.775 40.453 98.8772L40.0224 99.1365L40.453 98.8772C38.5849 94.8509 36.072 92.6182 34.0036 91.3995L43.3399 111.663ZM43.3399 111.663L42.7946 111.66M43.3399 111.663L42.7946 111.66M42.7946 111.66C42.6663 111.659 42.5029 111.654 42.3085 111.637L42.3084 111.637C41.8043 111.594 41.0923 111.48 40.2486 111.193L40.2485 111.193C38.5599 110.62 36.3518 109.36 34.2359 106.625L34.2358 106.625C30.7593 102.129 29.6959 98.0255 29.5065 95.0364L29.5065 95.0362C29.412 93.5422 29.5356 92.3284 29.6838 91.4855L29.6839 91.4852C29.7583 91.0633 29.839 90.7345 29.901 90.5103L29.9012 90.5097C29.9023 90.5056 29.9035 90.5012 29.9048 90.4967C29.9118 90.4713 29.9204 90.4402 29.9292 90.4111L30.0636 89.9632L30.4804 90.0255C30.5025 90.0288 30.5268 90.0329 30.5475 90.0364C30.5534 90.0374 30.5589 90.0384 30.564 90.0392L30.564 90.0392L30.5683 90.0399C30.7639 90.0746 31.0386 90.1357 31.3753 90.2353L31.3754 90.2354M42.7946 111.66L31.3754 90.2354M31.3754 90.2354C32.0487 90.4351 32.9702 90.7905 34.0036 91.3995L31.3754 90.2354Z" fill="#0DE0C0" stroke="white"/>
<path d="M43.9005 95.35L43.901 95.3504C44.0055 95.4514 44.1003 95.5413 44.1846 95.6188L44.9121 96.2876L44.9855 95.2148C44.9978 95.0353 45.0111 94.8164 45.0244 94.5626L45.0244 94.5623C45.0637 93.7976 45.1001 92.7126 45.0869 91.4307C45.0607 88.8683 44.8374 85.5143 44.0468 82.357L43.9005 95.35ZM43.9005 95.35C43.4789 94.9413 42.8881 94.329 42.2098 93.5123L43.9005 95.35ZM40.5299 74.6142L40.5299 74.6142C39.8631 73.5959 39.2221 72.7518 38.7079 72.1405L40.5299 74.6142ZM40.5299 74.6142C41.8625 76.6497 43.3039 79.3875 44.0467 82.3568L40.5299 74.6142ZM38.0398 71.4015L38.0398 71.4015C37.9778 71.3401 37.9232 71.2879 37.8758 71.2442L37.464 70.8652L37.1538 71.3926C37.0555 71.5596 36.9224 71.8059 36.7771 72.1302L38.0398 71.4015ZM38.0398 71.4015L38.0414 71.4032M38.0398 71.4015L38.0414 71.4032M38.0414 71.4032C38.2243 71.5864 38.4508 71.8347 38.7079 72.1405L38.0414 71.4032ZM35.9383 75.0094L35.9383 75.0094C35.5244 77.542 35.6446 81.2777 37.738 86.1501L35.9383 75.0094ZM35.9383 75.0094C36.1453 73.7433 36.4853 72.7807 36.777 72.1303L35.9383 75.0094Z" fill="#0DE0C0" stroke="white"/>
<path d="M48.8834 80.3616L49.0881 79.4213C49.1261 79.2465 49.1701 79.0311 49.2178 78.7787L49.2178 78.7785C49.3555 78.0478 49.5216 77.003 49.6363 75.7434L49.6363 75.7434C49.8652 73.2247 49.8887 69.8437 49.0635 66.3967C48.3806 63.5436 47.2579 60.7912 46.1306 58.6283L46.1304 58.6281C45.5662 57.5469 44.9998 56.6113 44.4854 55.8832L48.8834 80.3616ZM48.8834 80.3616L48.2768 79.7199M48.8834 80.3616L48.2768 79.7199M48.2768 79.7199C47.2354 78.6184 45.0072 75.8986 42.8112 69.8202L42.8112 69.8202C41.1566 65.2398 41.1521 61.4142 41.5663 58.7253L41.5663 58.7252C41.7734 57.3813 42.0846 56.3229 42.3458 55.5978C42.4678 55.2589 42.5787 54.9929 42.663 54.8046L42.9486 54.1664M48.2768 79.7199L42.9486 54.1664M42.9486 54.1664L43.4159 54.6001M42.9486 54.1664L43.4159 54.6001M43.4159 54.6001C43.7247 54.8867 44.0891 55.3221 44.4853 55.8831L43.4159 54.6001ZM48.7491 78.7082C48.8839 77.9927 49.0472 76.9663 49.1599 75.7277L43.2585 69.6017C45.1798 74.9197 47.1171 77.6177 48.2294 78.9005C48.2032 79.0318 48.1789 79.1481 48.157 79.2487L48.6226 79.335L48.9684 78.9501C48.9009 78.8788 48.8275 78.7995 48.7484 78.7115C48.7486 78.7104 48.7489 78.7093 48.7491 78.7082Z" fill="#0DE0C0" stroke="white"/>
<path d="M61.4437 62.0504L61.4437 62.0504L61.5916 62.1448C62.9619 59.7822 63.991 56.6646 64.6286 53.9185C64.9482 52.5433 65.171 51.2559 65.2896 50.1959L61.4437 62.0504ZM61.4437 62.0504L61.5916 62.1449C60.3509 64.2838 57.9762 66.1956 55.942 67.5621C54.9201 68.2486 53.9751 68.8034 53.2851 69.1868L61.4437 62.0504ZM51.8806 69.9335L52.5483 69.5846C52.7365 69.4862 52.9872 69.3524 53.285 69.1869L51.8806 69.9335ZM51.8806 69.9335L51.8869 69.1497M51.8806 69.9335L51.8869 69.1497M51.8869 69.1497C51.9012 67.3662 52.319 62.5438 54.5022 56.6451M51.8869 69.1497L54.6713 56.7081L54.5022 56.6451M65.329 47.6811L64.8931 47.7143C64.8802 47.7153 64.8608 47.7171 64.8474 47.7183C64.8418 47.7188 64.8373 47.7192 64.8346 47.7194L64.8301 47.7198L64.8301 47.7198C64.6201 47.7399 64.3185 47.778 63.9473 47.8512L63.9471 47.8513C63.2044 47.9981 62.1807 48.2862 61.0539 48.852C58.793 49.9872 56.1351 52.2325 54.5022 56.6451M65.329 47.6811L54.9447 56.8101L54.7068 57.2784L54.4522 57.1393L54.6713 56.7081L54.5022 56.6451M65.329 47.6811L65.3703 48.1485M65.329 47.6811L65.3703 48.1485M65.3703 48.1485C65.4131 48.6319 65.3859 49.337 65.2896 50.1958L65.3703 48.1485Z" fill="#0DE0C0" stroke="white"/>
<path d="M48.0689 83.7263L48.7308 83.6906C50.1146 83.6159 53.3726 83.2737 58.219 80.0258C61.3458 77.9305 63.2643 75.2096 64.4005 73.0159C64.9688 71.919 65.3421 70.9525 65.5734 70.2592L48.0689 83.7263ZM48.0689 83.7263L48.2883 83.0325M48.0689 83.7263L48.2883 83.0325M48.2883 83.0325C48.3392 82.8718 48.4055 82.6705 48.4897 82.4345C48.7213 81.7853 49.085 80.8766 49.6147 79.8355L49.6147 79.8354C50.674 77.754 52.4005 75.1351 55.0686 73.0023L55.3344 73.4139L55.0686 73.0023C58.9948 69.8637 62.6212 68.7642 65.3921 68.8935L65.9645 68.9202M48.2883 83.0325L65.9645 68.9202M65.9645 68.9202L65.7968 69.5303M65.9645 68.9202L65.7968 69.5303M65.7968 69.5303C65.7456 69.7165 65.6725 69.9631 65.5735 70.2591L65.7968 69.5303Z" fill="#0DE0C0" stroke="white"/>
<path d="M52.147 87.0664L52.0465 86.9142C49.4683 89.016 47.8421 91.5668 46.8619 93.5867L46.8618 93.5867C46.3719 94.5967 46.0417 95.4764 45.8342 96.1045C45.8341 96.1046 45.8341 96.1048 45.834 96.1049L46.2834 96.2503L52.147 87.0664ZM52.147 87.0664L52.1471 87.0663L52.0465 86.9142M52.147 87.0664L52.0465 86.9142M61.4383 83.7909L60.9438 83.7422C59.6918 83.6188 58.4697 83.6232 57.1096 84.0132L61.4383 83.7909ZM61.4383 83.7909L61.3371 84.3303M61.4383 83.7909L61.3371 84.3303M61.3371 84.3303C61.3051 84.5011 61.258 84.7262 61.1903 84.9964L61.3371 84.3303ZM52.0465 86.9142C54.0229 85.3032 55.6374 84.4351 57.1095 84.0132L52.0465 86.9142ZM61.1902 84.9967C61.0291 85.6409 60.7513 86.5412 60.2842 87.5697L61.1902 84.9967Z" fill="#0DE0C0" stroke="white"/>
<path d="M60.5168 95.8316L59.9636 95.8784C58.6611 95.9887 57.2094 96.1455 55.5827 96.8914L55.5827 96.8914C53.8031 97.7075 51.838 99.2175 49.6282 102.093M60.5168 95.8316L45.4751 110.571C46.1989 108.096 47.4639 104.908 49.6282 102.093M60.5168 95.8316L60.4423 96.4317C60.2998 97.5791 59.9828 99.8065 59.196 102.26C58.4105 104.709 57.1446 107.423 55.0822 109.511M60.5168 95.8316L45.4751 110.571M49.6282 102.093L49.7551 102.205L49.4277 102.568L49.6406 102.794L49.6733 102.829C47.7567 105.463 46.6062 108.386 45.9305 110.697M49.6282 102.093L49.7551 102.205L49.7738 102.184L50.12 101.799L50.3082 101.999C52.343 99.4472 54.1385 98.1044 55.7424 97.3689C57.0983 96.7471 58.3288 96.5531 59.4838 96.4408C59.4871 96.4143 59.4904 96.3883 59.4935 96.3628L59.9679 96.3972L59.9723 96.9161C59.948 96.9181 59.9237 96.9202 59.8994 96.9223C59.5514 99.4569 58.5212 105.031 55.1254 108.766L55.15 108.799L55.3382 109.053L54.9727 109.382L55.0822 109.511M45.9305 110.697C45.5743 111.913 45.3511 112.957 45.2164 113.696C45.2059 113.754 45.1959 113.81 45.1864 113.864C45.1386 113.873 45.0929 113.882 45.0494 113.89L45.0989 114.403L45.5714 114.451C45.578 114.406 45.5853 114.358 45.5934 114.307C47.2988 113.959 50.7624 113.025 54.4027 109.504L54.5765 109.739L54.9573 109.396L54.9727 109.382L55.0822 109.511C55.0822 109.511 55.0822 109.511 55.0822 109.511M45.9305 110.697L45.4751 110.571M45.9305 110.697L45.4751 110.571M55.0822 109.511C50.7995 113.847 46.6708 114.63 45.1483 114.915L44.5261 115.032L44.6263 114.355C44.6548 114.163 44.6947 113.918 44.7469 113.63L44.747 113.629C44.8847 112.874 45.1122 111.81 45.4751 110.571" fill="#0DE0C0" stroke="white"/>
<path d="M45.8966 129.79L46.5016 129.631C47.9762 129.243 51.97 128.182 55.8388 123.491C57.7012 121.233 58.7321 118.391 59.3125 115.852C59.8941 113.307 60.033 111.022 60.0843 109.846L60.1099 109.259L59.5716 109.342C58.3033 109.536 56.8869 109.788 55.3438 110.654L55.3438 110.654C53.6559 111.601 51.8436 113.266 49.8991 116.333L45.8966 129.79ZM45.8966 129.79L45.9425 129.122M45.8966 129.79L45.9425 129.122M45.9425 129.122C45.9559 128.926 45.976 128.676 46.0052 128.378L46.0052 128.378C46.0815 127.602 46.2231 126.505 46.4824 125.223L46.4824 125.223M45.9425 129.122L46.4824 125.223M46.4824 125.223C47.0009 122.66 47.9947 119.336 49.8991 116.333L46.4824 125.223Z" fill="#0DE0C0" stroke="white"/>
<path d="M52.0682 130.098L52.0683 130.098C53.2768 126.654 54.9592 124.776 56.6859 123.633L56.9139 124.073L56.6859 123.633C57.9327 122.808 59.1709 122.381 60.2348 122.015L60.2469 122.011C60.2469 122.011 60.2469 122.011 60.2469 122.011C60.247 122.011 60.247 122.011 60.247 122.011C60.5149 121.919 60.7692 121.831 61.0139 121.741L61.6383 121.51L61.6181 122.213C61.5208 125.6 61.3595 130.688 59.016 135.771C56.416 141.41 51.9753 143.69 50.3324 144.514L49.538 144.912L49.6856 143.989C49.9028 142.631 50.0366 141.286 50.1728 139.915L50.1729 139.915L50.1755 139.889C50.2469 139.172 50.3191 138.449 50.4038 137.72L50.4039 137.72C50.6787 135.36 51.0928 132.879 52.0682 130.098Z" fill="#0DE0C0" stroke="white"/>
<path d="M63.9088 134.758L64.5307 134.43L64.5708 135.157C64.7615 138.612 64.7944 143.68 62.8828 149.163L62.8828 149.163C60.8234 155.07 56.7601 157.391 55.0468 158.37L55.044 158.372L55.0418 158.373C55.0074 158.392 54.9793 158.409 54.9506 158.425C54.9269 158.439 54.9028 158.452 54.8744 158.469L54.1309 158.891L54.1993 158.003C54.2849 156.891 54.3387 155.853 54.3915 154.828C54.3915 154.828 54.3915 154.828 54.3915 154.828L54.3919 154.819C54.5529 151.687 54.7056 148.717 55.7649 144.453C56.6745 140.791 58.164 138.662 59.7671 137.271C60.9371 136.255 62.1378 135.652 63.1812 135.128L63.1969 135.12C63.197 135.12 63.1971 135.12 63.1971 135.12C63.2284 135.105 63.2596 135.089 63.2905 135.073C63.5046 134.966 63.7097 134.863 63.9088 134.758Z" fill="#0DE0C0" stroke="white"/>
<path d="M70.4767 143.388L69.8691 143.788C69.8227 143.819 69.7755 143.85 69.7277 143.881C69.6533 143.93 69.5777 143.98 69.5018 144.03L69.4844 144.042C68.3378 144.794 66.9396 145.712 65.714 147.145C64.4715 148.599 63.4219 150.562 62.9306 153.387C62.4258 156.288 62.3821 157.987 62.3767 159.795C62.3763 159.9 62.3761 160.005 62.376 160.111C62.3759 160.169 62.3758 160.227 62.3757 160.285L62.3757 160.285L62.3756 160.291C62.3737 161.797 62.3715 163.457 62.1351 166.004L62.0202 167.241L62.9101 166.404C63.295 166.042 63.718 165.694 64.1686 165.327L70.4767 143.388ZM70.4767 143.388L70.5705 144.122M70.4767 143.388L70.5705 144.122M70.5705 144.122C70.9865 147.379 71.3604 151.76 69.8809 157.174L69.8809 157.174C69.0462 160.227 67.6814 162.107 66.2586 163.511L66.2584 163.511C65.5929 164.167 64.9164 164.718 64.2873 165.23L64.2792 165.237L64.2783 165.237M70.5705 144.122L64.2783 165.237M64.2783 165.237C64.2562 165.255 64.2403 165.268 64.2233 165.282M64.2783 165.237L64.2233 165.282M64.2233 165.282C64.2079 165.295 64.1915 165.309 64.1687 165.327L64.2233 165.282Z" fill="#0DE0C0" stroke="white"/>
<path d="M75.6586 157.292C75.7522 158.12 75.8289 158.798 75.8799 159.428L75.6735 164.946C75.211 168.962 73.4479 171.158 71.8265 173.178L71.8155 173.191L71.8154 173.191L71.7993 173.211C71.4928 173.593 71.1949 173.964 70.9083 174.344L70.1054 175.407L70.0682 174.082C70.0046 171.813 69.701 170.035 69.4194 168.39L69.419 168.387C69.4148 168.362 69.4097 168.332 69.4044 168.301C69.3975 168.261 69.3902 168.218 69.3842 168.181C69.0588 166.276 68.7784 164.528 68.9774 162.4C69.3003 158.94 70.137 156.749 71.2242 155.207C72.1973 153.826 73.3554 152.989 74.4686 152.233L75.1092 151.798L75.1783 152.585C75.3265 154.273 75.4647 155.563 75.5825 156.614L75.5826 156.615C75.598 156.753 75.613 156.887 75.6276 157.017C75.637 157.1 75.6462 157.182 75.6552 157.263L75.6586 157.292ZM69.8747 168.169C69.8799 168.199 69.8851 168.23 69.8903 168.261L69.4537 162.417C69.2622 164.464 69.5298 166.148 69.8554 168.054C69.8616 168.092 69.8681 168.13 69.8747 168.169Z" fill="#0DE0C0" stroke="white"/>
<path d="M80.4545 158.587L80.9854 158.051L81.2186 158.75C81.4687 159.5 81.7196 160.188 81.9622 160.854L81.9797 160.902L81.9798 160.902L81.9808 160.905C83.0024 163.701 83.8601 166.049 83.6852 170.31L83.6852 170.31C83.6049 172.264 83.0277 174.146 82.2981 175.923C81.8414 177.035 81.3303 178.094 80.8423 179.106L80.8297 179.132L80.8295 179.132L80.8242 179.143C80.668 179.466 80.5143 179.784 80.3644 180.1L79.7488 181.397L79.474 180.032C79.0256 177.803 78.4521 176.38 77.9303 175.085L77.9302 175.085L77.9302 175.085L77.9301 175.085L77.93 175.085L77.93 175.085L77.9299 175.084L77.9298 175.084L77.9298 175.084L77.9297 175.084L77.9296 175.084L77.9296 175.084L77.9295 175.083L77.9295 175.083L77.9294 175.083L77.9293 175.083L77.9293 175.083L77.9292 175.083L77.9291 175.082L77.9291 175.082L77.929 175.082L77.9289 175.082L77.9289 175.082L77.9288 175.082L77.9288 175.082L77.9287 175.081L77.9286 175.081L77.9286 175.081L77.9285 175.081L77.9284 175.081L77.9284 175.081L77.9283 175.08L77.9282 175.08L77.9282 175.08L77.9281 175.08L77.9281 175.08L77.928 175.08L77.9279 175.079L77.9279 175.079L77.9278 175.079L77.9277 175.079L77.9277 175.079L77.9276 175.079L77.9275 175.079L77.9275 175.078L77.9274 175.078L77.9273 175.078L77.9273 175.078L77.9272 175.078L77.9272 175.078L77.9271 175.077L77.927 175.077L77.927 175.077L77.9269 175.077L77.9268 175.077L77.9268 175.077L77.9267 175.077L77.9266 175.076L77.9266 175.076L77.9265 175.076L77.9265 175.076L77.9264 175.076L77.9263 175.076L77.9263 175.075L77.9262 175.075L77.9261 175.075L77.9261 175.075L77.926 175.075L77.926 175.075L77.9259 175.074L77.9258 175.074L77.9258 175.074L77.9257 175.074L77.9256 175.074L77.9256 175.074L77.9255 175.074L77.9254 175.073L77.9254 175.073L77.9253 175.073L77.9253 175.073L77.9252 175.073L77.9251 175.073L77.9251 175.072L77.925 175.072L77.9249 175.072L77.9249 175.072L77.9248 175.072L77.9247 175.072L77.9247 175.072L77.9246 175.071L77.9246 175.071L77.9245 175.071L77.9244 175.071L77.9244 175.071L77.9243 175.071L77.9242 175.07L77.9242 175.07L77.9241 175.07L77.924 175.07L77.924 175.07L77.9239 175.07L77.9239 175.07L77.9238 175.069L77.9237 175.069L77.9237 175.069L77.9236 175.069L77.9235 175.069L77.9235 175.069L77.9234 175.068L77.9233 175.068L77.9233 175.068L77.9232 175.068L77.9232 175.068L77.9231 175.068L77.923 175.067L77.923 175.067L77.9229 175.067L77.9228 175.067L77.9228 175.067L77.9227 175.067L77.9227 175.067L77.9226 175.066L77.9225 175.066L77.9225 175.066L77.9224 175.066L77.9223 175.066L77.9223 175.066L77.9222 175.065L77.9221 175.065L77.9221 175.065L77.922 175.065L77.922 175.065L77.9219 175.065L77.9218 175.065L77.9218 175.064L77.9217 175.064L77.9216 175.064L77.9216 175.064L77.9215 175.064L77.9215 175.064L77.9214 175.063L77.9213 175.063L77.9213 175.063L77.9212 175.063L77.9211 175.063L77.9211 175.063L77.921 175.063L77.9209 175.062L77.9209 175.062L77.9208 175.062L77.9208 175.062L77.9207 175.062L77.9206 175.062L77.9206 175.061L77.9205 175.061L77.9204 175.061L77.9204 175.061L77.9203 175.061L77.9203 175.061L77.9202 175.06L77.9201 175.06L77.9201 175.06L77.92 175.06L77.9199 175.06L77.9199 175.06L77.9198 175.06L77.9197 175.059L77.9197 175.059L77.9196 175.059L77.9196 175.059L77.9195 175.059L77.9194 175.059L77.9194 175.058L77.9193 175.058L77.9192 175.058L77.9192 175.058L77.9191 175.058L77.9191 175.058L77.919 175.058L77.9189 175.057L77.9189 175.057L77.9188 175.057L77.9187 175.057L77.9187 175.057L77.9186 175.057L77.9185 175.056L77.9185 175.056L77.9184 175.056L77.9184 175.056L77.9183 175.056L77.9182 175.056L77.9182 175.056L77.9181 175.055L77.918 175.055L77.918 175.055L77.9179 175.055L77.9179 175.055L77.9178 175.055L77.9177 175.054L77.9177 175.054L77.9176 175.054L77.9175 175.054L77.9175 175.054L77.9174 175.054L77.9174 175.054L77.9173 175.053L77.9172 175.053L77.9172 175.053L77.9171 175.053L77.917 175.053L77.917 175.053L77.9169 175.052L77.9168 175.052L77.9168 175.052L77.9167 175.052L77.9167 175.052L77.9166 175.052L77.9165 175.052L77.9165 175.051L77.9164 175.051L77.9163 175.051L77.9163 175.051L77.9162 175.051L77.9162 175.051L77.9161 175.05L77.916 175.05L77.916 175.05L77.9159 175.05L77.9158 175.05L77.9158 175.05L77.9157 175.05L77.9157 175.049L77.9156 175.049L77.9155 175.049L77.9155 175.049L77.9154 175.049L77.9153 175.049L77.9153 175.048L77.9152 175.048L77.9151 175.048L77.9151 175.048L77.915 175.048L77.915 175.048L77.9149 175.048L77.9148 175.047L77.9148 175.047L77.9147 175.047L77.9146 175.047L77.9146 175.047L77.9145 175.047L77.9145 175.046L77.9144 175.046L77.9143 175.046L77.9143 175.046L77.9142 175.046L77.9141 175.046L77.9141 175.045L77.914 175.045L77.914 175.045L77.9139 175.045L77.9138 175.045L77.9138 175.045L77.9137 175.045L77.9136 175.044L77.9136 175.044L77.9135 175.044L77.9135 175.044L77.9134 175.044L77.9133 175.044L77.9133 175.043L77.9132 175.043L77.9131 175.043L77.9131 175.043L77.913 175.043L77.9129 175.043L77.9129 175.043L77.9128 175.042L77.9128 175.042L77.9127 175.042L77.9126 175.042L77.9126 175.042L77.9125 175.042L77.9124 175.041L77.9124 175.041L77.9123 175.041L77.9123 175.041L77.9122 175.041L77.9121 175.041L77.9121 175.041L77.912 175.04L77.9119 175.04L77.9119 175.04L77.9118 175.04L77.9118 175.04L77.9117 175.04L77.9116 175.039L77.9116 175.039L77.9115 175.039L77.9114 175.039L77.9114 175.039L77.9113 175.039L77.9113 175.039L77.9112 175.038L77.9111 175.038L77.9111 175.038L77.911 175.038L77.9109 175.038L77.9109 175.038L77.9108 175.037L77.9108 175.037L77.9107 175.037L77.9106 175.037L77.9106 175.037L77.9105 175.037L77.9104 175.037L77.9104 175.036L77.9103 175.036L77.9103 175.036L77.9102 175.036L77.9101 175.036L77.9101 175.036L77.91 175.035L77.9099 175.035L77.9099 175.035L77.9098 175.035L77.9098 175.035L77.9097 175.035L77.9096 175.035L77.9096 175.034L77.9095 175.034L77.9094 175.034L77.9094 175.034L77.9093 175.034L77.9093 175.034L77.9092 175.033L77.9091 175.033L77.9091 175.033L77.909 175.033L77.9089 175.033L77.9089 175.033L77.9088 175.033L77.9087 175.032L77.9087 175.032L77.9086 175.032L77.9086 175.032L77.9085 175.032L77.9084 175.032L77.9084 175.031L77.9083 175.031L77.9082 175.031L77.9082 175.031L77.9081 175.031L77.9081 175.031L77.908 175.031L77.9079 175.03L77.9079 175.03L77.9078 175.03L77.9077 175.03L77.9077 175.03L77.9076 175.03L77.9076 175.029L77.9075 175.029L77.9074 175.029L77.9074 175.029L77.9073 175.029L77.9072 175.029L77.9072 175.029L77.9071 175.028L77.9071 175.028L77.907 175.028L77.9069 175.028L77.9069 175.028L77.9068 175.028L77.9067 175.027L77.9067 175.027L77.9066 175.027L77.9066 175.027L77.9065 175.027L77.9064 175.027L77.9064 175.027L77.9063 175.026L77.9062 175.026L77.9062 175.026L77.9061 175.026L77.9061 175.026L77.906 175.026L77.9059 175.025L77.9059 175.025L77.9058 175.025L77.9057 175.025L77.9057 175.025L77.9056 175.025L77.9056 175.025L77.9055 175.024L77.9054 175.024L77.9054 175.024L77.9053 175.024L77.9052 175.024L77.9052 175.024L77.9051 175.023L77.9051 175.023L77.905 175.023L77.9049 175.023L77.9049 175.023L77.9048 175.023L77.9047 175.023L77.9047 175.022L77.9046 175.022L77.9046 175.022L77.9045 175.022L77.9044 175.022L77.9044 175.022L77.9043 175.021L77.9042 175.021L77.9042 175.021L77.9041 175.021L77.9041 175.021L77.904 175.021L77.9039 175.021L77.9039 175.02L77.9038 175.02L77.9037 175.02L77.9037 175.02L77.9036 175.02L77.9036 175.02L77.9035 175.019L77.9034 175.019L77.9034 175.019L77.9033 175.019L77.9032 175.019L77.9032 175.019L77.9031 175.019L77.9031 175.018L77.903 175.018L77.9029 175.018L77.9029 175.018L77.9028 175.018L77.9027 175.018L77.9027 175.018L77.9026 175.017L77.9026 175.017L77.9025 175.017L77.9024 175.017L77.9024 175.017L77.9023 175.017L77.9022 175.016L77.9022 175.016L77.9021 175.016L77.9021 175.016L77.902 175.016L77.9019 175.016L77.9019 175.016L77.9018 175.015L77.9017 175.015L77.9017 175.015L77.9016 175.015L77.9016 175.015L77.9015 175.015L77.9014 175.014L77.9014 175.014L77.9013 175.014L77.9012 175.014L77.9012 175.014L77.9011 175.014L77.9011 175.014L77.901 175.013L77.9009 175.013L77.9009 175.013L77.9008 175.013L77.9007 175.013L77.9007 175.013L77.9006 175.012L77.9006 175.012L77.9005 175.012L77.9004 175.012L77.9004 175.012L77.9003 175.012L77.9002 175.012L77.9002 175.011L77.9001 175.011L77.9001 175.011L77.9 175.011L77.8999 175.011L77.8999 175.011L77.8998 175.01L77.8997 175.01L77.8997 175.01L77.8996 175.01L77.8996 175.01L77.8995 175.01L77.8994 175.01L77.8994 175.009L77.8993 175.009L77.8992 175.009L77.8992 175.009L77.8991 175.009L77.8991 175.009L77.899 175.008L77.8989 175.008L77.8989 175.008L77.8988 175.008L77.8987 175.008L77.8987 175.008L77.8986 175.008L77.8986 175.007L77.8985 175.007L77.8984 175.007L77.8984 175.007L77.8977 175.005C77.2999 173.523 76.7758 172.192 76.6147 170.013L76.6146 170.013C76.3537 166.472 76.8273 164.094 77.6605 162.313C78.4135 160.702 79.4495 159.602 80.4545 158.587Z" fill="#0DE0C0" stroke="white"/>
<path d="M87.2994 164.992L87.5081 164.511L87.5084 164.511C87.5083 164.511 87.5081 164.511 87.2994 164.992ZM87.2994 164.992L87.2977 164.993M87.2994 164.992L87.3009 164.991L87.7377 164.755C87.7085 164.684 87.6684 164.633 87.6358 164.6C87.6135 164.578 87.5946 164.563 87.585 164.556C87.5673 164.543 87.5514 164.534 87.5396 164.527C87.5334 164.524 87.5277 164.521 87.5225 164.518L87.515 164.514L87.5115 164.513L87.5098 164.512L87.509 164.512L87.5795 164.544L87.6358 164.6C87.7444 164.709 87.902 164.87 88.0956 165.082L87.2977 164.993M87.2977 164.993L87.2972 164.993M87.2977 164.993L85.7819 175.418C84.3614 171.618 84.6821 168.89 85.3877 167.09C85.7398 166.192 86.1842 165.535 86.5445 165.099L86.5451 165.098C86.7244 164.882 86.8825 164.72 86.9985 164.611L87.047 164.565L87.1029 164.534L87.1019 164.534L87.0999 164.536L87.0958 164.538L87.0873 164.543C87.0814 164.547 87.0752 164.55 87.0687 164.555C87.0559 164.563 87.0411 164.574 87.0252 164.587C87.0171 164.594 87.0081 164.602 86.9985 164.611C86.9722 164.635 86.9414 164.669 86.9125 164.714C86.8711 164.778 86.8336 164.864 86.8223 164.968C86.8111 165.071 86.8296 165.161 86.8576 165.23L87.2971 164.993L87.2972 164.993M91.1987 184.454C91.1987 184.454 91.1988 184.454 91.1988 184.454L91.5199 184.065L91.1987 184.454ZM91.1987 184.454C90.8432 184.113 90.344 183.587 89.7624 182.839C88.5987 181.344 87.1069 178.964 85.782 175.418L91.1987 184.454ZM87.2972 164.993C87.1039 164.533 87.1036 164.534 87.1034 164.534L87.1039 164.533L87.2972 164.993ZM89.5927 166.931C90.7491 168.533 92.0973 170.851 92.8601 173.713L88.0957 165.082C88.4831 165.506 89.0137 166.129 89.5926 166.93L89.5927 166.931ZM93.2972 182.317C93.066 183.209 92.7638 183.849 92.5155 184.27L93.2972 182.317ZM92.8601 173.713C93.9386 177.757 93.7597 180.534 93.2972 182.317L92.8601 173.713Z" fill="#0DE0C0" stroke="white"/>
<path d="M97.7053 168.382L98.0145 168.123L98.299 168.392L98.2999 168.393C98.3047 168.397 98.3123 168.404 98.3209 168.413C98.4364 168.521 98.601 168.68 98.8026 168.887L97.7053 168.382ZM97.7053 168.382C97.7046 168.383 97.7038 168.383 97.703 168.384C97.5759 168.48 97.4042 168.625 97.2121 168.823L97.2118 168.824C96.8187 169.23 96.3407 169.864 95.9858 170.777L95.9858 170.777C95.2748 172.606 95.0722 175.519 96.9537 179.931L96.9537 179.931C98.1867 182.822 99.7321 184.945 100.971 186.345C101.59 187.046 102.132 187.566 102.521 187.912L102.521 187.912C102.675 188.049 102.805 188.159 102.908 188.243L103.318 188.577L103.611 188.074C103.673 187.968 103.747 187.832 103.827 187.668L103.827 187.667C104.051 187.207 104.324 186.522 104.525 185.611L104.06 185.523L104.525 185.611C104.928 183.787 105.046 181.067 103.937 177.44L97.7053 168.382ZM100.39 170.719L100.39 170.719C99.7738 169.925 99.2118 169.307 98.8028 168.887L100.39 170.719ZM100.39 170.719C101.621 172.307 103.071 174.605 103.937 177.44L100.39 170.719Z" fill="#0DE0C0" stroke="white"/>
<g clip-path="url(#clip0)">
<path d="M175.197 229.428H152.287C151.087 229.428 150.109 230.221 150.109 231.196V232.799H177.375V231.196C177.375 230.221 176.397 229.428 175.197 229.428Z" fill="#0FB59C"/>
<path d="M175.196 221.066H152.287V228.422H175.196V221.066Z" fill="#0DE0C0"/>
<path d="M187.406 180.737H181.461C181.48 180.045 181.51 179.338 181.51 178.631H145.974C145.974 179.338 145.993 180.045 146.022 180.737H140.077V181.625C140.077 192.367 145.519 200.784 152.461 200.807C153.652 202.395 154.979 203.707 156.402 204.752L156.431 205.255C156.509 206.599 157.68 207.746 159.288 208.037H159.423V213.876L159.288 213.892C157.68 214.19 156.499 215.33 156.431 216.674L156.412 216.988C155.105 217.601 154.214 218.725 154.214 220.037H173.25C173.25 218.725 172.359 217.593 171.052 216.988L171.033 216.674C170.955 215.33 169.784 214.182 168.176 213.892H168.041V208.053H168.109L168.176 208.037C169.784 207.739 170.955 206.599 171.033 205.255L171.062 204.76C172.485 203.715 173.812 202.403 175.012 200.815C181.955 200.792 187.397 192.375 187.397 181.633V180.737H187.406ZM142.275 182.513H146.139C146.671 188.855 148.482 194.544 151.145 198.866C146.371 197.743 142.527 190.788 142.275 182.513ZM169.677 216.186H157.806C158.058 215.558 158.697 215.063 159.51 214.89H167.973C168.786 215.055 169.416 215.558 169.677 216.186ZM167.973 207.031H159.51C158.697 206.866 158.068 206.363 157.806 205.735H169.677C169.416 206.371 168.786 206.866 167.973 207.031ZM176.339 198.866C179.002 194.544 180.812 188.855 181.335 182.513H185.208C184.947 190.788 181.103 197.743 176.339 198.866Z" fill="#0DE0C0"/>
<g clip-path="url(#clip1)">
<path d="M163.755 184.656L165.713 188.632L170.103 189.272L166.925 192.367L167.678 196.743L163.755 194.679L159.823 196.743L160.577 192.367L157.398 189.272L161.789 188.632L163.755 184.656Z" fill="#0FB59C"/>
</g>
</g>
<defs>
<clipPath id="clip0">
<rect width="47.4454" height="54.2233" fill="white" transform="translate(140.077 178.631)"/>
</clipPath>
<clipPath id="clip1">
<rect width="12.7048" height="12.0873" fill="white" transform="translate(157.398 184.656)"/>
</clipPath>
</defs>
</svg>
