<svg width="371" height="270" viewBox="0 0 371 270" fill="none" xmlns="http://www.w3.org/2000/svg">
<rect width="371" height="265" rx="8" fill="#FFE2E1"/>
<mask id="mask0" mask-type="alpha" maskUnits="userSpaceOnUse" x="0" y="0" width="371" height="265">
<rect width="371" height="265" fill="#FFF2E6"/>
</mask>
<g mask="url(#mask0)">
<circle opacity="0.7" cx="27" cy="39" r="66.5" stroke="#FACFD9" stroke-width="19"/>
<circle opacity="0.7" cx="357" cy="143" r="66.5" stroke="#FACFD9" stroke-width="19"/>
<path d="M31 53C31 45.8203 36.8203 40 44 40H337C344.18 40 350 45.8203 350 53V265H31V53Z" fill="white"/>
</g>
<path d="M70.8 166.5C70.3467 167.06 69.7933 167.487 69.14 167.78C68.5 168.073 67.7933 168.22 67.02 168.22C65.98 168.22 65.04 167.993 64.2 167.54C63.36 167.1 62.4 166.313 61.32 165.18C60.0533 165.02 58.92 164.613 57.92 163.96C56.9333 163.307 56.16 162.467 55.6 161.44C55.0533 160.4 54.78 159.253 54.78 158C54.78 156.627 55.1067 155.393 55.76 154.3C56.4267 153.193 57.34 152.327 58.5 151.7C59.6733 151.073 60.9867 150.76 62.44 150.76C63.8933 150.76 65.2 151.073 66.36 151.7C67.52 152.327 68.4333 153.193 69.1 154.3C69.7667 155.393 70.1 156.627 70.1 158C70.1 159.627 69.64 161.053 68.72 162.28C67.8133 163.507 66.6067 164.36 65.1 164.84C65.4333 165.187 65.7533 165.433 66.06 165.58C66.38 165.74 66.72 165.82 67.08 165.82C67.9467 165.82 68.7067 165.473 69.36 164.78L70.8 166.5ZM58.06 158C58.06 158.867 58.2467 159.64 58.62 160.32C59.0067 161 59.5333 161.533 60.2 161.92C60.8667 162.293 61.6133 162.48 62.44 162.48C63.2667 162.48 64.0133 162.293 64.68 161.92C65.3467 161.533 65.8667 161 66.24 160.32C66.6267 159.64 66.82 158.867 66.82 158C66.82 157.133 66.6267 156.36 66.24 155.68C65.8667 155 65.3467 154.473 64.68 154.1C64.0133 153.713 63.2667 153.52 62.44 153.52C61.6133 153.52 60.8667 153.713 60.2 154.1C59.5333 154.473 59.0067 155 58.62 155.68C58.2467 156.36 58.06 157.133 58.06 158Z" fill="#8391A0"/>
<line x1="88" y1="154" x2="314" y2="154" stroke="#D3D6DA" stroke-width="4" stroke-linecap="round"/>
<line x1="88" y1="168" x2="175" y2="168" stroke="#D3D6DA" stroke-width="4" stroke-linecap="round"/>
<path d="M203.857 79.8572H166.143C163.303 79.8572 161 82.1597 161 85V109C161 111.84 163.303 114.143 166.143 114.143H203.857C206.697 114.143 209 111.84 209 109V85C209 82.1597 206.697 79.8572 203.857 79.8572ZM205.571 99.7188L194.783 88.9309C194.114 88.2616 193.029 88.2616 192.359 88.9309L178.143 103.147L172.498 97.5022C171.828 96.8329 170.743 96.8329 170.074 97.5022L164.429 103.147V85C164.429 84.0532 165.196 83.2857 166.143 83.2857H203.857C204.804 83.2857 205.571 84.0532 205.571 85V99.7188H205.571Z" fill="#8391A0"/>
<path d="M176.428 96.9999C179.269 96.9999 181.571 94.6974 181.571 91.8571C181.571 89.0168 179.269 86.7142 176.428 86.7142C173.588 86.7142 171.286 89.0168 171.286 91.8571C171.286 94.6974 173.588 96.9999 176.428 96.9999Z" fill="#8391A0"/>
<rect x="50" y="185" width="125" height="32" rx="6" fill="#EFF0F1"/>
<line x1="79" y1="197" x2="170" y2="197" stroke="#D3D6DA" stroke-width="2" stroke-linecap="round"/>
<line x1="79" y1="204" x2="130" y2="204" stroke="#D3D6DA" stroke-width="2" stroke-linecap="round"/>
<circle cx="64" cy="200" r="4.5" fill="white" stroke="#8391A0" stroke-width="3"/>
<rect x="50" y="223" width="125" height="32" rx="6" fill="#EFF0F1"/>
<line x1="79" y1="235" x2="170" y2="235" stroke="#D3D6DA" stroke-width="2" stroke-linecap="round"/>
<line x1="79" y1="242" x2="130" y2="242" stroke="#D3D6DA" stroke-width="2" stroke-linecap="round"/>
<circle cx="64" cy="238" r="4.5" fill="white" stroke="#8391A0" stroke-width="3"/>
<rect x="191" y="185" width="125" height="32" rx="6" fill="#EFF0F1"/>
<line x1="220" y1="197" x2="311" y2="197" stroke="#1C1C50" stroke-width="2" stroke-linecap="round"/>
<line x1="220" y1="204" x2="271" y2="204" stroke="#1C1C50" stroke-width="2" stroke-linecap="round"/>
<circle cx="205" cy="200" r="4.5" fill="white" stroke="#0DE0C0" stroke-width="3"/>
<rect x="191" y="223" width="125" height="32" rx="6" fill="#EFF0F1"/>
<line x1="220" y1="235" x2="311" y2="235" stroke="#D3D6DA" stroke-width="2" stroke-linecap="round"/>
<line x1="220" y1="242" x2="271" y2="242" stroke="#D3D6DA" stroke-width="2" stroke-linecap="round"/>
<circle cx="205" cy="238" r="4.5" fill="white" stroke="#8391A0" stroke-width="3"/>
<mask id="mask1" mask-type="alpha" maskUnits="userSpaceOnUse" x="30" y="39" width="319" height="225">
<path d="M30 52C30 44.8203 35.8203 39 43 39H336C343.18 39 349 44.8203 349 52V264H30V52Z" fill="#DE7878"/>
</mask>
<g mask="url(#mask1)">
<g opacity="0.3">
<path d="M302.643 209.681C297.008 211.061 291.397 207.535 290.053 202.045C288.673 196.41 292.199 190.799 297.689 189.454C303.179 188.11 308.935 191.601 310.28 197.091C311.659 202.726 308.278 208.301 302.643 209.681ZM298.22 191.622C293.741 192.718 291.014 197.215 292.111 201.694C293.207 206.173 297.704 208.9 302.183 207.803C306.662 206.706 309.389 202.21 308.292 197.731C307.051 193.287 302.699 190.525 298.22 191.622Z" fill="#12E1FF"/>
<path d="M303.74 214.16C295.649 216.142 287.555 211.232 285.574 203.142C283.592 195.051 288.502 186.957 296.592 184.976C304.683 182.994 312.777 187.903 314.758 195.994C316.74 204.085 311.831 212.179 303.74 214.16ZM297.3 187.865C290.798 189.457 286.762 196.112 288.354 202.614C289.946 209.115 296.601 213.152 303.103 211.56C309.604 209.967 313.641 203.313 312.049 196.811C310.277 190.2 303.802 186.273 297.3 187.865Z" fill="#12E1FF"/>
</g>
<path d="M328.327 269.803C328.327 269.803 322.624 261.572 320.724 260.09C318.825 258.609 315.893 256.255 314.619 255.235C312.84 253.827 306.337 246.098 305.955 245.372C303.276 240.292 299.032 234.673 297.975 233.703C296.125 232.005 292.702 231.409 292.877 230.035C293.053 228.66 297.263 226.195 300.896 228.48C304.625 230.742 309.396 237.257 309.396 237.257C309.396 237.257 308.643 233.344 307.834 230.879C307.026 228.413 302.88 217.342 301.998 214.997C301.213 212.628 298.001 203.274 297.742 201.801C297.484 200.328 296.604 197.572 299.046 196.667C301.294 195.809 302.562 198.059 303.564 200.477C304.566 202.895 307.089 210.267 308.329 213.241C309.546 216.119 311.666 221.848 312.626 222.842C313.587 223.836 315.155 223.964 315.155 223.964C315.155 223.964 314.954 220.633 314.889 219.112C314.82 218.412 314.616 215.492 317.443 214.902C320.075 214.359 321.46 217.503 321.46 217.503C321.46 217.503 322.164 216.614 323.371 216.523C324.675 216.409 325.54 217.016 326.306 218.468C326.544 219.024 327.092 220.426 327.092 220.426C327.092 220.426 327.82 219.633 328.954 219.663C330.208 219.765 330.997 221.313 331.5 222.112C331.907 222.934 335.086 229.224 335.75 231.519C336.415 233.815 337.683 246.104 338.326 247.892C338.969 249.681 350.433 264.287 350.433 264.287L328.304 269.707L328.327 269.803Z" fill="#FFBD95"/>
<path d="M299.143 196.643C300.255 196.166 301.073 196.58 301.626 197.162C302.154 197.647 303.079 201.006 302.908 201.56C302.736 202.114 300.148 203.26 299.571 202.992C298.776 202.674 297.849 199.726 297.756 198.929C297.543 198.059 297.837 197.168 299.143 196.643Z" fill="#FFC8A7"/>
<path d="M302.531 229.719C302.531 229.719 305.534 232.364 308.341 235.876C308.773 236.385 309.396 237.257 309.396 237.257C309.396 237.257 309.14 240.392 309.374 241.769C309.512 243.169 310.779 245.83 310.779 245.83C310.779 245.83 308.591 244.009 308.124 240.846C307.749 238.479 307.635 237.176 307.325 236.33C306.637 233.937 302.531 229.719 302.531 229.719Z" fill="#F9A983"/>
<path d="M321.677 217.552C321.677 217.552 322.663 223.252 323.237 224.341C323.834 225.526 324.531 226.277 325.014 226.159C325.69 225.993 325.43 224.93 324.785 223.552C324.044 222.197 321.677 217.552 321.677 217.552Z" fill="#F9A983"/>
<path d="M327.309 220.475C327.309 220.475 328.232 224.244 328.806 225.333C329.38 226.421 329.835 227.027 330.342 227.005C330.849 226.983 330.9 226.356 330.494 225.534C329.802 223.962 327.309 220.475 327.309 220.475Z" fill="#F9A983"/>
<path d="M312.435 222.479C312.435 222.479 312.96 223.785 313.946 224.465C314.932 225.145 315.415 225.027 315.415 225.027L315.252 223.94C315.252 223.94 314.504 223.816 313.83 223.572C312.938 223.278 312.435 222.479 312.435 222.479Z" fill="#F9A983"/>
<path d="M299.45 202.919C300.028 203.187 302.542 202.162 302.811 201.584C302.473 201.461 301.653 201.458 300.807 201.767C299.888 202.197 299.596 202.678 299.45 202.919Z" fill="#FFD3B9"/>
<path d="M326.081 260.213C323.292 258.027 319.462 256.609 315.926 254.3C312.486 251.967 307.735 246.37 306.97 244.918C304.363 240.128 300.572 235.525 299.395 234.482C296.944 232.419 299.314 231.224 296.531 232.827C297.013 233.119 297.517 233.507 297.999 233.799C299.056 234.77 303.3 240.388 305.978 245.469C306.361 246.194 312.863 253.923 314.642 255.332C315.916 256.351 318.849 258.706 320.748 260.187C322.647 261.668 328.351 269.9 328.351 269.9L332.603 268.859C330.976 265.979 328.004 261.79 326.081 260.213Z" fill="#F9A983"/>
<path d="M297.47 233.314C297.664 233.267 298.2 232.111 298.056 231.942C298.009 231.748 295.194 229.877 294.181 229.92C293.167 229.963 292.441 230.346 292.512 230.636C292.583 230.926 297.18 233.385 297.47 233.314Z" fill="#FFC8A7"/>
<path d="M335.967 231.569C335.279 229.176 332.22 222.96 331.717 222.161C331.311 221.339 330.425 219.814 329.171 219.712C327.916 219.609 327.309 220.475 327.309 220.475C327.309 220.475 326.761 219.073 326.522 218.517C325.781 217.162 324.891 216.458 323.588 216.572C322.381 216.663 321.676 217.552 321.676 217.552C321.676 217.552 321.461 217.093 321.006 216.487C318.462 223.666 317.868 231.699 319.833 239.72C322.838 251.993 331.118 261.54 341.566 266.561L350.553 264.36C350.553 264.36 339.186 249.73 338.446 247.965C337.803 246.177 336.655 233.961 335.967 231.569Z" fill="#FFC6A3"/>
</g>
<rect x="54.75" y="60.75" width="260.5" height="71.5" rx="4.25" stroke="#D3D6DA" stroke-width="1.5"/>
</svg>
