<svg width="371" height="265" viewBox="0 0 371 265" fill="none" xmlns="http://www.w3.org/2000/svg">
<rect width="371" height="265" rx="8" fill="#FFF2E6"/>
<mask id="mask0" mask-type="alpha" maskUnits="userSpaceOnUse" x="0" y="0" width="371" height="265">
<rect width="371" height="265" fill="#FFF2E6"/>
</mask>
<g mask="url(#mask0)">
<circle opacity="0.5" cx="27" cy="39" r="66.5" stroke="#F8DEBA" stroke-width="19"/>
<circle opacity="0.5" cx="357" cy="143" r="66.5" stroke="#F8DEBA" stroke-width="19"/>
<g filter="url(#filter0_d)">
<path d="M26 53C26 45.8203 31.8203 40 39 40H332C339.18 40 345 45.8203 345 53V265H26V53Z" fill="white"/>
</g>
<rect x="53.5" y="84.5" width="265" height="54" rx="13.5" fill="white"/>
<path d="M76.282 113.852H72.848V117.286H71.352V113.852H67.918V112.339H71.352V108.905H72.848V112.339H76.282V113.852ZM84.3334 111.778C85.1154 111.971 85.7274 112.328 86.1694 112.849C86.6114 113.37 86.8324 113.999 86.8324 114.736C86.8324 115.427 86.6397 116.034 86.2544 116.555C85.8804 117.065 85.3477 117.456 84.6564 117.728C83.9764 118 83.1887 118.136 82.2934 118.136C81.398 118.136 80.6047 118 79.9134 117.728C79.2334 117.456 78.7007 117.065 78.3154 116.555C77.9414 116.034 77.7544 115.427 77.7544 114.736C77.7544 113.999 77.9754 113.37 78.4174 112.849C78.8594 112.328 79.4714 111.971 80.2534 111.778C79.5734 111.551 79.035 111.194 78.6384 110.707C78.253 110.22 78.0604 109.653 78.0604 109.007C78.0604 108.35 78.2417 107.777 78.6044 107.29C78.967 106.791 79.4657 106.412 80.1004 106.151C80.7464 105.879 81.4774 105.743 82.2934 105.743C83.1094 105.743 83.8347 105.879 84.4694 106.151C85.1154 106.412 85.6197 106.791 85.9824 107.29C86.345 107.777 86.5264 108.35 86.5264 109.007C86.5264 109.664 86.328 110.242 85.9314 110.741C85.546 111.228 85.0134 111.574 84.3334 111.778ZM82.2934 107.46C81.6247 107.46 81.0977 107.613 80.7124 107.919C80.327 108.225 80.1344 108.661 80.1344 109.228C80.1344 109.761 80.327 110.197 80.7124 110.537C81.109 110.866 81.636 111.081 82.2934 111.183C82.9507 111.081 83.472 110.866 83.8574 110.537C84.254 110.197 84.4524 109.761 84.4524 109.228C84.4524 108.661 84.2597 108.225 83.8744 107.919C83.489 107.613 82.962 107.46 82.2934 107.46ZM82.2934 116.419C83.064 116.419 83.6647 116.26 84.0954 115.943C84.5374 115.626 84.7584 115.172 84.7584 114.583C84.7584 114.028 84.5317 113.58 84.0784 113.24C83.6364 112.9 83.0414 112.679 82.2934 112.577C81.5454 112.679 80.9447 112.9 80.4914 113.24C80.0494 113.58 79.8284 114.028 79.8284 114.583C79.8284 115.172 80.0437 115.626 80.4744 115.943C80.9164 116.26 81.5227 116.419 82.2934 116.419ZM94.5267 111.778C95.3087 111.971 95.9207 112.328 96.3627 112.849C96.8047 113.37 97.0257 113.999 97.0257 114.736C97.0257 115.427 96.8331 116.034 96.4477 116.555C96.0737 117.065 95.5411 117.456 94.8497 117.728C94.1697 118 93.3821 118.136 92.4867 118.136C91.5914 118.136 90.7981 118 90.1067 117.728C89.4267 117.456 88.8941 117.065 88.5087 116.555C88.1347 116.034 87.9477 115.427 87.9477 114.736C87.9477 113.999 88.1687 113.37 88.6107 112.849C89.0527 112.328 89.6647 111.971 90.4467 111.778C89.7667 111.551 89.2284 111.194 88.8317 110.707C88.4464 110.22 88.2537 109.653 88.2537 109.007C88.2537 108.35 88.4351 107.777 88.7977 107.29C89.1604 106.791 89.6591 106.412 90.2937 106.151C90.9397 105.879 91.6707 105.743 92.4867 105.743C93.3027 105.743 94.0281 105.879 94.6627 106.151C95.3087 106.412 95.8131 106.791 96.1757 107.29C96.5384 107.777 96.7197 108.35 96.7197 109.007C96.7197 109.664 96.5214 110.242 96.1247 110.741C95.7394 111.228 95.2067 111.574 94.5267 111.778ZM92.4867 107.46C91.8181 107.46 91.2911 107.613 90.9057 107.919C90.5204 108.225 90.3277 108.661 90.3277 109.228C90.3277 109.761 90.5204 110.197 90.9057 110.537C91.3024 110.866 91.8294 111.081 92.4867 111.183C93.1441 111.081 93.6654 110.866 94.0507 110.537C94.4474 110.197 94.6457 109.761 94.6457 109.228C94.6457 108.661 94.4531 108.225 94.0677 107.919C93.6824 107.613 93.1554 107.46 92.4867 107.46ZM92.4867 116.419C93.2574 116.419 93.8581 116.26 94.2887 115.943C94.7307 115.626 94.9517 115.172 94.9517 114.583C94.9517 114.028 94.7251 113.58 94.2717 113.24C93.8297 112.9 93.2347 112.679 92.4867 112.577C91.7387 112.679 91.1381 112.9 90.6847 113.24C90.2427 113.58 90.0217 114.028 90.0217 114.583C90.0217 115.172 90.2371 115.626 90.6677 115.943C91.1097 116.26 91.7161 116.419 92.4867 116.419ZM102.68 118.153C101.241 118.153 100.141 117.626 99.3821 116.572C98.6341 115.507 98.2601 113.96 98.2601 111.931C98.2601 109.936 98.6341 108.412 99.3821 107.358C100.141 106.304 101.241 105.777 102.68 105.777C104.119 105.777 105.213 106.304 105.961 107.358C106.72 108.401 107.1 109.925 107.1 111.931C107.1 113.948 106.72 115.49 105.961 116.555C105.213 117.62 104.119 118.153 102.68 118.153ZM102.68 116.436C103.462 116.436 104.029 116.079 104.38 115.365C104.743 114.64 104.924 113.495 104.924 111.931C104.924 110.39 104.743 109.268 104.38 108.565C104.029 107.851 103.462 107.494 102.68 107.494C101.898 107.494 101.326 107.851 100.963 108.565C100.612 109.268 100.436 110.39 100.436 111.931C100.436 113.495 100.612 114.64 100.963 115.365C101.326 116.079 101.898 116.436 102.68 116.436Z" fill="#1C1C50"/>
<path d="M140.411 105.896H148.265V107.324H142.145V111.132H147.925V112.56H142.145V116.572H148.265V118H140.411V105.896ZM154.858 109.228C156.909 109.228 157.935 110.373 157.935 112.662V118H156.218V112.764C156.218 112.016 156.071 111.472 155.776 111.132C155.493 110.792 155.034 110.622 154.399 110.622C153.674 110.622 153.09 110.849 152.648 111.302C152.217 111.755 152.002 112.362 152.002 113.121V118H150.302V111.846C150.302 110.951 150.257 110.146 150.166 109.432H151.764L151.917 110.911C152.189 110.367 152.58 109.953 153.09 109.67C153.611 109.375 154.201 109.228 154.858 109.228ZM162.606 110.758V115.059C162.606 115.648 162.731 116.068 162.98 116.317C163.241 116.555 163.598 116.674 164.051 116.674C164.346 116.674 164.646 116.629 164.952 116.538V117.932C164.578 118.057 164.153 118.119 163.677 118.119C162.793 118.119 162.107 117.87 161.62 117.371C161.133 116.872 160.889 116.147 160.889 115.195V110.758H159.223V109.432H160.889V107.29L162.606 106.695V109.432H164.969V110.758H162.606ZM173.865 113.75H167.745C167.802 115.756 168.714 116.759 170.482 116.759C171.468 116.759 172.369 116.436 173.185 115.79L173.712 117.014C173.327 117.354 172.834 117.626 172.233 117.83C171.644 118.023 171.049 118.119 170.448 118.119C169.077 118.119 168 117.728 167.218 116.946C166.436 116.153 166.045 115.07 166.045 113.699C166.045 112.826 166.215 112.05 166.555 111.37C166.906 110.69 167.394 110.163 168.017 109.789C168.64 109.415 169.349 109.228 170.142 109.228C171.298 109.228 172.205 109.602 172.862 110.35C173.531 111.098 173.865 112.135 173.865 113.461V113.75ZM170.176 110.503C169.53 110.503 169.003 110.696 168.595 111.081C168.187 111.466 167.926 112.016 167.813 112.73H172.352C172.284 112.005 172.063 111.455 171.689 111.081C171.315 110.696 170.811 110.503 170.176 110.503ZM180.102 109.228C180.363 109.228 180.635 109.268 180.918 109.347L180.884 110.911C180.578 110.798 180.244 110.741 179.881 110.741C179.099 110.741 178.51 110.979 178.113 111.455C177.728 111.92 177.535 112.509 177.535 113.223V118H175.835V111.846C175.835 110.951 175.79 110.146 175.699 109.432H177.297L177.45 110.979C177.677 110.412 178.028 109.982 178.504 109.687C178.98 109.381 179.513 109.228 180.102 109.228ZM198.506 105.896V118H196.925V109.687L193.338 118H192.131L188.493 109.738L188.51 118H186.929V105.896H188.34L192.743 115.892L197.095 105.896H198.506ZM204.875 118.119C204.036 118.119 203.299 117.938 202.665 117.575C202.03 117.212 201.537 116.697 201.186 116.028C200.846 115.359 200.676 114.577 200.676 113.682C200.676 112.787 200.846 112.005 201.186 111.336C201.537 110.656 202.03 110.135 202.665 109.772C203.299 109.409 204.036 109.228 204.875 109.228C205.702 109.228 206.433 109.409 207.068 109.772C207.702 110.135 208.19 110.656 208.53 111.336C208.881 112.005 209.057 112.787 209.057 113.682C209.057 114.577 208.881 115.359 208.53 116.028C208.19 116.697 207.702 117.212 207.068 117.575C206.433 117.938 205.702 118.119 204.875 118.119ZM204.858 116.759C205.651 116.759 206.257 116.498 206.677 115.977C207.096 115.456 207.306 114.691 207.306 113.682C207.306 112.696 207.09 111.937 206.66 111.404C206.24 110.871 205.645 110.605 204.875 110.605C204.093 110.605 203.486 110.871 203.056 111.404C202.625 111.937 202.41 112.696 202.41 113.682C202.41 114.691 202.619 115.456 203.039 115.977C203.469 116.498 204.076 116.759 204.858 116.759ZM215.603 109.228C216.351 109.228 217.014 109.409 217.592 109.772C218.17 110.135 218.617 110.65 218.935 111.319C219.252 111.988 219.411 112.764 219.411 113.648C219.411 114.532 219.246 115.314 218.918 115.994C218.6 116.663 218.153 117.184 217.575 117.558C216.997 117.932 216.339 118.119 215.603 118.119C214.945 118.119 214.367 117.983 213.869 117.711C213.381 117.428 213.013 117.025 212.764 116.504V118H211.064V105.488H212.764V110.843C213.013 110.333 213.381 109.936 213.869 109.653C214.367 109.37 214.945 109.228 215.603 109.228ZM215.212 116.759C215.982 116.759 216.583 116.487 217.014 115.943C217.444 115.388 217.66 114.623 217.66 113.648C217.66 112.685 217.444 111.937 217.014 111.404C216.583 110.871 215.982 110.605 215.212 110.605C214.43 110.605 213.823 110.871 213.393 111.404C212.973 111.937 212.764 112.696 212.764 113.682C212.764 114.668 212.973 115.427 213.393 115.96C213.823 116.493 214.43 116.759 215.212 116.759ZM221.423 109.432H223.123V118H221.423V109.432ZM223.259 105.692V107.494H221.27V105.692H223.259ZM225.64 105.488H227.34V118H225.64V105.488ZM237.167 113.75H231.047C231.103 115.756 232.016 116.759 233.784 116.759C234.77 116.759 235.671 116.436 236.487 115.79L237.014 117.014C236.628 117.354 236.135 117.626 235.535 117.83C234.945 118.023 234.35 118.119 233.75 118.119C232.378 118.119 231.302 117.728 230.52 116.946C229.738 116.153 229.347 115.07 229.347 113.699C229.347 112.826 229.517 112.05 229.857 111.37C230.208 110.69 230.695 110.163 231.319 109.789C231.942 109.415 232.65 109.228 233.444 109.228C234.6 109.228 235.506 109.602 236.164 110.35C236.832 111.098 237.167 112.135 237.167 113.461V113.75ZM233.478 110.503C232.832 110.503 232.305 110.696 231.897 111.081C231.489 111.466 231.228 112.016 231.115 112.73H235.654C235.586 112.005 235.365 111.455 234.991 111.081C234.617 110.696 234.112 110.503 233.478 110.503ZM253.75 105.896V118H252.407L245.471 108.854V118H243.822V105.896H245.148L252.101 115.059V105.896H253.75ZM263.865 109.432V118H262.199V116.572C261.927 117.071 261.553 117.456 261.077 117.728C260.601 117.989 260.063 118.119 259.462 118.119C257.399 118.119 256.368 116.974 256.368 114.685V109.432H258.068V114.668C258.068 115.371 258.21 115.892 258.493 116.232C258.788 116.561 259.23 116.725 259.819 116.725C260.522 116.725 261.083 116.498 261.502 116.045C261.933 115.592 262.148 114.991 262.148 114.243V109.432H263.865ZM276.155 109.228C278.059 109.228 279.011 110.373 279.011 112.662V118H277.294V112.747C277.294 112.01 277.164 111.472 276.903 111.132C276.654 110.792 276.246 110.622 275.679 110.622C275.022 110.622 274.5 110.849 274.115 111.302C273.741 111.755 273.554 112.373 273.554 113.155V118H271.837V112.747C271.837 112.01 271.707 111.472 271.446 111.132C271.197 110.792 270.789 110.622 270.222 110.622C269.565 110.622 269.043 110.849 268.658 111.302C268.273 111.755 268.08 112.373 268.08 113.155V118H266.38V111.846C266.38 110.951 266.335 110.146 266.244 109.432H267.842L267.995 110.86C268.244 110.339 268.601 109.936 269.066 109.653C269.531 109.37 270.075 109.228 270.698 109.228C272.024 109.228 272.891 109.778 273.299 110.877C273.56 110.367 273.939 109.965 274.438 109.67C274.948 109.375 275.52 109.228 276.155 109.228ZM286.01 109.228C286.758 109.228 287.421 109.409 287.999 109.772C288.577 110.135 289.025 110.65 289.342 111.319C289.659 111.988 289.818 112.764 289.818 113.648C289.818 114.532 289.654 115.314 289.325 115.994C289.008 116.663 288.56 117.184 287.982 117.558C287.404 117.932 286.747 118.119 286.01 118.119C285.353 118.119 284.775 117.983 284.276 117.711C283.789 117.428 283.42 117.025 283.171 116.504V118H281.471V105.488H283.171V110.843C283.42 110.333 283.789 109.936 284.276 109.653C284.775 109.37 285.353 109.228 286.01 109.228ZM285.619 116.759C286.39 116.759 286.99 116.487 287.421 115.943C287.852 115.388 288.067 114.623 288.067 113.648C288.067 112.685 287.852 111.937 287.421 111.404C286.99 110.871 286.39 110.605 285.619 110.605C284.837 110.605 284.231 110.871 283.8 111.404C283.381 111.937 283.171 112.696 283.171 113.682C283.171 114.668 283.381 115.427 283.8 115.96C284.231 116.493 284.837 116.759 285.619 116.759ZM299.14 113.75H293.02C293.077 115.756 293.989 116.759 295.757 116.759C296.743 116.759 297.644 116.436 298.46 115.79L298.987 117.014C298.602 117.354 298.109 117.626 297.508 117.83C296.919 118.023 296.324 118.119 295.723 118.119C294.352 118.119 293.275 117.728 292.493 116.946C291.711 116.153 291.32 115.07 291.32 113.699C291.32 112.826 291.49 112.05 291.83 111.37C292.182 110.69 292.669 110.163 293.292 109.789C293.916 109.415 294.624 109.228 295.417 109.228C296.573 109.228 297.48 109.602 298.137 110.35C298.806 111.098 299.14 112.135 299.14 113.461V113.75ZM295.451 110.503C294.805 110.503 294.278 110.696 293.87 111.081C293.462 111.466 293.202 112.016 293.088 112.73H297.627C297.559 112.005 297.338 111.455 296.964 111.081C296.59 110.696 296.086 110.503 295.451 110.503ZM305.378 109.228C305.638 109.228 305.91 109.268 306.194 109.347L306.16 110.911C305.854 110.798 305.519 110.741 305.157 110.741C304.375 110.741 303.785 110.979 303.389 111.455C303.003 111.92 302.811 112.509 302.811 113.223V118H301.111V111.846C301.111 110.951 301.065 110.146 300.975 109.432H302.573L302.726 110.979C302.952 110.412 303.304 109.982 303.78 109.687C304.256 109.381 304.788 109.228 305.378 109.228Z" fill="#BDC7D2"/>
<line x1="125.5" y1="84" x2="125.5" y2="139" stroke="#BDC7D2"/>
<rect x="53.5" y="84.5" width="265" height="54" rx="13.5" stroke="#BDC7D2"/>
<rect x="53.5" y="163.5" width="265" height="54" rx="13.5" fill="white"/>
<path d="M161.934 198H159.486L157.848 193.734C157.704 193.338 157.482 193.062 157.182 192.906C156.882 192.75 156.492 192.672 156.012 192.672H153.69V198H151.386V185.184H156.876C158.328 185.184 159.432 185.502 160.188 186.138C160.944 186.774 161.322 187.686 161.322 188.874C161.322 189.726 161.094 190.452 160.638 191.052C160.194 191.64 159.558 192.06 158.73 192.312C159.486 192.468 160.032 192.996 160.368 193.896L161.934 198ZM156.552 190.872C157.428 190.872 158.076 190.71 158.496 190.386C158.916 190.062 159.126 189.57 159.126 188.91C159.126 188.262 158.916 187.782 158.496 187.47C158.088 187.146 157.44 186.984 156.552 186.984H153.654V190.872H156.552ZM171.819 193.572H165.555C165.603 194.544 165.843 195.264 166.275 195.732C166.719 196.188 167.373 196.416 168.237 196.416C169.233 196.416 170.157 196.092 171.009 195.444L171.657 196.992C171.225 197.34 170.691 197.622 170.055 197.838C169.431 198.042 168.795 198.144 168.147 198.144C166.659 198.144 165.489 197.724 164.637 196.884C163.785 196.044 163.359 194.892 163.359 193.428C163.359 192.504 163.545 191.682 163.917 190.962C164.289 190.242 164.811 189.684 165.483 189.288C166.155 188.88 166.917 188.676 167.769 188.676C169.017 188.676 170.001 189.084 170.721 189.9C171.453 190.704 171.819 191.814 171.819 193.23V193.572ZM167.823 190.296C167.223 190.296 166.731 190.476 166.347 190.836C165.975 191.184 165.735 191.694 165.627 192.366H169.857C169.785 191.682 169.575 191.166 169.227 190.818C168.891 190.47 168.423 190.296 167.823 190.296ZM182.508 188.91V197.712C182.508 199.128 182.118 200.202 181.338 200.934C180.558 201.666 179.412 202.032 177.9 202.032C176.496 202.032 175.26 201.738 174.192 201.15L174.552 199.44C175.656 200.016 176.754 200.304 177.846 200.304C179.466 200.304 180.276 199.5 180.276 197.892V196.092C180 196.584 179.598 196.986 179.07 197.298C178.542 197.598 177.948 197.748 177.288 197.748C176.496 197.748 175.788 197.562 175.164 197.19C174.552 196.806 174.072 196.272 173.724 195.588C173.388 194.892 173.22 194.1 173.22 193.212C173.22 192.324 173.388 191.538 173.724 190.854C174.072 190.158 174.552 189.624 175.164 189.252C175.788 188.868 176.496 188.676 177.288 188.676C177.96 188.676 178.554 188.82 179.07 189.108C179.598 189.384 180 189.774 180.276 190.278V188.91H182.508ZM177.882 195.984C178.626 195.984 179.208 195.738 179.628 195.246C180.06 194.754 180.276 194.076 180.276 193.212C180.276 192.348 180.066 191.67 179.646 191.178C179.226 190.686 178.638 190.44 177.882 190.44C177.138 190.44 176.55 190.686 176.118 191.178C175.698 191.67 175.488 192.348 175.488 193.212C175.488 194.076 175.698 194.754 176.118 195.246C176.55 195.738 177.138 195.984 177.882 195.984ZM184.939 188.91H187.171V198H184.939V188.91ZM187.297 184.788V187.002H184.795V184.788H187.297ZM192.962 198.144C191.318 198.144 190.01 197.76 189.038 196.992L189.668 195.408C190.64 196.128 191.75 196.488 192.998 196.488C193.538 196.488 193.952 196.398 194.24 196.218C194.54 196.038 194.69 195.786 194.69 195.462C194.69 195.186 194.588 194.97 194.384 194.814C194.18 194.646 193.832 194.502 193.34 194.382L191.828 194.04C190.172 193.68 189.344 192.834 189.344 191.502C189.344 190.95 189.5 190.464 189.812 190.044C190.124 189.612 190.562 189.276 191.126 189.036C191.69 188.796 192.344 188.676 193.088 188.676C193.736 188.676 194.36 188.778 194.96 188.982C195.56 189.174 196.088 189.456 196.544 189.828L195.878 191.358C194.966 190.686 194.03 190.35 193.07 190.35C192.554 190.35 192.152 190.446 191.864 190.638C191.576 190.83 191.432 191.094 191.432 191.43C191.432 191.694 191.516 191.904 191.684 192.06C191.864 192.216 192.164 192.348 192.584 192.456L194.132 192.798C195.032 193.002 195.686 193.32 196.094 193.752C196.514 194.172 196.724 194.724 196.724 195.408C196.724 196.248 196.388 196.914 195.716 197.406C195.044 197.898 194.126 198.144 192.962 198.144ZM201.424 190.602V194.67C201.424 195.738 201.922 196.272 202.918 196.272C203.194 196.272 203.494 196.224 203.818 196.128V197.91C203.422 198.054 202.942 198.126 202.378 198.126C201.346 198.126 200.554 197.838 200.002 197.262C199.45 196.686 199.174 195.858 199.174 194.778V190.602H197.428V188.91H199.174V186.696L201.424 185.94V188.91H203.836V190.602H201.424ZM213.338 193.572H207.074C207.122 194.544 207.362 195.264 207.794 195.732C208.238 196.188 208.892 196.416 209.756 196.416C210.752 196.416 211.676 196.092 212.528 195.444L213.176 196.992C212.744 197.34 212.21 197.622 211.574 197.838C210.95 198.042 210.314 198.144 209.666 198.144C208.178 198.144 207.008 197.724 206.156 196.884C205.304 196.044 204.878 194.892 204.878 193.428C204.878 192.504 205.064 191.682 205.436 190.962C205.808 190.242 206.33 189.684 207.002 189.288C207.674 188.88 208.436 188.676 209.288 188.676C210.536 188.676 211.52 189.084 212.24 189.9C212.972 190.704 213.338 191.814 213.338 193.23V193.572ZM209.342 190.296C208.742 190.296 208.25 190.476 207.866 190.836C207.494 191.184 207.254 191.694 207.146 192.366H211.376C211.304 191.682 211.094 191.166 210.746 190.818C210.41 190.47 209.942 190.296 209.342 190.296ZM220.14 188.694C220.488 188.694 220.788 188.742 221.04 188.838L221.022 190.89C220.638 190.734 220.242 190.656 219.834 190.656C219.066 190.656 218.478 190.878 218.07 191.322C217.674 191.766 217.476 192.354 217.476 193.086V198H215.244V191.484C215.244 190.524 215.196 189.666 215.1 188.91H217.206L217.386 190.512C217.614 189.924 217.974 189.474 218.466 189.162C218.958 188.85 219.516 188.694 220.14 188.694Z" fill="url(#paint0_linear)"/>
<rect x="53.5" y="163.5" width="265" height="54" rx="13.5" stroke="url(#paint1_linear)"/>
<g opacity="0.3">
<path d="M286.688 202.557C279.195 204.392 271.734 199.702 269.946 192.402C268.111 184.909 272.8 177.448 280.101 175.66C287.401 173.872 295.055 178.514 296.843 185.815C298.678 193.307 294.18 200.722 286.688 202.557ZM280.806 178.542C274.851 180 271.224 185.979 272.682 191.935C274.141 197.891 280.12 201.518 286.076 200.059C292.032 198.601 295.658 192.621 294.2 186.666C292.549 180.757 286.762 177.083 280.806 178.542Z" fill="#12E1FF"/>
<path d="M288.146 208.513C277.387 211.147 266.625 204.619 263.99 193.86C261.355 183.102 267.883 172.339 278.642 169.704C289.401 167.069 300.163 173.597 302.798 184.356C305.433 195.115 298.905 205.878 288.146 208.513ZM279.583 173.547C270.938 175.664 265.57 184.513 267.687 193.159C269.805 201.804 278.654 207.172 287.299 205.054C295.945 202.937 301.312 194.088 299.195 185.442C296.839 176.652 288.228 171.429 279.583 173.547Z" fill="#12E1FF"/>
</g>
<path d="M320.842 282.504C320.842 282.504 313.257 271.558 310.732 269.588C308.206 267.619 304.307 264.487 302.612 263.132C300.247 261.259 291.6 250.981 291.092 250.016C287.53 243.261 281.887 235.789 280.481 234.499C278.021 232.241 273.468 231.449 273.702 229.621C273.935 227.793 279.534 224.515 284.365 227.555C289.324 230.563 295.668 239.225 295.668 239.225C295.668 239.225 294.666 234.022 293.591 230.744C292.516 227.465 287.003 212.743 285.831 209.625C284.787 206.475 280.515 194.036 280.171 192.077C279.828 190.118 278.658 186.455 281.905 185.251C284.894 184.11 286.581 187.102 287.913 190.318C289.245 193.533 292.599 203.336 294.249 207.29C295.867 211.117 298.686 218.735 299.963 220.057C301.241 221.379 303.326 221.549 303.326 221.549C303.326 221.549 303.058 217.12 302.971 215.098C302.88 214.167 302.61 210.283 306.368 209.499C309.869 208.777 311.71 212.958 311.71 212.958C311.71 212.958 312.646 211.775 314.251 211.654C315.984 211.502 317.136 212.31 318.153 214.24C318.47 214.98 319.2 216.844 319.2 216.844C319.2 216.844 320.167 215.79 321.675 215.829C323.343 215.966 324.392 218.024 325.061 219.086C325.601 220.18 329.829 228.543 330.712 231.596C331.596 234.648 333.283 250.989 334.138 253.368C334.992 255.746 350.237 275.169 350.237 275.169L320.81 282.375L320.842 282.504Z" fill="#FFBD95"/>
<path d="M282.033 185.219C283.512 184.585 284.601 185.136 285.335 185.909C286.038 186.554 287.268 191.02 287.04 191.757C286.811 192.494 283.371 194.018 282.602 193.661C281.545 193.239 280.313 189.318 280.19 188.259C279.906 187.102 280.297 185.917 282.033 185.219Z" fill="#FFC8A7"/>
<path d="M286.539 229.202C286.539 229.202 290.533 232.718 294.265 237.389C294.839 238.066 295.668 239.225 295.668 239.225C295.668 239.225 295.327 243.395 295.639 245.225C295.822 247.087 297.506 250.625 297.506 250.625C297.506 250.625 294.598 248.204 293.976 243.998C293.478 240.851 293.326 239.117 292.914 237.992C291.999 234.811 286.539 229.202 286.539 229.202Z" fill="#F9A983"/>
<path d="M311.998 213.023C311.998 213.023 313.309 220.602 314.072 222.05C314.867 223.626 315.793 224.625 316.435 224.468C317.335 224.248 316.989 222.834 316.131 221.001C315.145 219.199 311.998 213.023 311.998 213.023Z" fill="#F9A983"/>
<path d="M319.488 216.91C319.488 216.91 320.715 221.921 321.478 223.369C322.241 224.817 322.847 225.622 323.521 225.593C324.195 225.564 324.263 224.73 323.723 223.636C322.802 221.546 319.488 216.91 319.488 216.91Z" fill="#F9A983"/>
<path d="M299.709 219.574C299.709 219.574 300.407 221.31 301.718 222.215C303.029 223.12 303.672 222.962 303.672 222.962L303.454 221.517C303.454 221.517 302.46 221.352 301.563 221.027C300.378 220.636 299.709 219.574 299.709 219.574Z" fill="#F9A983"/>
<path d="M282.442 193.564C283.21 193.921 286.554 192.557 286.911 191.789C286.462 191.626 285.371 191.621 284.246 192.033C283.024 192.604 282.636 193.244 282.442 193.564Z" fill="#FFD3B9"/>
<path d="M317.854 269.751C314.146 266.845 309.053 264.959 304.351 261.888C299.777 258.786 293.459 251.343 292.442 249.413C288.975 243.043 283.934 236.922 282.369 235.535C279.109 232.792 282.261 231.202 278.561 233.335C279.201 233.723 279.872 234.239 280.512 234.627C281.918 235.918 287.561 243.389 291.123 250.145C291.631 251.11 300.278 261.387 302.643 263.26C304.338 264.616 308.237 267.747 310.763 269.717C313.288 271.686 320.873 282.632 320.873 282.632L326.527 281.248C324.363 277.419 320.411 271.849 317.854 269.751Z" fill="#F9A983"/>
<path d="M279.809 233.982C280.066 233.919 280.78 232.383 280.588 232.157C280.525 231.9 276.783 229.411 275.435 229.469C274.087 229.527 273.122 230.035 273.216 230.421C273.311 230.806 279.424 234.077 279.809 233.982Z" fill="#FFC8A7"/>
<path d="M331 231.661C330.085 228.48 326.018 220.214 325.349 219.152C324.809 218.058 323.631 216.031 321.963 215.895C320.295 215.758 319.488 216.91 319.488 216.91C319.488 216.91 318.759 215.045 318.441 214.305C317.455 212.504 316.272 211.568 314.539 211.72C312.934 211.84 311.998 213.023 311.998 213.023C311.998 213.023 311.712 212.412 311.106 211.607C307.723 221.153 306.934 231.834 309.546 242.5C313.543 258.82 324.552 271.515 338.446 278.192L350.397 275.266C350.397 275.266 335.281 255.812 334.297 253.465C333.442 251.086 331.916 234.842 331 231.661Z" fill="#FFC6A3"/>
</g>
<defs>
<filter id="filter0_d" x="2" y="16" width="367" height="273" filterUnits="userSpaceOnUse" color-interpolation-filters="sRGB">
<feFlood flood-opacity="0" result="BackgroundImageFix"/>
<feColorMatrix in="SourceAlpha" type="matrix" values="0 0 0 0 0 0 0 0 0 0 0 0 0 0 0 0 0 0 127 0"/>
<feOffset/>
<feGaussianBlur stdDeviation="12"/>
<feColorMatrix type="matrix" values="0 0 0 0 0.977647 0 0 0 0 0.87141 0 0 0 0 0.724314 0 0 0 0.7 0"/>
<feBlend mode="normal" in2="BackgroundImageFix" result="effect1_dropShadow"/>
<feBlend mode="normal" in="SourceGraphic" in2="effect1_dropShadow" result="shape"/>
</filter>
<linearGradient id="paint0_linear" x1="186" y1="180" x2="186" y2="203" gradientUnits="userSpaceOnUse">
<stop stop-color="#41FFFF"/>
<stop offset="1" stop-color="#12E1FF"/>
</linearGradient>
<linearGradient id="paint1_linear" x1="186" y1="163" x2="186" y2="218" gradientUnits="userSpaceOnUse">
<stop stop-color="#41FFFF"/>
<stop offset="1" stop-color="#12E1FF"/>
</linearGradient>
</defs>
</svg>
