<svg width="371" height="265" viewBox="0 0 371 265" fill="none" xmlns="http://www.w3.org/2000/svg">
<rect width="371" height="265" rx="8" fill="#F8E4F2"/>
<mask id="mask0" mask-type="alpha" maskUnits="userSpaceOnUse" x="0" y="0" width="371" height="265">
<rect width="371" height="265" fill="#FFF2E6"/>
</mask>
<g mask="url(#mask0)">
<circle opacity="0.5" cx="27" cy="39" r="66.5" stroke="#F0C4E3" stroke-width="19"/>
<circle opacity="0.5" cx="357" cy="143" r="66.5" stroke="#F0C4E3" stroke-width="19"/>
<g filter="url(#filter0_d)">
<path d="M26 53C26 45.8203 31.8203 40 39 40H332C339.18 40 345 45.8203 345 53V265H26V53Z" fill="white"/>
</g>
<rect x="53.5" y="120.5" width="265" height="54" rx="13.5" fill="white"/>
<path d="M132.46 147.455V153.269C131.904 153.541 131.236 153.756 130.454 153.915C129.672 154.074 128.873 154.153 128.057 154.153C126.81 154.153 125.728 153.904 124.81 153.405C123.892 152.906 123.189 152.192 122.702 151.263C122.214 150.334 121.971 149.223 121.971 147.931C121.971 146.662 122.214 145.562 122.702 144.633C123.189 143.704 123.88 142.99 124.776 142.491C125.682 141.992 126.742 141.743 127.955 141.743C128.805 141.743 129.598 141.868 130.335 142.117C131.083 142.366 131.706 142.718 132.205 143.171L131.457 144.769C130.89 144.327 130.335 144.01 129.791 143.817C129.247 143.624 128.652 143.528 128.006 143.528C126.759 143.528 125.813 143.902 125.167 144.65C124.532 145.398 124.215 146.492 124.215 147.931C124.215 149.416 124.543 150.538 125.201 151.297C125.858 152.045 126.838 152.419 128.142 152.419C128.935 152.419 129.717 152.311 130.488 152.096V149.036H127.87V147.455H132.46ZM142.29 149.818H136.374C136.419 150.736 136.646 151.416 137.054 151.858C137.473 152.289 138.091 152.504 138.907 152.504C139.848 152.504 140.72 152.198 141.525 151.586L142.137 153.048C141.729 153.377 141.225 153.643 140.624 153.847C140.035 154.04 139.434 154.136 138.822 154.136C137.417 154.136 136.312 153.739 135.507 152.946C134.702 152.153 134.3 151.065 134.3 149.682C134.3 148.809 134.476 148.033 134.827 147.353C135.178 146.673 135.671 146.146 136.306 145.772C136.941 145.387 137.66 145.194 138.465 145.194C139.644 145.194 140.573 145.579 141.253 146.35C141.944 147.109 142.29 148.158 142.29 149.495V149.818ZM138.516 146.724C137.949 146.724 137.485 146.894 137.122 147.234C136.771 147.563 136.544 148.044 136.442 148.679H140.437C140.369 148.033 140.171 147.546 139.842 147.217C139.525 146.888 139.083 146.724 138.516 146.724ZM149.003 145.194C151.054 145.194 152.08 146.373 152.08 148.73V154H149.955V148.832C149.955 148.152 149.824 147.659 149.564 147.353C149.303 147.036 148.901 146.877 148.357 146.877C147.711 146.877 147.189 147.087 146.793 147.506C146.396 147.914 146.198 148.458 146.198 149.138V154H144.09V147.846C144.09 146.939 144.044 146.129 143.954 145.415H145.943L146.096 146.826C146.39 146.305 146.787 145.902 147.286 145.619C147.796 145.336 148.368 145.194 149.003 145.194ZM161.847 149.818H155.931C155.976 150.736 156.203 151.416 156.611 151.858C157.03 152.289 157.648 152.504 158.464 152.504C159.404 152.504 160.277 152.198 161.082 151.586L161.694 153.048C161.286 153.377 160.781 153.643 160.181 153.847C159.591 154.04 158.991 154.136 158.379 154.136C156.973 154.136 155.868 153.739 155.064 152.946C154.259 152.153 153.857 151.065 153.857 149.682C153.857 148.809 154.032 148.033 154.384 147.353C154.735 146.673 155.228 146.146 155.863 145.772C156.497 145.387 157.217 145.194 158.022 145.194C159.2 145.194 160.13 145.579 160.81 146.35C161.501 147.109 161.847 148.158 161.847 149.495V149.818ZM158.073 146.724C157.506 146.724 157.041 146.894 156.679 147.234C156.327 147.563 156.101 148.044 155.999 148.679H159.994C159.926 148.033 159.727 147.546 159.399 147.217C159.081 146.888 158.639 146.724 158.073 146.724ZM168.27 145.211C168.599 145.211 168.882 145.256 169.12 145.347L169.103 147.285C168.741 147.138 168.367 147.064 167.981 147.064C167.256 147.064 166.701 147.274 166.315 147.693C165.941 148.112 165.754 148.668 165.754 149.359V154H163.646V147.846C163.646 146.939 163.601 146.129 163.51 145.415H165.499L165.669 146.928C165.885 146.373 166.225 145.948 166.689 145.653C167.154 145.358 167.681 145.211 168.27 145.211ZM178.348 145.415V154H176.257V152.623C175.997 153.099 175.623 153.473 175.135 153.745C174.648 154.006 174.093 154.136 173.469 154.136C172.721 154.136 172.058 153.955 171.48 153.592C170.902 153.229 170.455 152.714 170.137 152.045C169.82 151.376 169.661 150.6 169.661 149.716C169.661 148.832 169.82 148.05 170.137 147.37C170.466 146.679 170.919 146.146 171.497 145.772C172.075 145.387 172.733 145.194 173.469 145.194C174.093 145.194 174.648 145.33 175.135 145.602C175.623 145.863 175.997 146.231 176.257 146.707V145.415H178.348ZM174.047 152.47C174.75 152.47 175.294 152.226 175.679 151.739C176.065 151.252 176.257 150.566 176.257 149.682C176.257 148.775 176.065 148.078 175.679 147.591C175.294 147.104 174.744 146.86 174.03 146.86C173.328 146.86 172.778 147.115 172.381 147.625C171.996 148.124 171.803 148.821 171.803 149.716C171.803 150.6 171.996 151.28 172.381 151.756C172.778 152.232 173.333 152.47 174.047 152.47ZM180.663 141.488H182.771V154H180.663V141.488ZM194.01 154.153C193.081 154.153 192.208 154.028 191.392 153.779C190.588 153.53 189.902 153.173 189.335 152.708L190.083 151.11C190.673 151.552 191.285 151.881 191.919 152.096C192.565 152.3 193.268 152.402 194.027 152.402C194.866 152.402 195.512 152.255 195.965 151.96C196.43 151.665 196.662 151.252 196.662 150.719C196.662 150.266 196.447 149.92 196.016 149.682C195.597 149.433 194.9 149.2 193.925 148.985C192.407 148.656 191.302 148.231 190.61 147.71C189.919 147.189 189.573 146.429 189.573 145.432C189.573 144.718 189.766 144.083 190.151 143.528C190.537 142.973 191.081 142.536 191.783 142.219C192.497 141.902 193.319 141.743 194.248 141.743C195.098 141.743 195.903 141.873 196.662 142.134C197.433 142.383 198.062 142.735 198.549 143.188L197.818 144.786C196.742 143.925 195.552 143.494 194.248 143.494C193.466 143.494 192.849 143.658 192.395 143.987C191.942 144.304 191.715 144.741 191.715 145.296C191.715 145.772 191.914 146.135 192.31 146.384C192.718 146.633 193.41 146.866 194.384 147.081C195.393 147.319 196.215 147.58 196.849 147.863C197.484 148.135 197.971 148.492 198.311 148.934C198.651 149.365 198.821 149.909 198.821 150.566C198.821 151.291 198.629 151.926 198.243 152.47C197.858 153.003 197.303 153.416 196.577 153.711C195.852 154.006 194.996 154.153 194.01 154.153ZM204.594 154.136C203.699 154.136 202.922 153.955 202.265 153.592C201.608 153.229 201.103 152.719 200.752 152.062C200.401 151.393 200.225 150.611 200.225 149.716C200.225 148.821 200.406 148.033 200.769 147.353C201.143 146.673 201.664 146.146 202.333 145.772C203.013 145.387 203.795 145.194 204.679 145.194C205.291 145.194 205.88 145.29 206.447 145.483C207.025 145.676 207.484 145.942 207.824 146.282L207.229 147.778C206.866 147.483 206.481 147.262 206.073 147.115C205.665 146.956 205.263 146.877 204.866 146.877C204.095 146.877 203.495 147.121 203.064 147.608C202.633 148.084 202.418 148.775 202.418 149.682C202.418 150.589 202.628 151.28 203.047 151.756C203.478 152.232 204.084 152.47 204.866 152.47C205.263 152.47 205.665 152.391 206.073 152.232C206.481 152.073 206.866 151.847 207.229 151.552L207.824 153.048C207.461 153.388 206.991 153.654 206.413 153.847C205.835 154.04 205.229 154.136 204.594 154.136ZM209.251 145.415H211.359V154H209.251V145.415ZM211.478 141.522V143.613H209.115V141.522H211.478ZM221.197 149.818H215.281C215.327 150.736 215.553 151.416 215.961 151.858C216.381 152.289 216.998 152.504 217.814 152.504C218.755 152.504 219.628 152.198 220.432 151.586L221.044 153.048C220.636 153.377 220.132 153.643 219.531 153.847C218.942 154.04 218.341 154.136 217.729 154.136C216.324 154.136 215.219 153.739 214.414 152.946C213.61 152.153 213.207 151.065 213.207 149.682C213.207 148.809 213.383 148.033 213.734 147.353C214.086 146.673 214.579 146.146 215.213 145.772C215.848 145.387 216.568 145.194 217.372 145.194C218.551 145.194 219.48 145.579 220.16 146.35C220.852 147.109 221.197 148.158 221.197 149.495V149.818ZM217.423 146.724C216.857 146.724 216.392 146.894 216.029 147.234C215.678 147.563 215.451 148.044 215.349 148.679H219.344C219.276 148.033 219.078 147.546 218.749 147.217C218.432 146.888 217.99 146.724 217.423 146.724ZM227.91 145.194C229.961 145.194 230.987 146.373 230.987 148.73V154H228.862V148.832C228.862 148.152 228.731 147.659 228.471 147.353C228.21 147.036 227.808 146.877 227.264 146.877C226.618 146.877 226.096 147.087 225.7 147.506C225.303 147.914 225.105 148.458 225.105 149.138V154H222.997V147.846C222.997 146.939 222.951 146.129 222.861 145.415H224.85L225.003 146.826C225.297 146.305 225.694 145.902 226.193 145.619C226.703 145.336 227.275 145.194 227.91 145.194ZM237.133 154.136C236.238 154.136 235.461 153.955 234.804 153.592C234.147 153.229 233.642 152.719 233.291 152.062C232.94 151.393 232.764 150.611 232.764 149.716C232.764 148.821 232.945 148.033 233.308 147.353C233.682 146.673 234.203 146.146 234.872 145.772C235.552 145.387 236.334 145.194 237.218 145.194C237.83 145.194 238.419 145.29 238.986 145.483C239.564 145.676 240.023 145.942 240.363 146.282L239.768 147.778C239.405 147.483 239.02 147.262 238.612 147.115C238.204 146.956 237.802 146.877 237.405 146.877C236.634 146.877 236.034 147.121 235.603 147.608C235.172 148.084 234.957 148.775 234.957 149.682C234.957 150.589 235.167 151.28 235.586 151.756C236.017 152.232 236.623 152.47 237.405 152.47C237.802 152.47 238.204 152.391 238.612 152.232C239.02 152.073 239.405 151.847 239.768 151.552L240.363 153.048C240 153.388 239.53 153.654 238.952 153.847C238.374 154.04 237.768 154.136 237.133 154.136ZM249.304 149.818H243.388C243.433 150.736 243.66 151.416 244.068 151.858C244.487 152.289 245.105 152.504 245.921 152.504C246.861 152.504 247.734 152.198 248.539 151.586L249.151 153.048C248.743 153.377 248.238 153.643 247.638 153.847C247.048 154.04 246.448 154.136 245.836 154.136C244.43 154.136 243.325 153.739 242.521 152.946C241.716 152.153 241.314 151.065 241.314 149.682C241.314 148.809 241.489 148.033 241.841 147.353C242.192 146.673 242.685 146.146 243.32 145.772C243.954 145.387 244.674 145.194 245.479 145.194C246.657 145.194 247.587 145.579 248.267 146.35C248.958 147.109 249.304 148.158 249.304 149.495V149.818ZM245.53 146.724C244.963 146.724 244.498 146.894 244.136 147.234C243.784 147.563 243.558 148.044 243.456 148.679H247.451C247.383 148.033 247.184 147.546 246.856 147.217C246.538 146.888 246.096 146.724 245.53 146.724Z" fill="#1C1C50"/>
<path d="M72.3701 137C72.3701 134.239 74.6087 132 77.3701 132H97.6294V163H77.3701C74.6087 163 72.3701 160.761 72.3701 158V137Z" fill="#8391A0"/>
<path d="M72.3701 158.407C72.3701 155.871 74.4263 153.815 76.9627 153.815H97.6294V163H76.9627C74.4263 163 72.3701 160.944 72.3701 158.407Z" fill="#9CA4AD"/>
<path d="M84.193 146.096L84.2115 144.659C84.2141 144.462 84.2727 144.265 84.3874 144.069C84.5021 143.873 84.6729 143.678 84.8437 143.483C85.0425 143.288 85.2414 143.092 85.4682 142.898C85.6951 142.703 85.9224 142.48 86.1216 142.256C86.3208 142.033 86.5203 141.782 86.6634 141.558C86.8069 141.306 86.895 140.997 86.899 140.687C86.9016 140.49 86.8764 140.264 86.7948 140.066C86.7413 139.869 86.6313 139.698 86.4933 139.528C86.3549 139.386 86.1884 139.243 86.0213 139.157C85.8261 139.07 85.6025 139.012 85.3501 139.009C85.0416 139.006 84.7605 139.059 84.5627 139.17C84.365 139.28 84.1946 139.448 84.0798 139.644C83.9655 139.812 83.8785 140.036 83.8475 140.261C83.8166 140.486 83.7856 140.711 83.7831 140.908L83.7791 141.218L80.5262 141.184C80.5269 141.128 80.5277 141.071 80.5003 141.015C80.5018 140.902 80.4752 140.789 80.477 140.648C80.485 140.029 80.6325 139.467 80.8914 138.963C81.1503 138.458 81.5203 138.04 82.0014 137.707C82.4828 137.345 83.0469 137.098 83.6944 136.907C84.3419 136.717 85.0721 136.64 85.8293 136.648C86.5584 136.655 87.2583 136.747 87.8727 136.951C88.4871 137.154 88.9886 137.413 89.4329 137.756C89.8492 138.098 90.1802 138.524 90.3984 139.005C90.6166 139.486 90.7499 140.023 90.7422 140.614C90.7368 141.037 90.6476 141.43 90.5034 141.739C90.3308 142.075 90.1305 142.383 89.8748 142.634C89.6188 142.913 89.3632 143.163 89.0802 143.358C88.7689 143.58 88.5139 143.774 88.259 143.969C88.0041 144.163 87.7772 144.358 87.5788 144.525C87.3515 144.748 87.2645 144.973 87.2616 145.198L87.2507 146.043L84.1941 146.011L84.193 146.096Z" fill="white"/>
<path d="M87.4114 147.081L84.3828 147.049L84.3465 149.866L87.3751 149.897L87.4114 147.081Z" fill="white"/>
<rect x="53.5" y="120.5" width="265" height="54" rx="13.5" stroke="#BDC7D2"/>
<rect x="53.5" y="50.5" width="265" height="54" rx="13.5" fill="white"/>
<path d="M165.227 77.744C165.93 77.948 166.468 78.305 166.842 78.815C167.228 79.325 167.42 79.954 167.42 80.702C167.42 81.7333 167.052 82.5437 166.315 83.133C165.59 83.711 164.576 84 163.272 84H157.781V71.896H163.102C164.349 71.896 165.329 72.1793 166.043 72.746C166.757 73.3013 167.114 74.072 167.114 75.058C167.114 75.6927 166.944 76.248 166.604 76.724C166.276 77.1887 165.817 77.5287 165.227 77.744ZM159.923 76.996H162.745C164.264 76.996 165.023 76.4293 165.023 75.296C165.023 74.7293 164.836 74.3043 164.462 74.021C164.088 73.7377 163.516 73.596 162.745 73.596H159.923V76.996ZM163.034 82.3C163.828 82.3 164.406 82.1583 164.768 81.875C165.142 81.5917 165.329 81.144 165.329 80.532C165.329 79.9087 165.142 79.4497 164.768 79.155C164.406 78.8603 163.828 78.713 163.034 78.713H159.923V82.3H163.034ZM177.576 75.415V84H175.485V82.623C175.225 83.099 174.851 83.473 174.363 83.745C173.876 84.0057 173.321 84.136 172.697 84.136C171.949 84.136 171.286 83.9547 170.708 83.592C170.13 83.2293 169.683 82.7137 169.365 82.045C169.048 81.3763 168.889 80.6 168.889 79.716C168.889 78.832 169.048 78.05 169.365 77.37C169.694 76.6787 170.147 76.146 170.725 75.772C171.303 75.3867 171.961 75.194 172.697 75.194C173.321 75.194 173.876 75.33 174.363 75.602C174.851 75.8627 175.225 76.231 175.485 76.707V75.415H177.576ZM173.275 82.47C173.978 82.47 174.522 82.2263 174.907 81.739C175.293 81.2517 175.485 80.566 175.485 79.682C175.485 78.7753 175.293 78.0783 174.907 77.591C174.522 77.1037 173.972 76.86 173.258 76.86C172.556 76.86 172.006 77.115 171.609 77.625C171.224 78.1237 171.031 78.8207 171.031 79.716C171.031 80.6 171.224 81.28 171.609 81.756C172.006 82.232 172.561 82.47 173.275 82.47ZM184.804 75.194C186.855 75.194 187.881 76.3727 187.881 78.73V84H185.756V78.832C185.756 78.152 185.626 77.659 185.365 77.353C185.104 77.0357 184.702 76.877 184.158 76.877C183.512 76.877 182.991 77.0867 182.594 77.506C182.197 77.914 181.999 78.458 181.999 79.138V84H179.891V77.846C179.891 76.9393 179.846 76.129 179.755 75.415H181.744L181.897 76.826C182.192 76.3047 182.588 75.9023 183.087 75.619C183.597 75.3357 184.169 75.194 184.804 75.194ZM198.43 75.415V83.728C198.43 85.0653 198.062 86.0797 197.325 86.771C196.588 87.4623 195.506 87.808 194.078 87.808C192.752 87.808 191.585 87.5303 190.576 86.975L190.916 85.36C191.959 85.904 192.996 86.176 194.027 86.176C195.557 86.176 196.322 85.4167 196.322 83.898V82.198C196.061 82.6627 195.682 83.0423 195.183 83.337C194.684 83.6203 194.123 83.762 193.5 83.762C192.752 83.762 192.083 83.5863 191.494 83.235C190.916 82.8723 190.463 82.368 190.134 81.722C189.817 81.0647 189.658 80.3167 189.658 79.478C189.658 78.6393 189.817 77.897 190.134 77.251C190.463 76.5937 190.916 76.0893 191.494 75.738C192.083 75.3753 192.752 75.194 193.5 75.194C194.135 75.194 194.696 75.33 195.183 75.602C195.682 75.8627 196.061 76.231 196.322 76.707V75.415H198.43ZM194.061 82.096C194.764 82.096 195.313 81.8637 195.71 81.399C196.118 80.9343 196.322 80.294 196.322 79.478C196.322 78.662 196.124 78.0217 195.727 77.557C195.33 77.0923 194.775 76.86 194.061 76.86C193.358 76.86 192.803 77.0923 192.395 77.557C191.998 78.0217 191.8 78.662 191.8 79.478C191.8 80.294 191.998 80.9343 192.395 81.399C192.803 81.8637 193.358 82.096 194.061 82.096ZM200.726 71.488H202.834V84H200.726V71.488ZM213.369 75.415V84H211.278V82.623C211.018 83.099 210.644 83.473 210.156 83.745C209.669 84.0057 209.114 84.136 208.49 84.136C207.742 84.136 207.079 83.9547 206.501 83.592C205.923 83.2293 205.476 82.7137 205.158 82.045C204.841 81.3763 204.682 80.6 204.682 79.716C204.682 78.832 204.841 78.05 205.158 77.37C205.487 76.6787 205.94 76.146 206.518 75.772C207.096 75.3867 207.754 75.194 208.49 75.194C209.114 75.194 209.669 75.33 210.156 75.602C210.644 75.8627 211.018 76.231 211.278 76.707V75.415H213.369ZM209.068 82.47C209.771 82.47 210.315 82.2263 210.7 81.739C211.086 81.2517 211.278 80.566 211.278 79.682C211.278 78.7753 211.086 78.0783 210.7 77.591C210.315 77.1037 209.765 76.86 209.051 76.86C208.349 76.86 207.799 77.115 207.402 77.625C207.017 78.1237 206.824 78.8207 206.824 79.716C206.824 80.6 207.017 81.28 207.402 81.756C207.799 82.232 208.354 82.47 209.068 82.47Z" fill="#1C1C50"/>
<path d="M72.3706 67C72.3706 64.2386 74.6092 62 77.3706 62H97.6299V93H77.3706C74.6092 93 72.3706 90.7614 72.3706 88V67Z" fill="#8391A0"/>
<path d="M72.3706 88.4074C72.3706 85.871 74.4268 83.8148 76.9632 83.8148H97.6299V93H76.9632C74.4268 93 72.3706 90.9438 72.3706 88.4074Z" fill="#9CA4AD"/>
<path d="M84.1935 76.0956L84.212 74.6591C84.2145 74.462 84.2732 74.2654 84.3879 74.0694C84.5026 73.8734 84.6734 73.678 84.8442 73.4826C85.043 73.2875 85.2419 73.0924 85.4687 72.8976C85.6956 72.7028 85.9229 72.4798 86.122 72.2565C86.3212 72.0332 86.5208 71.7818 86.6639 71.5579C86.8074 71.3059 86.8955 70.9969 86.8995 70.6871C86.9021 70.49 86.8769 70.2644 86.7953 70.0663C86.7418 69.8686 86.6318 69.6984 86.4938 69.528C86.3554 69.3857 86.1889 69.2431 86.0218 69.1569C85.8266 69.0703 85.603 69.0117 85.3506 69.009C85.0421 69.0058 84.761 69.0592 84.5632 69.1698C84.3655 69.2805 84.195 69.4477 84.0803 69.6437C83.966 69.8115 83.879 70.036 83.848 70.261C83.8171 70.486 83.7861 70.711 83.7836 70.9082L83.7796 71.218L80.5267 71.1842C80.5274 71.1278 80.5281 71.0715 80.5008 71.0149C80.5023 70.9022 80.4757 70.7893 80.4775 70.6484C80.4855 70.0288 80.633 69.467 80.8919 68.9626C81.1508 68.4583 81.5208 68.0396 82.0019 67.7066C82.4833 67.3454 83.0474 67.0977 83.6949 66.9073C84.3424 66.7168 85.0726 66.6399 85.8297 66.6478C86.5588 66.6554 87.2588 66.7472 87.8732 66.9508C88.4876 67.1544 88.9891 67.4131 89.4334 67.7558C89.8497 68.0981 90.1807 68.5241 90.3989 69.0052C90.617 69.4864 90.7504 70.023 90.7427 70.6145C90.7373 71.0369 90.6481 71.4304 90.5039 71.7387C90.3313 72.075 90.131 72.3827 89.8753 72.6336C89.6193 72.9126 89.3637 73.1635 89.0807 73.3577C88.7694 73.5798 88.5144 73.7743 88.2595 73.9689C88.0046 74.1634 87.7777 74.3582 87.5792 74.5252C87.352 74.7482 87.265 74.9726 87.2621 75.1979L87.2512 76.0429L84.1946 76.0111L84.1935 76.0956Z" fill="white"/>
<path d="M87.4118 77.081L84.3833 77.0494L84.347 79.866L87.3755 79.8975L87.4118 77.081Z" fill="white"/>
<rect x="53.5" y="50.5" width="265" height="54" rx="13.5" stroke="#BDC7D2"/>
<rect x="53" y="190.901" width="266" height="55" rx="14" fill="#0DE0C0"/>
<path d="M151.398 226.063C150.138 226.063 149.034 225.793 148.086 225.253C147.15 224.713 146.43 223.951 145.926 222.967C145.422 221.971 145.17 220.807 145.17 219.475C145.17 218.155 145.422 217.003 145.926 216.019C146.43 215.023 147.15 214.261 148.086 213.733C149.034 213.193 150.138 212.923 151.398 212.923C152.262 212.923 153.072 213.061 153.828 213.337C154.596 213.601 155.232 213.973 155.736 214.453L154.98 216.145C154.404 215.677 153.828 215.341 153.252 215.137C152.688 214.921 152.082 214.813 151.434 214.813C150.198 214.813 149.238 215.215 148.554 216.019C147.882 216.823 147.546 217.975 147.546 219.475C147.546 220.987 147.882 222.151 148.554 222.967C149.226 223.771 150.186 224.173 151.434 224.173C152.082 224.173 152.688 224.071 153.252 223.867C153.828 223.651 154.404 223.309 154.98 222.841L155.736 224.533C155.232 225.013 154.596 225.391 153.828 225.667C153.072 225.931 152.262 226.063 151.398 226.063ZM161.691 226.045C160.767 226.045 159.951 225.853 159.243 225.469C158.547 225.085 158.007 224.539 157.623 223.831C157.251 223.111 157.065 222.271 157.065 221.311C157.065 220.351 157.251 219.517 157.623 218.809C158.007 218.089 158.547 217.537 159.243 217.153C159.951 216.769 160.767 216.577 161.691 216.577C162.603 216.577 163.407 216.769 164.103 217.153C164.799 217.537 165.333 218.089 165.705 218.809C166.089 219.517 166.281 220.351 166.281 221.311C166.281 222.271 166.089 223.111 165.705 223.831C165.333 224.539 164.799 225.085 164.103 225.469C163.407 225.853 162.603 226.045 161.691 226.045ZM161.673 224.281C162.441 224.281 163.023 224.035 163.419 223.543C163.827 223.039 164.031 222.295 164.031 221.311C164.031 220.339 163.827 219.601 163.419 219.097C163.011 218.581 162.435 218.323 161.691 218.323C160.935 218.323 160.353 218.581 159.945 219.097C159.537 219.601 159.333 220.339 159.333 221.311C159.333 222.295 159.531 223.039 159.927 223.543C160.335 224.035 160.917 224.281 161.673 224.281ZM178.949 216.577C179.981 216.577 180.749 216.889 181.253 217.513C181.757 218.125 182.009 219.061 182.009 220.321V225.901H179.759V220.393C179.759 219.673 179.639 219.157 179.399 218.845C179.171 218.521 178.787 218.359 178.247 218.359C177.623 218.359 177.131 218.581 176.771 219.025C176.423 219.457 176.249 220.057 176.249 220.825V225.901H173.999V220.393C173.999 219.685 173.873 219.169 173.621 218.845C173.381 218.521 172.997 218.359 172.469 218.359C171.845 218.359 171.353 218.581 170.993 219.025C170.633 219.457 170.453 220.057 170.453 220.825V225.901H168.221V219.385C168.221 218.425 168.173 217.567 168.077 216.811H170.183L170.345 218.251C170.609 217.711 170.987 217.297 171.479 217.009C171.983 216.721 172.559 216.577 173.207 216.577C174.599 216.577 175.505 217.153 175.925 218.305C176.213 217.765 176.621 217.345 177.149 217.045C177.689 216.733 178.289 216.577 178.949 216.577ZM189.595 216.577C190.375 216.577 191.065 216.781 191.665 217.189C192.277 217.585 192.751 218.149 193.087 218.881C193.435 219.601 193.609 220.429 193.609 221.365C193.609 222.301 193.441 223.123 193.105 223.831C192.769 224.539 192.295 225.085 191.683 225.469C191.083 225.853 190.387 226.045 189.595 226.045C188.935 226.045 188.347 225.907 187.831 225.631C187.315 225.343 186.919 224.947 186.643 224.443V229.789H184.411V219.385C184.411 218.425 184.363 217.567 184.267 216.811H186.373L186.553 218.377C186.793 217.813 187.183 217.375 187.723 217.063C188.263 216.739 188.887 216.577 189.595 216.577ZM188.983 224.281C189.739 224.281 190.321 224.029 190.729 223.525C191.137 223.021 191.341 222.301 191.341 221.365C191.341 220.417 191.137 219.679 190.729 219.151C190.321 218.611 189.745 218.341 189.001 218.341C188.233 218.341 187.645 218.599 187.237 219.115C186.829 219.631 186.625 220.369 186.625 221.329C186.625 222.277 186.829 223.009 187.237 223.525C187.645 224.029 188.227 224.281 188.983 224.281ZM203.853 216.811V225.901H201.657V224.497C201.369 225.001 200.985 225.385 200.505 225.649C200.025 225.913 199.473 226.045 198.849 226.045C196.629 226.045 195.519 224.797 195.519 222.301V216.811H197.751V222.319C197.751 222.979 197.883 223.465 198.147 223.777C198.423 224.089 198.843 224.245 199.407 224.245C200.067 224.245 200.595 224.029 200.991 223.597C201.387 223.165 201.585 222.589 201.585 221.869V216.811H203.853ZM209.157 218.503V222.571C209.157 223.639 209.655 224.173 210.651 224.173C210.927 224.173 211.227 224.125 211.551 224.029V225.811C211.155 225.955 210.675 226.027 210.111 226.027C209.079 226.027 208.287 225.739 207.735 225.163C207.183 224.587 206.907 223.759 206.907 222.679V218.503H205.161V216.811H206.907V214.597L209.157 213.841V216.811H211.569V218.503H209.157ZM221.072 221.473H214.808C214.856 222.445 215.096 223.165 215.528 223.633C215.972 224.089 216.626 224.317 217.49 224.317C218.486 224.317 219.41 223.993 220.262 223.345L220.91 224.893C220.478 225.241 219.944 225.523 219.308 225.739C218.684 225.943 218.048 226.045 217.4 226.045C215.912 226.045 214.742 225.625 213.89 224.785C213.038 223.945 212.612 222.793 212.612 221.329C212.612 220.405 212.798 219.583 213.17 218.863C213.542 218.143 214.064 217.585 214.736 217.189C215.408 216.781 216.17 216.577 217.022 216.577C218.27 216.577 219.254 216.985 219.974 217.801C220.706 218.605 221.072 219.715 221.072 221.131V221.473ZM217.076 218.197C216.476 218.197 215.984 218.377 215.6 218.737C215.228 219.085 214.988 219.595 214.88 220.267H219.11C219.038 219.583 218.828 219.067 218.48 218.719C218.144 218.371 217.676 218.197 217.076 218.197ZM227.873 216.595C228.221 216.595 228.521 216.643 228.773 216.739L228.755 218.791C228.371 218.635 227.975 218.557 227.567 218.557C226.799 218.557 226.211 218.779 225.803 219.223C225.407 219.667 225.209 220.255 225.209 220.987V225.901H222.977V219.385C222.977 218.425 222.929 217.567 222.833 216.811H224.939L225.119 218.413C225.347 217.825 225.707 217.375 226.199 217.063C226.691 216.751 227.249 216.595 227.873 216.595Z" fill="white"/>
<path d="M72.3701 207C72.3701 204.239 74.6087 202 77.3701 202H97.6294V233H77.3701C74.6087 233 72.3701 230.761 72.3701 228V207Z" fill="white"/>
<path d="M72.3701 228.407C72.3701 225.871 74.4263 223.815 76.9627 223.815H97.6294V233H76.9627C74.4263 233 72.3701 230.944 72.3701 228.407Z" fill="url(#paint0_linear)"/>
<path d="M84.193 216.096L84.2115 214.659C84.2141 214.462 84.2727 214.265 84.3874 214.069C84.5021 213.873 84.6729 213.678 84.8437 213.483C85.0425 213.288 85.2414 213.092 85.4682 212.898C85.6951 212.703 85.9224 212.48 86.1216 212.256C86.3208 212.033 86.5203 211.782 86.6634 211.558C86.8069 211.306 86.895 210.997 86.899 210.687C86.9016 210.49 86.8764 210.264 86.7948 210.066C86.7413 209.869 86.6313 209.698 86.4933 209.528C86.3549 209.386 86.1884 209.243 86.0213 209.157C85.8261 209.07 85.6025 209.012 85.3501 209.009C85.0416 209.006 84.7605 209.059 84.5627 209.17C84.365 209.28 84.1946 209.448 84.0798 209.644C83.9655 209.812 83.8785 210.036 83.8475 210.261C83.8166 210.486 83.7856 210.711 83.7831 210.908L83.7791 211.218L80.5262 211.184C80.5269 211.128 80.5277 211.071 80.5003 211.015C80.5018 210.902 80.4752 210.789 80.477 210.648C80.485 210.029 80.6325 209.467 80.8914 208.963C81.1503 208.458 81.5203 208.04 82.0014 207.707C82.4828 207.345 83.0469 207.098 83.6944 206.907C84.3419 206.717 85.0721 206.64 85.8293 206.648C86.5584 206.655 87.2583 206.747 87.8727 206.951C88.4871 207.154 88.9886 207.413 89.4329 207.756C89.8492 208.098 90.1802 208.524 90.3984 209.005C90.6166 209.486 90.7499 210.023 90.7422 210.614C90.7368 211.037 90.6476 211.43 90.5034 211.739C90.3308 212.075 90.1305 212.383 89.8748 212.634C89.6188 212.913 89.3632 213.163 89.0802 213.358C88.7689 213.58 88.5139 213.774 88.259 213.969C88.0041 214.163 87.7772 214.358 87.5788 214.525C87.3515 214.748 87.2645 214.973 87.2616 215.198L87.2507 216.043L84.1941 216.011L84.193 216.096Z" fill="#1C1C50"/>
<path d="M87.4114 217.081L84.3828 217.049L84.3465 219.866L87.3751 219.897L87.4114 217.081Z" fill="#1C1C50"/>
<g opacity="0.3">
<path d="M291.187 230.723C285.553 232.103 279.942 228.576 278.597 223.086C277.217 217.451 280.743 211.84 286.234 210.496C291.724 209.151 297.479 212.642 298.824 218.133C300.204 223.767 296.822 229.343 291.187 230.723ZM286.764 212.663C282.286 213.76 279.558 218.256 280.655 222.735C281.752 227.214 286.248 229.942 290.727 228.845C295.206 227.748 297.934 223.251 296.837 218.772C295.595 214.329 291.243 211.566 286.764 212.663Z" fill="#12E1FF"/>
<path d="M292.284 235.202C284.193 237.183 276.1 232.274 274.118 224.183C272.137 216.092 277.046 207.999 285.137 206.017C293.228 204.036 301.321 208.945 303.303 217.036C305.284 225.127 300.375 233.22 292.284 235.202ZM285.844 208.907C279.343 210.499 275.306 217.154 276.899 223.655C278.491 230.157 285.146 234.193 291.647 232.601C298.149 231.009 302.185 224.354 300.593 217.853C298.821 211.242 292.346 207.314 285.844 208.907Z" fill="#12E1FF"/>
</g>
<path d="M316.872 290.845C316.872 290.845 311.168 282.613 309.269 281.132C307.37 279.651 304.437 277.296 303.163 276.276C301.384 274.868 294.882 267.139 294.499 266.414C291.821 261.333 287.577 255.714 286.52 254.744C284.67 253.046 281.246 252.451 281.422 251.076C281.597 249.701 285.808 247.236 289.441 249.522C293.17 251.784 297.941 258.298 297.941 258.298C297.941 258.298 297.187 254.385 296.379 251.92C295.57 249.455 291.425 238.383 290.543 236.038C289.758 233.669 286.545 224.315 286.287 222.842C286.029 221.369 285.149 218.614 287.591 217.709C289.839 216.851 291.107 219.101 292.109 221.519C293.111 223.937 295.633 231.309 296.874 234.283C298.091 237.16 300.211 242.889 301.171 243.883C302.132 244.877 303.7 245.005 303.7 245.005C303.7 245.005 303.498 241.674 303.433 240.154C303.364 239.454 303.161 236.533 305.987 235.943C308.62 235.401 310.005 238.545 310.005 238.545C310.005 238.545 310.709 237.655 311.916 237.564C313.219 237.45 314.085 238.057 314.85 239.509C315.089 240.065 315.637 241.467 315.637 241.467C315.637 241.467 316.365 240.675 317.499 240.704C318.753 240.807 319.542 242.355 320.045 243.154C320.451 243.976 323.63 250.265 324.295 252.561C324.96 254.856 326.228 267.145 326.871 268.934C327.514 270.723 338.978 285.329 338.978 285.329L316.848 290.748L316.872 290.845Z" fill="#FFBD95"/>
<path d="M287.688 217.685C288.8 217.208 289.618 217.622 290.17 218.204C290.699 218.689 291.624 222.047 291.452 222.602C291.281 223.156 288.693 224.302 288.116 224.033C287.321 223.716 286.394 220.767 286.301 219.971C286.088 219.101 286.382 218.21 287.688 217.685Z" fill="#FFC8A7"/>
<path d="M291.076 250.76C291.076 250.76 294.079 253.405 296.886 256.918C297.318 257.426 297.941 258.298 297.941 258.298C297.941 258.298 297.685 261.434 297.919 262.81C298.057 264.211 299.323 266.871 299.323 266.871C299.323 266.871 297.136 265.051 296.669 261.887C296.294 259.521 296.18 258.217 295.87 257.371C295.182 254.979 291.076 250.76 291.076 250.76Z" fill="#F9A983"/>
<path d="M310.222 238.594C310.222 238.594 311.208 244.294 311.782 245.382C312.379 246.567 313.075 247.319 313.559 247.201C314.235 247.035 313.975 245.972 313.33 244.593C312.588 243.238 310.222 238.594 310.222 238.594Z" fill="#F9A983"/>
<path d="M315.854 241.517C315.854 241.517 316.777 245.285 317.351 246.374C317.925 247.463 318.38 248.068 318.887 248.047C319.394 248.025 319.445 247.398 319.039 246.575C318.347 245.003 315.854 241.517 315.854 241.517Z" fill="#F9A983"/>
<path d="M300.98 243.52C300.98 243.52 301.505 244.826 302.491 245.506C303.477 246.187 303.96 246.068 303.96 246.068L303.796 244.982C303.796 244.982 303.049 244.858 302.374 244.613C301.483 244.319 300.98 243.52 300.98 243.52Z" fill="#F9A983"/>
<path d="M287.995 223.96C288.573 224.229 291.087 223.203 291.356 222.625C291.018 222.503 290.198 222.499 289.352 222.809C288.433 223.239 288.141 223.72 287.995 223.96Z" fill="#FFD3B9"/>
<path d="M314.625 281.254C311.836 279.069 308.006 277.651 304.47 275.342C301.031 273.008 296.28 267.411 295.515 265.96C292.907 261.17 289.117 256.566 287.939 255.523C285.488 253.46 287.859 252.265 285.076 253.869C285.557 254.16 286.062 254.549 286.543 254.841C287.6 255.811 291.844 261.43 294.523 266.51C294.905 267.236 301.408 274.965 303.186 276.373C304.46 277.393 307.393 279.747 309.292 281.229C311.192 282.71 316.895 290.941 316.895 290.941L321.147 289.9C319.52 287.021 316.548 282.832 314.625 281.254Z" fill="#F9A983"/>
<path d="M286.015 254.356C286.208 254.308 286.745 253.153 286.601 252.983C286.553 252.79 283.739 250.918 282.725 250.962C281.712 251.005 280.986 251.388 281.057 251.677C281.128 251.967 285.725 254.427 286.015 254.356Z" fill="#FFC8A7"/>
<path d="M324.512 252.61C323.824 250.218 320.765 244.002 320.262 243.203C319.856 242.38 318.97 240.856 317.716 240.753C316.461 240.651 315.854 241.517 315.854 241.517C315.854 241.517 315.306 240.114 315.067 239.558C314.325 238.203 313.436 237.499 312.132 237.614C310.925 237.704 310.221 238.594 310.221 238.594C310.221 238.594 310.006 238.134 309.551 237.529C307.007 244.708 306.413 252.74 308.377 260.761C311.383 273.034 319.662 282.581 330.111 287.603L339.098 285.402C339.098 285.402 327.731 270.772 326.991 269.007C326.348 267.218 325.2 255.002 324.512 252.61Z" fill="#FFC6A3"/>
</g>
<defs>
<filter id="filter0_d" x="2" y="16" width="367" height="273" filterUnits="userSpaceOnUse" color-interpolation-filters="sRGB">
<feFlood flood-opacity="0" result="BackgroundImageFix"/>
<feColorMatrix in="SourceAlpha" type="matrix" values="0 0 0 0 0 0 0 0 0 0 0 0 0 0 0 0 0 0 127 0"/>
<feOffset/>
<feGaussianBlur stdDeviation="12"/>
<feColorMatrix type="matrix" values="0 0 0 0 0.941176 0 0 0 0 0.768627 0 0 0 0 0.890196 0 0 0 0.64 0"/>
<feBlend mode="normal" in2="BackgroundImageFix" result="effect1_dropShadow"/>
<feBlend mode="normal" in="SourceGraphic" in2="effect1_dropShadow" result="shape"/>
</filter>
<linearGradient id="paint0_linear" x1="85.0503" y1="233.622" x2="85.1578" y2="222.487" gradientUnits="userSpaceOnUse">
<stop offset="0.0354" stop-color="#C9F5FE"/>
<stop offset="1" stop-color="#F3FDFE"/>
</linearGradient>
</defs>
</svg>
