<svg width="371" height="265" viewBox="0 0 371 265" fill="none" xmlns="http://www.w3.org/2000/svg">
<rect width="371" height="265" rx="8" fill="#E4F9F4"/>
<mask id="mask0" mask-type="alpha" maskUnits="userSpaceOnUse" x="0" y="0" width="371" height="265">
<rect width="371" height="265" fill="#FFF2E6"/>
</mask>
<g mask="url(#mask0)">
<circle opacity="0.5" cx="27" cy="39" r="66.5" stroke="#C7EFE4" stroke-width="19"/>
<circle opacity="0.5" cx="357" cy="143" r="66.5" stroke="#C7EFE4" stroke-width="19"/>
<g filter="url(#filter0_d)">
<path d="M26 53C26 45.8203 31.8203 40 39 40H332C339.18 40 345 45.8203 345 53V265H26V53Z" fill="white"/>
</g>
<rect x="53.5" y="84.5" width="265" height="54" rx="13.5" fill="white"/>
<path d="M152.648 112.56H157.765V114.26H152.648V112.56ZM164.767 112.56H169.884V114.26H164.767V112.56ZM176.886 112.56H182.003V114.26H176.886V112.56ZM189.006 112.56H194.123V114.26H189.006V112.56ZM201.125 112.56H206.242V114.26H201.125V112.56ZM213.244 112.56H218.361V114.26H213.244V112.56Z" fill="#1C1C50"/>
<rect x="53.5" y="84.5" width="265" height="54" rx="13.5" stroke="#BDC7D2"/>
<rect x="53.5" y="163.5" width="265" height="54" rx="13.5" fill="white"/>
<path d="M174.494 185.184L168.788 198H166.898L161.192 185.184H163.604L167.87 195.084L172.136 185.184H174.494ZM182.452 193.572H176.188C176.236 194.544 176.476 195.264 176.908 195.732C177.352 196.188 178.006 196.416 178.87 196.416C179.866 196.416 180.79 196.092 181.642 195.444L182.29 196.992C181.858 197.34 181.324 197.622 180.688 197.838C180.064 198.042 179.428 198.144 178.78 198.144C177.292 198.144 176.122 197.724 175.27 196.884C174.418 196.044 173.992 194.892 173.992 193.428C173.992 192.504 174.178 191.682 174.55 190.962C174.922 190.242 175.444 189.684 176.116 189.288C176.788 188.88 177.55 188.676 178.402 188.676C179.65 188.676 180.634 189.084 181.354 189.9C182.086 190.704 182.452 191.814 182.452 193.23V193.572ZM178.456 190.296C177.856 190.296 177.364 190.476 176.98 190.836C176.608 191.184 176.368 191.694 176.26 192.366H180.49C180.418 191.682 180.208 191.166 179.86 190.818C179.524 190.47 179.056 190.296 178.456 190.296ZM189.254 188.694C189.602 188.694 189.902 188.742 190.154 188.838L190.136 190.89C189.752 190.734 189.356 190.656 188.948 190.656C188.18 190.656 187.592 190.878 187.184 191.322C186.788 191.766 186.59 192.354 186.59 193.086V198H184.358V191.484C184.358 190.524 184.31 189.666 184.214 188.91H186.32L186.5 190.512C186.728 189.924 187.088 189.474 187.58 189.162C188.072 188.85 188.63 188.694 189.254 188.694ZM191.407 188.91H193.639V198H191.407V188.91ZM193.765 184.788V187.002H191.263V184.788H193.765ZM200.402 186.534C199.43 186.534 198.944 187.068 198.944 188.136V188.91H200.978V190.602H198.944V198H196.694V190.602H194.966V188.91H196.694V188.028C196.694 186.948 196.964 186.12 197.504 185.544C198.056 184.956 198.842 184.662 199.862 184.662C200.426 184.662 200.9 184.734 201.284 184.878V186.66C200.948 186.576 200.654 186.534 200.402 186.534ZM211.7 188.91L207.47 198.612C206.99 199.74 206.378 200.562 205.634 201.078C204.89 201.594 203.972 201.936 202.88 202.104L202.376 200.376C203.228 200.184 203.864 199.938 204.284 199.638C204.716 199.35 205.064 198.918 205.328 198.342L205.616 197.676L201.836 188.91H204.194L206.804 195.444L209.468 188.91H211.7Z" fill="url(#paint0_linear)"/>
<rect x="53.5" y="163.5" width="265" height="54" rx="13.5" stroke="url(#paint1_linear)"/>
<g opacity="0.3">
<path d="M286.688 202.557C279.195 204.392 271.734 199.702 269.946 192.402C268.111 184.909 272.8 177.448 280.101 175.66C287.401 173.872 295.055 178.514 296.843 185.815C298.678 193.307 294.181 200.722 286.688 202.557ZM280.807 178.542C274.851 180 271.224 185.979 272.683 191.935C274.141 197.891 280.121 201.518 286.076 200.059C292.032 198.601 295.659 192.621 294.2 186.666C292.549 180.757 286.762 177.083 280.807 178.542Z" fill="#12E1FF"/>
<path d="M288.146 208.513C277.387 211.147 266.625 204.619 263.99 193.86C261.355 183.102 267.883 172.339 278.642 169.704C289.401 167.069 300.163 173.597 302.798 184.356C305.433 195.115 298.905 205.878 288.146 208.513ZM279.583 173.547C270.938 175.664 265.57 184.513 267.687 193.159C269.805 201.804 278.654 207.172 287.299 205.054C295.945 202.937 301.312 194.088 299.195 185.442C296.839 176.652 288.228 171.429 279.583 173.547Z" fill="#12E1FF"/>
</g>
<path d="M320.841 282.504C320.841 282.504 313.257 271.558 310.731 269.588C308.206 267.619 304.306 264.487 302.612 263.132C300.247 261.259 291.6 250.981 291.091 250.016C287.53 243.261 281.886 235.789 280.481 234.499C278.021 232.241 273.468 231.449 273.701 229.621C273.935 227.793 279.534 224.515 284.365 227.555C289.324 230.563 295.668 239.225 295.668 239.225C295.668 239.225 294.666 234.022 293.591 230.744C292.515 227.465 287.003 212.743 285.83 209.625C284.787 206.475 280.515 194.036 280.171 192.077C279.827 190.118 278.658 186.455 281.904 185.251C284.894 184.11 286.58 187.102 287.913 190.318C289.245 193.533 292.599 203.336 294.249 207.29C295.867 211.117 298.686 218.735 299.963 220.057C301.24 221.379 303.325 221.549 303.325 221.549C303.325 221.549 303.058 217.12 302.971 215.098C302.879 214.167 302.609 210.283 306.367 209.499C309.868 208.777 311.709 212.958 311.709 212.958C311.709 212.958 312.646 211.775 314.251 211.654C315.984 211.502 317.135 212.31 318.153 214.24C318.47 214.98 319.199 216.844 319.199 216.844C319.199 216.844 320.167 215.79 321.675 215.829C323.343 215.966 324.392 218.024 325.061 219.086C325.601 220.18 329.828 228.543 330.712 231.596C331.596 234.648 333.282 250.989 334.137 253.368C334.992 255.746 350.237 275.169 350.237 275.169L320.81 282.375L320.841 282.504Z" fill="#FFBD95"/>
<path d="M282.033 185.219C283.512 184.585 284.601 185.136 285.335 185.909C286.038 186.554 287.268 191.02 287.04 191.757C286.811 192.494 283.371 194.018 282.602 193.661C281.545 193.239 280.313 189.318 280.19 188.259C279.906 187.102 280.297 185.917 282.033 185.219Z" fill="#FFC8A7"/>
<path d="M286.539 229.202C286.539 229.202 290.533 232.718 294.265 237.389C294.839 238.066 295.668 239.225 295.668 239.225C295.668 239.225 295.327 243.395 295.639 245.225C295.822 247.087 297.506 250.625 297.506 250.625C297.506 250.625 294.598 248.204 293.976 243.998C293.478 240.851 293.326 239.117 292.914 237.992C291.999 234.811 286.539 229.202 286.539 229.202Z" fill="#F9A983"/>
<path d="M311.998 213.023C311.998 213.023 313.309 220.602 314.072 222.05C314.867 223.626 315.793 224.625 316.435 224.468C317.335 224.248 316.989 222.834 316.131 221.001C315.145 219.199 311.998 213.023 311.998 213.023Z" fill="#F9A983"/>
<path d="M319.487 216.91C319.487 216.91 320.715 221.921 321.478 223.369C322.241 224.817 322.847 225.622 323.521 225.593C324.195 225.564 324.263 224.73 323.723 223.636C322.802 221.546 319.487 216.91 319.487 216.91Z" fill="#F9A983"/>
<path d="M299.709 219.574C299.709 219.574 300.407 221.31 301.718 222.215C303.029 223.12 303.672 222.962 303.672 222.962L303.454 221.517C303.454 221.517 302.46 221.352 301.563 221.027C300.378 220.636 299.709 219.574 299.709 219.574Z" fill="#F9A983"/>
<path d="M282.442 193.564C283.21 193.921 286.554 192.557 286.911 191.789C286.462 191.626 285.371 191.621 284.246 192.033C283.024 192.604 282.636 193.244 282.442 193.564Z" fill="#FFD3B9"/>
<path d="M317.854 269.751C314.145 266.845 309.053 264.959 304.35 261.888C299.777 258.786 293.459 251.343 292.442 249.413C288.975 243.043 283.934 236.922 282.368 235.535C279.109 232.792 282.261 231.202 278.561 233.335C279.2 233.723 279.872 234.239 280.512 234.627C281.917 235.918 287.561 243.389 291.122 250.145C291.631 251.11 300.278 261.387 302.643 263.26C304.337 264.616 308.237 267.747 310.762 269.717C313.288 271.686 320.872 282.632 320.872 282.632L326.526 281.248C324.363 277.419 320.411 271.849 317.854 269.751Z" fill="#F9A983"/>
<path d="M279.809 233.982C280.066 233.919 280.78 232.383 280.588 232.157C280.525 231.9 276.783 229.411 275.435 229.469C274.087 229.527 273.122 230.035 273.216 230.421C273.311 230.806 279.424 234.077 279.809 233.982Z" fill="#FFC8A7"/>
<path d="M331.001 231.661C330.085 228.48 326.018 220.214 325.349 219.152C324.809 218.058 323.631 216.031 321.963 215.895C320.296 215.758 319.488 216.91 319.488 216.91C319.488 216.91 318.759 215.045 318.441 214.305C317.455 212.504 316.273 211.568 314.539 211.72C312.934 211.84 311.998 213.023 311.998 213.023C311.998 213.023 311.712 212.412 311.106 211.607C307.723 221.153 306.934 231.834 309.546 242.5C313.543 258.82 324.552 271.515 338.446 278.192L350.397 275.266C350.397 275.266 335.281 255.812 334.297 253.465C333.442 251.086 331.916 234.842 331.001 231.661Z" fill="#FFC6A3"/>
</g>
<defs>
<filter id="filter0_d" x="2" y="16" width="367" height="273" filterUnits="userSpaceOnUse" color-interpolation-filters="sRGB">
<feFlood flood-opacity="0" result="BackgroundImageFix"/>
<feColorMatrix in="SourceAlpha" type="matrix" values="0 0 0 0 0 0 0 0 0 0 0 0 0 0 0 0 0 0 127 0"/>
<feOffset/>
<feGaussianBlur stdDeviation="12"/>
<feColorMatrix type="matrix" values="0 0 0 0 0.771294 0 0 0 0 0.946353 0 0 0 0 0.898212 0 0 0 1 0"/>
<feBlend mode="normal" in2="BackgroundImageFix" result="effect1_dropShadow"/>
<feBlend mode="normal" in="SourceGraphic" in2="effect1_dropShadow" result="shape"/>
</filter>
<linearGradient id="paint0_linear" x1="186.5" y1="180" x2="186.5" y2="203" gradientUnits="userSpaceOnUse">
<stop stop-color="#41FFFF"/>
<stop offset="1" stop-color="#12E1FF"/>
</linearGradient>
<linearGradient id="paint1_linear" x1="186" y1="163" x2="186" y2="218" gradientUnits="userSpaceOnUse">
<stop stop-color="#41FFFF"/>
<stop offset="1" stop-color="#12E1FF"/>
</linearGradient>
</defs>
</svg>
