<svg width="379" height="273" viewBox="0 0 379 273" fill="none" xmlns="http://www.w3.org/2000/svg">
<rect x="4" width="371" height="265" rx="8" fill="#E4E0F7"/>
<mask id="mask0" mask-type="alpha" maskUnits="userSpaceOnUse" x="4" y="0" width="371" height="265">
<rect x="4" width="371" height="265" fill="#FFF2E6"/>
</mask>
<g mask="url(#mask0)">
<circle opacity="0.5" cx="31" cy="39" r="66.5" stroke="#CDC6F4" stroke-width="19"/>
<circle opacity="0.5" cx="361" cy="143" r="66.5" stroke="#CDC6F4" stroke-width="19"/>
<g filter="url(#filter0_d)">
<path d="M30 53C30 45.8203 35.8203 40 43 40H336C343.18 40 349 45.8203 349 53V265H30V53Z" fill="white"/>
</g>
<rect x="57.5" y="124.5" width="265" height="54" rx="13.5" fill="white"/>
<path d="M144.35 155.161H138.434L137.21 158H135L140.474 145.896H142.259L147.75 158H145.557L144.35 155.161ZM143.619 153.461L141.392 148.276L139.165 153.461H143.619ZM152.82 147.171C151.902 147.171 151.443 147.675 151.443 148.684V149.415H153.364V151.013H151.443V158H149.318V151.013H147.686V149.415H149.318V148.582C149.318 147.562 149.573 146.78 150.083 146.236C150.604 145.681 151.346 145.403 152.31 145.403C152.842 145.403 153.29 145.471 153.653 145.607V147.29C153.335 147.211 153.058 147.171 152.82 147.171ZM158.061 158.136C156.508 158.136 155.273 157.773 154.355 157.048L154.95 155.552C155.868 156.232 156.916 156.572 158.095 156.572C158.605 156.572 158.996 156.487 159.268 156.317C159.551 156.147 159.693 155.909 159.693 155.603C159.693 155.342 159.596 155.138 159.404 154.991C159.211 154.832 158.882 154.696 158.418 154.583L156.99 154.26C155.426 153.92 154.644 153.121 154.644 151.863C154.644 151.342 154.791 150.883 155.086 150.486C155.38 150.078 155.794 149.761 156.327 149.534C156.859 149.307 157.477 149.194 158.18 149.194C158.792 149.194 159.381 149.29 159.948 149.483C160.514 149.664 161.013 149.931 161.444 150.282L160.815 151.727C159.953 151.092 159.069 150.775 158.163 150.775C157.675 150.775 157.296 150.866 157.024 151.047C156.752 151.228 156.616 151.478 156.616 151.795C156.616 152.044 156.695 152.243 156.854 152.39C157.024 152.537 157.307 152.662 157.704 152.764L159.166 153.087C160.016 153.28 160.633 153.58 161.019 153.988C161.415 154.385 161.614 154.906 161.614 155.552C161.614 156.345 161.296 156.974 160.662 157.439C160.027 157.904 159.16 158.136 158.061 158.136ZM171.643 149.415V158H169.552V156.623C169.292 157.099 168.918 157.473 168.43 157.745C167.943 158.006 167.388 158.136 166.764 158.136C166.016 158.136 165.353 157.955 164.775 157.592C164.197 157.229 163.75 156.714 163.432 156.045C163.115 155.376 162.956 154.6 162.956 153.716C162.956 152.832 163.115 152.05 163.432 151.37C163.761 150.679 164.214 150.146 164.792 149.772C165.37 149.387 166.028 149.194 166.764 149.194C167.388 149.194 167.943 149.33 168.43 149.602C168.918 149.863 169.292 150.231 169.552 150.707V149.415H171.643ZM167.342 156.47C168.045 156.47 168.589 156.226 168.974 155.739C169.36 155.252 169.552 154.566 169.552 153.682C169.552 152.775 169.36 152.078 168.974 151.591C168.589 151.104 168.039 150.86 167.325 150.86C166.623 150.86 166.073 151.115 165.676 151.625C165.291 152.124 165.098 152.821 165.098 153.716C165.098 154.6 165.291 155.28 165.676 155.756C166.073 156.232 166.628 156.47 167.342 156.47ZM178.582 149.211C178.91 149.211 179.194 149.256 179.432 149.347L179.415 151.285C179.052 151.138 178.678 151.064 178.293 151.064C177.567 151.064 177.012 151.274 176.627 151.693C176.253 152.112 176.066 152.668 176.066 153.359V158H173.958V151.846C173.958 150.939 173.912 150.129 173.822 149.415H175.811L175.981 150.928C176.196 150.373 176.536 149.948 177.001 149.653C177.465 149.358 177.992 149.211 178.582 149.211ZM195.973 145.896V158H193.797V152.747H187.592V158H185.433V145.896H187.592V150.962H193.797V145.896H195.973ZM202.338 158.136C201.465 158.136 200.695 157.955 200.026 157.592C199.369 157.229 198.859 156.714 198.496 156.045C198.145 155.365 197.969 154.572 197.969 153.665C197.969 152.758 198.145 151.971 198.496 151.302C198.859 150.622 199.369 150.101 200.026 149.738C200.695 149.375 201.465 149.194 202.338 149.194C203.199 149.194 203.959 149.375 204.616 149.738C205.273 150.101 205.778 150.622 206.129 151.302C206.492 151.971 206.673 152.758 206.673 153.665C206.673 154.572 206.492 155.365 206.129 156.045C205.778 156.714 205.273 157.229 204.616 157.592C203.959 157.955 203.199 158.136 202.338 158.136ZM202.321 156.47C203.046 156.47 203.596 156.238 203.97 155.773C204.355 155.297 204.548 154.594 204.548 153.665C204.548 152.747 204.355 152.05 203.97 151.574C203.585 151.087 203.041 150.843 202.338 150.843C201.624 150.843 201.074 151.087 200.689 151.574C200.304 152.05 200.111 152.747 200.111 153.665C200.111 154.594 200.298 155.297 200.672 155.773C201.057 156.238 201.607 156.47 202.321 156.47ZM211.651 158.136C210.098 158.136 208.863 157.773 207.945 157.048L208.54 155.552C209.458 156.232 210.506 156.572 211.685 156.572C212.195 156.572 212.586 156.487 212.858 156.317C213.141 156.147 213.283 155.909 213.283 155.603C213.283 155.342 213.186 155.138 212.994 154.991C212.801 154.832 212.472 154.696 212.008 154.583L210.58 154.26C209.016 153.92 208.234 153.121 208.234 151.863C208.234 151.342 208.381 150.883 208.676 150.486C208.97 150.078 209.384 149.761 209.917 149.534C210.449 149.307 211.067 149.194 211.77 149.194C212.382 149.194 212.971 149.29 213.538 149.483C214.104 149.664 214.603 149.931 215.034 150.282L214.405 151.727C213.543 151.092 212.659 150.775 211.753 150.775C211.265 150.775 210.886 150.866 210.614 151.047C210.342 151.228 210.206 151.478 210.206 151.795C210.206 152.044 210.285 152.243 210.444 152.39C210.614 152.537 210.897 152.662 211.294 152.764L212.756 153.087C213.606 153.28 214.223 153.58 214.609 153.988C215.005 154.385 215.204 154.906 215.204 155.552C215.204 156.345 214.886 156.974 214.252 157.439C213.617 157.904 212.75 158.136 211.651 158.136ZM220.167 158.136C218.615 158.136 217.379 157.773 216.461 157.048L217.056 155.552C217.974 156.232 219.023 156.572 220.201 156.572C220.711 156.572 221.102 156.487 221.374 156.317C221.658 156.147 221.799 155.909 221.799 155.603C221.799 155.342 221.703 155.138 221.51 154.991C221.318 154.832 220.989 154.696 220.524 154.583L219.096 154.26C217.532 153.92 216.75 153.121 216.75 151.863C216.75 151.342 216.898 150.883 217.192 150.486C217.487 150.078 217.901 149.761 218.433 149.534C218.966 149.307 219.584 149.194 220.286 149.194C220.898 149.194 221.488 149.29 222.054 149.483C222.621 149.664 223.12 149.931 223.55 150.282L222.921 151.727C222.06 151.092 221.176 150.775 220.269 150.775C219.782 150.775 219.402 150.866 219.13 151.047C218.858 151.228 218.722 151.478 218.722 151.795C218.722 152.044 218.802 152.243 218.96 152.39C219.13 152.537 219.414 152.662 219.81 152.764L221.272 153.087C222.122 153.28 222.74 153.58 223.125 153.988C223.522 154.385 223.72 154.906 223.72 155.552C223.72 156.345 223.403 156.974 222.768 157.439C222.134 157.904 221.267 158.136 220.167 158.136ZM233.053 153.818H227.137C227.182 154.736 227.409 155.416 227.817 155.858C228.236 156.289 228.854 156.504 229.67 156.504C230.61 156.504 231.483 156.198 232.288 155.586L232.9 157.048C232.492 157.377 231.987 157.643 231.387 157.847C230.797 158.04 230.197 158.136 229.585 158.136C228.179 158.136 227.074 157.739 226.27 156.946C225.465 156.153 225.063 155.065 225.063 153.682C225.063 152.809 225.238 152.033 225.59 151.353C225.941 150.673 226.434 150.146 227.069 149.772C227.703 149.387 228.423 149.194 229.228 149.194C230.406 149.194 231.336 149.579 232.016 150.35C232.707 151.109 233.053 152.158 233.053 153.495V153.818ZM229.279 150.724C228.712 150.724 228.247 150.894 227.885 151.234C227.533 151.563 227.307 152.044 227.205 152.679H231.2C231.132 152.033 230.933 151.546 230.605 151.217C230.287 150.888 229.845 150.724 229.279 150.724ZM239.765 149.194C241.817 149.194 242.842 150.373 242.842 152.73V158H240.717V152.832C240.717 152.152 240.587 151.659 240.326 151.353C240.066 151.036 239.663 150.877 239.119 150.877C238.473 150.877 237.952 151.087 237.555 151.506C237.159 151.914 236.96 152.458 236.96 153.138V158H234.852V151.846C234.852 150.939 234.807 150.129 234.716 149.415H236.705L236.858 150.826C237.153 150.305 237.55 149.902 238.048 149.619C238.558 149.336 239.131 149.194 239.765 149.194Z" fill="#1C1C50"/>
<rect x="57.5" y="124.5" width="265" height="54" rx="13.5" stroke="#BDC7D2"/>
<rect x="57.5" y="191.401" width="265" height="54" rx="13.5" fill="white"/>
<path d="M172.386 213.085H177.948C179.328 213.085 180.402 213.421 181.17 214.093C181.938 214.753 182.322 215.659 182.322 216.811C182.322 217.963 181.932 218.875 181.152 219.547C180.384 220.219 179.316 220.555 177.948 220.555H174.708V225.901H172.386V213.085ZM177.678 218.755C178.482 218.755 179.088 218.593 179.496 218.269C179.916 217.933 180.126 217.453 180.126 216.829C180.126 216.193 179.922 215.713 179.514 215.389C179.106 215.053 178.494 214.885 177.678 214.885H174.708V218.755H177.678ZM184.212 212.653H186.444V225.901H184.212V212.653ZM197.6 216.811V225.901H195.386V224.443C195.11 224.947 194.714 225.343 194.198 225.631C193.682 225.907 193.094 226.045 192.434 226.045C191.642 226.045 190.94 225.853 190.328 225.469C189.716 225.085 189.242 224.539 188.906 223.831C188.57 223.123 188.402 222.301 188.402 221.365C188.402 220.429 188.57 219.601 188.906 218.881C189.254 218.149 189.734 217.585 190.346 217.189C190.958 216.781 191.654 216.577 192.434 216.577C193.094 216.577 193.682 216.721 194.198 217.009C194.714 217.285 195.11 217.675 195.386 218.179V216.811H197.6ZM193.046 224.281C193.79 224.281 194.366 224.023 194.774 223.507C195.182 222.991 195.386 222.265 195.386 221.329C195.386 220.369 195.182 219.631 194.774 219.115C194.366 218.599 193.784 218.341 193.028 218.341C192.284 218.341 191.702 218.611 191.282 219.151C190.874 219.679 190.67 220.417 190.67 221.365C190.67 222.301 190.874 223.021 191.282 223.525C191.702 224.029 192.29 224.281 193.046 224.281ZM208.654 216.811L204.424 226.513C203.944 227.641 203.332 228.463 202.588 228.979C201.844 229.495 200.926 229.837 199.834 230.005L199.33 228.277C200.182 228.085 200.818 227.839 201.238 227.539C201.67 227.251 202.018 226.819 202.282 226.243L202.57 225.577L198.79 216.811H201.148L203.758 223.345L206.422 216.811H208.654Z" fill="url(#paint0_linear)"/>
<rect x="57.5" y="191.401" width="265" height="54" rx="13.5" stroke="url(#paint1_linear)"/>
<g opacity="0.3">
<path d="M295.187 230.723C289.553 232.103 283.942 228.576 282.597 223.086C281.217 217.452 284.743 211.84 290.234 210.496C295.724 209.151 301.479 212.642 302.824 218.133C304.204 223.767 300.822 229.343 295.187 230.723ZM290.764 212.663C286.286 213.76 283.558 218.257 284.655 222.735C285.752 227.214 290.248 229.942 294.727 228.845C299.206 227.748 301.934 223.251 300.837 218.772C299.595 214.329 295.243 211.566 290.764 212.663Z" fill="#12E1FF"/>
<path d="M296.284 235.202C288.193 237.183 280.1 232.274 278.118 224.183C276.137 216.092 281.046 207.999 289.137 206.017C297.228 204.036 305.321 208.945 307.303 217.036C309.284 225.127 304.375 233.22 296.284 235.202ZM289.844 208.907C283.343 210.499 279.306 217.154 280.899 223.655C282.491 230.157 289.146 234.193 295.647 232.601C302.149 231.009 306.185 224.354 304.593 217.853C302.821 211.242 296.346 207.314 289.844 208.907Z" fill="#12E1FF"/>
</g>
<path d="M320.872 290.845C320.872 290.845 315.168 282.613 313.269 281.132C311.37 279.651 308.437 277.296 307.163 276.276C305.384 274.868 298.882 267.139 298.499 266.414C295.821 261.333 291.577 255.715 290.52 254.744C288.67 253.046 285.246 252.451 285.422 251.076C285.597 249.701 289.808 247.236 293.441 249.522C297.17 251.784 301.941 258.298 301.941 258.298C301.941 258.298 301.187 254.385 300.379 251.92C299.57 249.455 295.425 238.383 294.543 236.038C293.758 233.67 290.545 224.315 290.287 222.842C290.029 221.369 289.149 218.614 291.591 217.709C293.839 216.851 295.107 219.101 296.109 221.519C297.111 223.937 299.633 231.309 300.874 234.283C302.091 237.16 304.211 242.889 305.171 243.883C306.132 244.877 307.7 245.006 307.7 245.006C307.7 245.006 307.498 241.675 307.433 240.154C307.364 239.454 307.161 236.533 309.987 235.943C312.62 235.401 314.005 238.545 314.005 238.545C314.005 238.545 314.709 237.655 315.916 237.564C317.219 237.45 318.085 238.058 318.85 239.509C319.089 240.065 319.637 241.467 319.637 241.467C319.637 241.467 320.365 240.675 321.499 240.704C322.753 240.807 323.542 242.355 324.045 243.154C324.451 243.976 327.63 250.265 328.295 252.561C328.96 254.857 330.228 267.145 330.871 268.934C331.514 270.723 342.978 285.329 342.978 285.329L320.848 290.748L320.872 290.845Z" fill="#FFBD95"/>
<path d="M291.688 217.685C292.8 217.208 293.618 217.622 294.17 218.204C294.699 218.689 295.624 222.047 295.452 222.602C295.281 223.156 292.693 224.302 292.116 224.033C291.321 223.716 290.394 220.768 290.301 219.971C290.088 219.101 290.382 218.21 291.688 217.685Z" fill="#FFC8A7"/>
<path d="M295.076 250.76C295.076 250.76 298.079 253.405 300.886 256.918C301.318 257.426 301.941 258.298 301.941 258.298C301.941 258.298 301.685 261.434 301.919 262.81C302.057 264.211 303.323 266.871 303.323 266.871C303.323 266.871 301.136 265.051 300.669 261.887C300.294 259.521 300.18 258.217 299.87 257.371C299.182 254.979 295.076 250.76 295.076 250.76Z" fill="#F9A983"/>
<path d="M314.222 238.594C314.222 238.594 315.208 244.294 315.782 245.382C316.379 246.568 317.075 247.319 317.559 247.201C318.235 247.035 317.975 245.972 317.33 244.593C316.588 243.239 314.222 238.594 314.222 238.594Z" fill="#F9A983"/>
<path d="M319.854 241.517C319.854 241.517 320.777 245.286 321.351 246.374C321.925 247.463 322.38 248.068 322.887 248.047C323.394 248.025 323.445 247.398 323.039 246.575C322.347 245.004 319.854 241.517 319.854 241.517Z" fill="#F9A983"/>
<path d="M304.98 243.52C304.98 243.52 305.505 244.826 306.491 245.506C307.477 246.187 307.96 246.069 307.96 246.069L307.796 244.982C307.796 244.982 307.049 244.858 306.374 244.613C305.483 244.319 304.98 243.52 304.98 243.52Z" fill="#F9A983"/>
<path d="M291.995 223.96C292.573 224.229 295.087 223.203 295.356 222.625C295.018 222.503 294.198 222.499 293.352 222.809C292.433 223.239 292.141 223.72 291.995 223.96Z" fill="#FFD3B9"/>
<path d="M318.625 281.254C315.836 279.069 312.006 277.651 308.47 275.342C305.031 273.009 300.28 267.412 299.515 265.96C296.907 261.17 293.117 256.567 291.939 255.523C289.488 253.46 291.859 252.265 289.076 253.869C289.557 254.16 290.062 254.549 290.543 254.841C291.6 255.811 295.844 261.43 298.523 266.51C298.905 267.236 305.408 274.965 307.186 276.373C308.46 277.393 311.393 279.747 313.292 281.229C315.192 282.71 320.895 290.942 320.895 290.942L325.147 289.9C323.52 287.021 320.548 282.832 318.625 281.254Z" fill="#F9A983"/>
<path d="M290.015 254.356C290.208 254.308 290.745 253.153 290.601 252.983C290.553 252.79 287.739 250.918 286.725 250.962C285.712 251.005 284.986 251.388 285.057 251.677C285.128 251.967 289.725 254.427 290.015 254.356Z" fill="#FFC8A7"/>
<path d="M328.512 252.61C327.824 250.218 324.765 244.002 324.262 243.203C323.856 242.38 322.97 240.856 321.716 240.753C320.461 240.651 319.854 241.517 319.854 241.517C319.854 241.517 319.306 240.114 319.067 239.558C318.325 238.203 317.436 237.499 316.132 237.614C314.925 237.704 314.221 238.594 314.221 238.594C314.221 238.594 314.006 238.134 313.551 237.529C311.007 244.708 310.413 252.74 312.377 260.761C315.383 273.034 323.662 282.581 334.111 287.603L343.098 285.402C343.098 285.402 331.731 270.772 330.991 269.007C330.348 267.218 329.2 255.002 328.512 252.61Z" fill="#FFC6A3"/>
</g>
<circle cx="190" cy="81" r="25" fill="#8391A0"/>
<path d="M190.002 62.515C184.505 62.515 180.01 67.0093 180.01 72.5072C180.01 78.0051 184.505 82.4993 190.002 82.4993C195.5 82.4993 199.995 78.0051 199.995 72.5072C199.995 67.0093 195.5 62.515 190.002 62.515Z" fill="white"/>
<path d="M207.15 90.4843C206.889 89.8298 206.54 89.2189 206.147 88.6517C204.14 85.6845 201.042 83.721 197.551 83.241C197.115 83.1974 196.635 83.2846 196.286 83.5465C194.453 84.8991 192.271 85.5972 190.002 85.5972C187.733 85.5972 185.552 84.8991 183.719 83.5465C183.37 83.2846 182.89 83.1538 182.454 83.241C178.963 83.721 175.821 85.6845 173.858 88.6517C173.465 89.2189 173.116 89.8734 172.854 90.4843C172.724 90.7461 172.767 91.0515 172.898 91.3134C173.247 91.9242 173.683 92.5352 174.076 93.0587C174.687 93.8878 175.341 94.6295 176.083 95.3277C176.694 95.9385 177.392 96.5058 178.09 97.073C181.538 99.6474 185.683 101 189.959 101C194.235 101 198.38 99.6474 201.827 97.073C202.525 96.5494 203.223 95.9385 203.834 95.3277C204.533 94.6295 205.231 93.8877 205.842 93.0587C206.278 92.4915 206.671 91.9242 207.02 91.3134C207.238 91.0515 207.281 90.746 207.15 90.4843Z" fill="white"/>
<defs>
<filter id="filter0_d" x="6" y="16" width="367" height="273" filterUnits="userSpaceOnUse" color-interpolation-filters="sRGB">
<feFlood flood-opacity="0" result="BackgroundImageFix"/>
<feColorMatrix in="SourceAlpha" type="matrix" values="0 0 0 0 0 0 0 0 0 0 0 0 0 0 0 0 0 0 127 0"/>
<feOffset/>
<feGaussianBlur stdDeviation="12"/>
<feColorMatrix type="matrix" values="0 0 0 0 0.803922 0 0 0 0 0.776471 0 0 0 0 0.956863 0 0 0 0.7 0"/>
<feBlend mode="normal" in2="BackgroundImageFix" result="effect1_dropShadow"/>
<feBlend mode="normal" in="SourceGraphic" in2="effect1_dropShadow" result="shape"/>
</filter>
<linearGradient id="paint0_linear" x1="190" y1="207.901" x2="190" y2="230.901" gradientUnits="userSpaceOnUse">
<stop stop-color="#41FFFF"/>
<stop offset="1" stop-color="#12E1FF"/>
</linearGradient>
<linearGradient id="paint1_linear" x1="190" y1="190.901" x2="190" y2="245.901" gradientUnits="userSpaceOnUse">
<stop stop-color="#41FFFF"/>
<stop offset="1" stop-color="#12E1FF"/>
</linearGradient>
</defs>
</svg>
