<svg width="1440" height="834" viewBox="0 0 1440 834" fill="none" xmlns="http://www.w3.org/2000/svg">
<rect y="3.05176e-05" width="1440" height="834" fill="#F4F2FB"/>
<g opacity="0.3">
<mask id="mask0" mask-type="alpha" maskUnits="userSpaceOnUse" x="0" y="0" width="1440" height="834">
<rect width="1440" height="834" fill="#F4F2FB"/>
</mask>
<g mask="url(#mask0)">
<path d="M1377.46 211.637C1377.46 211.637 1391.11 228.64 1412.8 234.495C1434.48 240.351 1461.29 235.857 1461.29 235.857L1453.21 202.884C1453.22 202.88 1433.44 229.342 1377.46 211.637Z" fill="#FAE0B2"/>
<path d="M1388 198.656L1373.29 209.846L1374.18 228.325C1374.28 230.43 1371.92 231.732 1370.19 230.534L1354.99 219.984L1337.7 226.522C1335.73 227.269 1333.76 225.427 1334.37 223.413L1339.69 205.7L1328.12 191.258C1326.81 189.613 1327.94 187.171 1330.05 187.126L1348.53 186.728L1358.67 171.267C1359.82 169.511 1362.5 169.839 1363.19 171.828L1369.29 189.299L1387.13 194.184C1389.16 194.74 1389.67 197.382 1388 198.656Z" fill="#F7CC7F"/>
<path d="M59.6022 190.922C59.6022 190.922 67.5035 211.243 61.7312 232.952C55.9589 254.662 38.6606 275.622 38.6606 275.622L14.1436 252.141C14.141 252.151 46.9415 248.254 59.6022 190.922Z" fill="#FAE0B2"/>
<path d="M43.0857 193.562L60.1326 186.415L75.6919 196.424C77.4637 197.564 79.7693 196.175 79.5973 194.078L78.0598 175.64L92.3673 163.936C93.9991 162.603 93.3888 159.977 91.3409 159.496L73.3404 155.247L66.6186 138.005C65.8518 136.044 63.1702 135.803 62.0764 137.608L52.4902 153.417L34.0328 154.464C31.9306 154.58 30.8813 157.066 32.2579 158.659L44.3317 172.677L39.6441 190.566C39.1132 192.611 41.1487 194.381 43.0857 193.562Z" fill="#F7CC7F"/>
<path d="M1355.97 54.9729L1346.09 54.8585L1340.4 62.9419C1339.75 63.8647 1338.32 63.6398 1337.99 62.5593L1335.03 53.1192L1325.59 50.1969C1324.51 49.8608 1324.28 48.4386 1325.2 47.7899L1333.26 42.0663L1333.11 32.1782C1333.09 31.0499 1334.37 30.3927 1335.27 31.0681L1343.21 36.9686L1352.56 33.7815C1353.62 33.4181 1354.65 34.4316 1354.29 35.5051L1351.14 44.8765L1357.07 52.7906C1357.75 53.6991 1357.09 54.9837 1355.97 54.9729Z" fill="#466EB6"/>
<path d="M759.973 14.9728L750.085 14.8584L744.398 22.9418C743.751 23.8646 742.325 23.6397 741.992 22.5592L739.035 13.1191L729.586 10.1968C728.511 9.8607 728.28 8.43847 729.202 7.7898L737.257 2.06617L737.107 -7.82193C737.087 -8.95018 738.37 -9.60738 739.275 -8.932L747.21 -3.03152L756.563 -6.21862C757.625 -6.58196 758.65 -5.56847 758.29 -4.495L755.141 4.87641L761.073 12.7905C761.747 13.699 761.093 14.9836 759.973 14.9728Z" fill="#466EB6"/>
<path d="M1338.59 311.27L1351.15 314.976L1355.35 303.517L1367.9 306.62L1373.26 296.168L1383.02 296.953L1383.42 292.014L1370.36 290.962L1365.27 300.865L1352.23 297.637L1348.09 308.907L1336.71 305.549L1338.59 311.27Z" fill="#F48C7F"/>
<path d="M1201.7 113.004L1206.05 132.705L1224.65 129.89L1229.79 149.106L1247.89 148.604L1254.09 162.352L1261.06 159.225L1252.76 140.83L1235.61 141.306L1230.26 121.317L1211.97 124.085L1208.03 106.236L1201.7 113.004Z" fill="#F48C7F"/>
<path d="M868.705 -1.99589L873.054 17.7055L891.649 14.8899L896.792 34.106L914.893 33.604L921.092 47.3515L928.058 44.225L919.765 25.83L902.61 26.3064L897.262 6.31735L878.972 9.08528L875.031 -8.76422L868.705 -1.99589Z" fill="#F48C7F"/>
<path d="M497.275 2.16318L488.71 15.9845L497.797 29.8805L487.092 44.6877L501.332 56.4987L489.965 73.7849L501.734 86.282L493.518 104.71L486.547 101.588L492.693 87.808L480.27 74.6238L491.194 58.0094L476.717 46.0028L488.534 29.6546L479.655 16.0883L487.6 3.28164L479.911 -4.40834L485.303 -9.8087L497.275 2.16318Z" fill="#F7CC7F"/>
<path d="M355.256 57.5314L348.068 47.556L362.816 34.2248L354.102 18.3413L363.503 6.55802L357.538 1.7825L344.96 17.5467L353.216 32.5958L337.876 46.469L348.694 61.4785L355.256 57.5314Z" fill="#50BFA5"/>
<path d="M151.709 113.861L139.55 115.599L134.578 96.3237L116.485 96.6626L110.412 82.8485L103.419 85.9208L111.544 104.398L128.701 104.076L133.87 124.127L152.165 121.518L151.709 113.861Z" fill="#50BFA5"/>
<path d="M278.385 78.2605C273.91 96.5172 255.484 107.68 237.23 103.178C218.979 98.6827 207.805 80.2352 212.286 61.9748C216.761 43.7181 235.187 32.5556 253.441 37.0573C271.692 41.5527 282.86 60.0038 278.385 78.2605Z" fill="#FFF3D9"/>
<path d="M253.384 91.8379L242.289 81.5144L227.501 84.8026C226.308 85.0673 225.321 83.8482 225.841 82.733L232.214 68.9873L224.51 55.9319C223.886 54.8784 224.742 53.5689 225.957 53.7159L240.999 55.5466L251.022 44.1941C251.831 43.2779 253.339 43.6882 253.577 44.8907L256.498 59.7671L270.399 65.8092C271.522 66.3005 271.6 67.8609 270.53 68.4539L257.291 75.8061L255.862 90.8901C255.745 92.1135 254.279 92.6688 253.384 91.8379Z" fill="#FED333"/>
<path d="M1126.44 9.3642C1130.92 -8.89254 1149.34 -20.0549 1167.6 -15.5533C1185.85 -11.0579 1197.02 7.38956 1192.54 25.6499C1188.07 43.9066 1169.64 55.0691 1151.39 50.5675C1133.13 46.0658 1121.96 27.6245 1126.44 9.3642Z" fill="#FFF3D9"/>
<path d="M1151.44 -4.21322L1162.54 6.11652L1177.33 2.82837C1178.52 2.56366 1179.51 3.78277 1178.99 4.89173L1172.61 18.6373L1180.32 31.6928C1180.94 32.7463 1180.09 34.0558 1178.87 33.9087L1163.83 32.078L1153.81 43.4305C1153 44.3467 1151.49 43.9364 1151.25 42.734L1148.33 27.8576L1134.43 21.8217C1133.31 21.3304 1133.23 19.77 1134.3 19.177L1147.54 11.8186L1148.97 -3.26893C1149.08 -4.48881 1150.55 -5.04407 1151.44 -4.21322Z" fill="#FED333"/>
<path d="M1119.83 108.208L1125.41 98.1137C1126.02 97.0223 1125.1 95.7055 1123.87 95.8918L1112.46 97.5942L1104.58 89.1572C1103.73 88.2431 1102.2 88.702 1101.99 89.9375L1100.1 101.322L1089.66 106.204C1088.52 106.733 1088.49 108.332 1089.6 108.908L1099.83 114.24L1101.25 125.698C1101.4 126.941 1102.91 127.467 1103.8 126.588L1112.02 118.499L1123.34 120.696C1124.57 120.936 1125.54 119.662 1124.98 118.547L1119.83 108.208Z" fill="#F47458"/>
<path d="M1396.97 110.447C1400.27 108.544 1404.49 109.677 1406.39 112.977C1408.3 116.278 1407.17 120.498 1403.87 122.402C1400.58 124.305 1396.36 123.172 1394.45 119.871C1392.55 116.561 1393.67 112.351 1396.97 110.447Z" fill="#50BFA5"/>
<path d="M57.4451 27.3936C54.1482 29.2971 49.7996 27.9394 47.7391 24.3706C45.675 20.7954 46.6736 16.3506 49.9704 14.4471C53.2673 12.5437 57.6124 13.8951 59.6801 17.4764C61.7405 21.0453 60.742 25.4902 57.4451 27.3936Z" fill="#F47458"/>
<path d="M751.729 195.273L754.711 204.009C754.711 204.009 766.68 212.389 769.764 211.773C772.849 211.157 778.557 207.328 779.9 208.791C781.243 210.253 783.038 213.693 779.835 217.256C777.511 219.837 766.636 221.798 766.264 223.053C766.037 223.841 767.601 228.911 768.814 232.595C769.606 235.016 768.964 237.691 767.147 239.522L767.14 239.526C765.913 240.767 763.979 241.002 762.501 240.083L760.206 238.655L758.614 240.863C757.43 242.512 755.129 242.917 753.464 241.773L751.762 240.61L750.873 242.063C749.728 243.939 747.2 244.425 745.451 243.122L744.032 242.061L743.707 242.39C742.375 243.767 740.2 243.916 738.707 242.74L737.332 241.653L729.397 218.382C728.653 216.2 728.374 213.89 728.568 211.591L727.154 202.94C727.001 202.013 727.566 201.105 728.477 200.812L749.309 194.075C750.321 193.757 751.392 194.287 751.729 195.273Z" fill="#96D9C9"/>
<path d="M985.899 130.21L994.32 126.431C994.32 126.431 1001.55 113.737 1000.65 110.723C999.755 107.709 995.414 102.38 996.745 100.907C998.077 99.434 1001.34 97.3281 1005.18 100.187C1007.97 102.261 1010.93 112.908 1012.21 113.162C1013.02 113.315 1017.92 111.287 1021.47 109.738C1023.81 108.725 1026.53 109.115 1028.53 110.755L1028.53 110.761C1029.88 111.869 1030.29 113.772 1029.52 115.329L1028.31 117.747L1030.65 119.127C1032.4 120.153 1033.02 122.406 1032.04 124.17L1031.04 125.973L1032.57 126.724C1034.54 127.689 1035.26 130.161 1034.12 132.024L1033.2 133.535L1033.56 133.828C1035.05 135.027 1035.4 137.178 1034.37 138.774L1033.41 140.244L1010.98 150.302C1008.88 151.246 1006.6 151.738 1004.29 151.759L995.811 153.968C994.902 154.206 993.946 153.729 993.569 152.849L984.93 132.731C984.519 131.752 984.947 130.637 985.899 130.21Z" fill="#96D9C9"/>
<path d="M701.966 52.2621L705.887 53.5407C705.887 53.5407 712.091 51.5146 712.699 50.2476C713.306 48.9806 713.471 45.9143 714.353 45.827C715.236 45.7398 716.946 46.0217 717.359 48.1217C717.658 49.6443 715.44 54.0549 715.789 54.5246C716.009 54.8169 718.24 55.6185 719.881 56.1738C720.958 56.5408 721.742 57.4875 721.908 58.6282L721.908 58.6314C722.021 59.403 721.586 60.1566 720.862 60.4379L719.736 60.8745L720.097 62.0356C720.369 62.9008 719.896 63.8312 719.041 64.1193L718.168 64.4151L718.449 65.1227C718.812 66.0346 718.307 67.068 717.372 67.3432L716.613 67.5652L716.643 67.7697C716.777 68.615 716.247 69.4315 715.426 69.6494L714.669 69.849L704.228 66.439C703.249 66.1194 702.349 65.599 701.58 64.9131L698.111 63.0966C697.739 62.9025 697.566 62.4573 697.706 62.0533L700.889 52.8051C701.047 52.3579 701.524 52.1177 701.966 52.2621Z" fill="#96D9C9"/>
<path d="M610.481 11.771C612.329 11.771 613.729 12.233 614.681 13.157C615.241 13.689 615.675 14.431 615.983 15.383C616.291 16.335 616.445 17.679 616.445 19.415V22.145H630.221V26.765H616.445V36.341C616.445 37.125 616.557 37.713 616.781 38.105C617.005 38.469 617.509 38.651 618.293 38.651C619.133 38.651 619.959 38.469 620.771 38.105C621.583 37.741 622.241 37.265 622.745 36.677C623.277 36.089 623.543 35.459 623.543 34.787C623.543 34.535 623.431 34.297 623.207 34.073C622.983 33.849 622.549 33.737 621.905 33.737C621.401 33.737 620.953 33.779 620.561 33.863L619.889 29.579C620.897 29.327 622.115 29.201 623.543 29.201C625.195 29.201 626.525 29.579 627.533 30.335C628.541 31.091 629.045 32.267 629.045 33.863C629.045 35.375 628.695 36.719 627.995 37.895C627.295 39.071 626.371 40.051 625.223 40.835C624.075 41.619 622.815 42.221 621.443 42.641C620.099 43.033 618.783 43.229 617.495 43.229C616.319 43.229 615.325 43.089 614.513 42.809C613.729 42.529 613.099 42.165 612.623 41.717C612.315 41.409 612.021 41.059 611.741 40.667C611.489 40.275 611.279 39.729 611.111 39.029C610.971 38.329 610.901 37.391 610.901 36.215V26.765H607.373V22.145H610.901V19.625C610.901 18.561 610.761 17.763 610.481 17.231C610.201 16.699 609.557 16.433 608.549 16.433C607.793 16.433 606.995 16.601 606.155 16.937L604.559 12.905C605.651 12.513 606.631 12.233 607.499 12.065C608.367 11.869 609.361 11.771 610.481 11.771Z" fill="#96D9C9"/>
<path d="M1231.93 241.625C1233.78 241.625 1235.18 242.087 1236.13 243.011C1236.69 243.543 1237.13 244.285 1237.43 245.237C1237.74 246.189 1237.9 247.533 1237.9 249.269V251.999H1251.67V256.619H1237.9V266.195C1237.9 266.979 1238.01 267.567 1238.23 267.959C1238.46 268.323 1238.96 268.505 1239.74 268.505C1240.58 268.505 1241.41 268.323 1242.22 267.959C1243.03 267.595 1243.69 267.119 1244.2 266.531C1244.73 265.943 1244.99 265.313 1244.99 264.641C1244.99 264.389 1244.88 264.151 1244.66 263.927C1244.43 263.703 1244 263.591 1243.36 263.591C1242.85 263.591 1242.4 263.633 1242.01 263.717L1241.34 259.433C1242.35 259.181 1243.57 259.055 1244.99 259.055C1246.65 259.055 1247.98 259.433 1248.98 260.189C1249.99 260.945 1250.5 262.121 1250.5 263.717C1250.5 265.229 1250.15 266.573 1249.45 267.749C1248.75 268.925 1247.82 269.905 1246.67 270.689C1245.53 271.473 1244.27 272.075 1242.89 272.495C1241.55 272.887 1240.23 273.083 1238.95 273.083C1237.77 273.083 1236.78 272.943 1235.96 272.663C1235.18 272.383 1234.55 272.019 1234.07 271.571C1233.77 271.263 1233.47 270.913 1233.19 270.521C1232.94 270.129 1232.73 269.583 1232.56 268.883C1232.42 268.183 1232.35 267.245 1232.35 266.069V256.619H1228.82V251.999H1232.35V249.479C1232.35 248.415 1232.21 247.617 1231.93 247.085C1231.65 246.553 1231.01 246.287 1230 246.287C1229.24 246.287 1228.45 246.455 1227.61 246.791L1226.01 242.759C1227.1 242.367 1228.08 242.087 1228.95 241.919C1229.82 241.723 1230.81 241.625 1231.93 241.625Z" fill="#FED333"/>
<path d="M1014.17 27.5421C1016.02 27.5421 1017.42 28.0041 1018.37 28.9281C1018.93 29.4601 1019.37 30.2021 1019.68 31.1541C1019.98 32.1061 1020.14 33.4501 1020.14 35.1861V37.9161H1033.91V42.5361H1020.14V52.1121C1020.14 52.8961 1020.25 53.4841 1020.47 53.8761C1020.7 54.2401 1021.2 54.4221 1021.99 54.4221C1022.83 54.4221 1023.65 54.2401 1024.46 53.8761C1025.28 53.5121 1025.93 53.0361 1026.44 52.4481C1026.97 51.8601 1027.24 51.2301 1027.24 50.5581C1027.24 50.3061 1027.12 50.0681 1026.9 49.8441C1026.68 49.6201 1026.24 49.5081 1025.6 49.5081C1025.09 49.5081 1024.65 49.5501 1024.25 49.6341L1023.58 45.3501C1024.59 45.0981 1025.81 44.9721 1027.24 44.9721C1028.89 44.9721 1030.22 45.3501 1031.23 46.1061C1032.23 46.8621 1032.74 48.0381 1032.74 49.6341C1032.74 51.1461 1032.39 52.4901 1031.69 53.6661C1030.99 54.8421 1030.06 55.8221 1028.92 56.6061C1027.77 57.3901 1026.51 57.9921 1025.14 58.4121C1023.79 58.8041 1022.48 59.0001 1021.19 59.0001C1020.01 59.0001 1019.02 58.8601 1018.21 58.5801C1017.42 58.3001 1016.79 57.9361 1016.32 57.4881C1016.01 57.1801 1015.71 56.8301 1015.43 56.4381C1015.18 56.0461 1014.97 55.5001 1014.8 54.8001C1014.66 54.1001 1014.59 53.1621 1014.59 51.9861V42.5361H1011.07V37.9161H1014.59V35.3961C1014.59 34.3321 1014.45 33.5341 1014.17 33.0021C1013.89 32.4701 1013.25 32.2041 1012.24 32.2041C1011.49 32.2041 1010.69 32.3721 1009.85 32.7081L1008.25 28.6761C1009.34 28.2841 1010.32 28.0041 1011.19 27.8361C1012.06 27.6401 1013.05 27.5421 1014.17 27.5421Z" fill="#FAE0B2"/>
<path d="M359.174 100.542C361.022 100.542 362.422 101.004 363.374 101.928C363.934 102.46 364.368 103.202 364.676 104.154C364.984 105.106 365.138 106.45 365.138 108.186V110.916H378.914V115.536H365.138V125.112C365.138 125.896 365.25 126.484 365.474 126.876C365.698 127.24 366.202 127.422 366.986 127.422C367.826 127.422 368.652 127.24 369.464 126.876C370.276 126.512 370.934 126.036 371.438 125.448C371.97 124.86 372.236 124.23 372.236 123.558C372.236 123.306 372.124 123.068 371.9 122.844C371.676 122.62 371.242 122.508 370.598 122.508C370.094 122.508 369.646 122.55 369.254 122.634L368.582 118.35C369.59 118.098 370.808 117.972 372.236 117.972C373.888 117.972 375.218 118.35 376.226 119.106C377.234 119.862 377.738 121.038 377.738 122.634C377.738 124.146 377.388 125.49 376.688 126.666C375.988 127.842 375.064 128.822 373.916 129.606C372.768 130.39 371.508 130.992 370.136 131.412C368.792 131.804 367.476 132 366.188 132C365.012 132 364.018 131.86 363.206 131.58C362.422 131.3 361.792 130.936 361.316 130.488C361.008 130.18 360.714 129.83 360.434 129.438C360.182 129.046 359.972 128.5 359.804 127.8C359.664 127.1 359.594 126.162 359.594 124.986V115.536H356.066V110.916H359.594V108.396C359.594 107.332 359.454 106.534 359.174 106.002C358.894 105.47 358.25 105.204 357.242 105.204C356.486 105.204 355.688 105.372 354.848 105.708L353.252 101.676C354.344 101.284 355.324 101.004 356.192 100.836C357.06 100.64 358.054 100.542 359.174 100.542Z" fill="#F79C8D"/>
<path d="M206.565 189.719L199.734 190.98C198.472 184.149 201.695 181.199 203.948 179.37C204.775 178.746 205.374 178.165 205.745 177.625C206.673 176.276 205.923 174.766 205.612 174.353C204.634 172.885 202.746 171.586 199.786 172.132C195.004 173.015 194.892 177.51 195.06 178.421L188.06 178.771C187.801 174.816 189.871 166.899 198.524 165.301C203.762 164.334 208.862 166.453 211.483 170.443C213.792 174.02 213.866 178.245 211.638 181.482C210.709 182.831 209.469 183.766 208.457 184.66C206.618 186.177 206.145 187.441 206.565 189.719Z" fill="#466EB6"/>
<path d="M208.965 196.34C209.43 198.856 207.768 201.27 205.252 201.735C202.735 202.2 200.321 200.538 199.856 198.022C199.392 195.505 201.054 193.091 203.57 192.626C206.086 192.162 208.5 193.824 208.965 196.34Z" fill="#466EB6"/>
<path d="M150.354 8.7125L145.357 13.538C140.531 8.54068 141.588 4.30127 142.455 1.53244C142.8 0.55588 142.978 -0.259831 142.989 -0.91469C143.018 -2.55184 141.559 -3.39619 141.07 -3.56849C139.445 -4.25199 137.153 -4.29208 134.987 -2.20102C131.489 1.17686 133.879 4.98525 134.522 5.65157L128.882 9.81079C126.48 6.65725 123.832 -1.08603 130.162 -7.19837C133.993 -10.8979 139.416 -11.9494 143.804 -10.0713C147.705 -8.36539 150.101 -4.88442 150.032 -0.955266C150.003 0.681883 149.486 2.14673 149.136 3.45072C148.441 5.73127 148.745 7.04671 150.354 8.7125Z" fill="#466EB6"/>
<path d="M156.012 12.9057C157.79 14.7464 157.739 17.6769 155.898 19.4543C154.057 21.2317 151.127 21.1804 149.349 19.3397C147.572 17.499 147.623 14.5685 149.464 12.7911C151.304 11.0137 154.235 11.065 156.012 12.9057Z" fill="#466EB6"/>
<path d="M1130.81 195.568L1128.2 189.126C1134.65 186.525 1138.18 189.094 1140.42 190.935C1141.2 191.621 1141.89 192.091 1142.49 192.347C1144 192.987 1145.33 191.951 1145.67 191.563C1146.91 190.312 1147.81 188.202 1146.68 185.411C1144.86 180.902 1140.43 181.69 1139.58 182.037L1137.83 175.249C1141.66 174.204 1149.83 174.65 1153.12 182.809C1155.12 187.748 1154.06 193.169 1150.67 196.535C1147.63 199.512 1143.51 200.428 1139.89 198.892C1138.38 198.252 1137.22 197.224 1136.14 196.41C1134.29 194.911 1132.95 194.701 1130.81 195.568Z" fill="#96D9C9"/>
<path d="M1124.8 199.243C1122.42 200.201 1119.73 199.055 1118.77 196.682C1117.81 194.31 1118.96 191.612 1121.33 190.654C1123.7 189.696 1126.4 190.842 1127.36 193.214C1128.32 195.587 1127.17 198.285 1124.8 199.243Z" fill="#96D9C9"/>
<path d="M828.354 49.7125L823.357 54.538C818.531 49.5406 819.588 45.3012 820.455 42.5324C820.8 41.5558 820.978 40.7401 820.989 40.0853C821.018 38.4481 819.559 37.6038 819.071 37.4315C817.445 36.748 815.153 36.7079 812.987 38.7989C809.489 42.1768 811.879 45.9852 812.522 46.6515L806.882 50.8107C804.48 47.6572 801.832 39.9139 808.162 33.8016C811.993 30.102 817.416 29.0505 821.805 30.9287C825.705 32.6346 828.101 36.1155 828.032 40.0447C828.003 41.6818 827.486 43.1467 827.136 44.4507C826.441 46.7312 826.746 48.0467 828.354 49.7125Z" fill="#F7CC7F"/>
<path d="M834.013 53.9056C835.79 55.7462 835.739 58.6767 833.898 60.4541C832.057 62.2316 829.127 62.1803 827.349 60.3396C825.572 58.4989 825.623 55.5684 827.464 53.791C829.305 52.0136 832.235 52.0649 834.013 53.9056Z" fill="#F7CC7F"/>
</g>
</g>
</svg>
