<svg width="435" height="309" viewBox="0 0 435 309" fill="none" xmlns="http://www.w3.org/2000/svg">
<path d="M317.348 274.358L317.774 274.333L317.769 273.917C317.806 273.691 317.847 273.373 317.869 272.976L317.869 272.976C317.917 272.134 317.883 270.937 317.553 269.526C316.893 266.698 315.046 263.017 310.318 259.613L310.287 259.667L310.287 259.667L310.318 259.613C307.339 257.468 303.564 256.074 300.542 255.217L300.542 255.217C299.029 254.789 297.702 254.492 296.753 254.305C296.303 254.215 295.938 254.15 295.678 254.106L295.134 254.013L295.159 254.608C295.168 254.84 295.189 255.139 295.23 255.496L295.23 255.496L295.231 255.497C295.337 256.4 295.576 257.677 296.115 259.165L296.115 259.165C297.194 262.145 299.47 265.972 304.25 269.356L304.25 269.356C308.322 272.239 311.665 273.484 313.997 274.008C315.161 274.27 316.072 274.351 316.693 274.366L316.693 274.366C316.97 274.373 317.189 274.367 317.348 274.358Z" fill="#FFA706" stroke="white"/>
<path d="M336.35 265.712L336.35 265.712C336.348 266.073 336.319 266.361 336.287 266.561C336.287 266.561 336.287 266.562 336.287 266.562L336.287 266.564L336.286 266.569L336.23 266.939L335.885 266.969C335.722 266.983 335.484 266.999 335.175 267.002L335.175 267.002C334.537 267.009 333.594 266.967 332.374 266.77C329.935 266.376 326.388 265.363 321.946 262.89L321.946 262.89C316.819 260.034 314.388 256.906 313.241 254.481C312.667 253.269 312.417 252.235 312.309 251.503L312.309 251.503C312.265 251.206 312.245 250.959 312.237 250.769L312.214 250.231L312.709 250.261C312.945 250.276 313.286 250.299 313.714 250.338C313.714 250.338 313.714 250.338 313.714 250.338L313.707 250.857L336.35 265.712ZM336.35 265.712C336.353 264.984 336.239 263.953 335.774 262.73L336.35 265.712Z" fill="#FFA706" stroke="white"/>
<path d="M328.848 243.162C329.805 242.861 331.154 242.476 332.716 242.133C335.836 241.449 339.83 240.935 343.278 241.636L343.222 242.146L343.278 241.636C349.245 242.849 352.347 245.847 353.95 248.551L353.95 248.551C354.749 249.899 355.171 251.168 355.394 252.098L328.848 243.162ZM328.848 243.162C328.37 243.311 327.991 243.44 327.73 243.531C327.721 243.534 327.714 243.536 327.711 243.537C327.709 243.538 327.707 243.538 327.707 243.539C327.707 243.539 327.707 243.539 327.707 243.539L327.295 243.671L327.411 244.14C327.474 244.395 327.571 244.746 327.716 245.169L327.716 245.169C328.026 246.076 328.555 247.312 329.429 248.622C331.183 251.249 334.318 254.162 339.825 255.324L339.825 255.324C344.586 256.328 348.541 255.901 351.304 255.223L328.848 243.162Z" fill="#FFA706" stroke="white"/>
<path d="M346.06 234.38L346.06 234.379C345.907 234.004 345.803 233.692 345.737 233.461L345.609 233.015L345.992 232.852L346.023 232.839L346.027 232.837L346.027 232.837C346.27 232.736 346.627 232.592 347.084 232.423C347.996 232.085 349.303 231.65 350.881 231.257C354.034 230.471 358.278 229.854 362.62 230.536L362.615 230.604L362.615 230.604L362.62 230.536C368.297 231.43 371.6 234.255 373.489 236.896C374.96 238.953 375.567 240.888 375.782 241.709L375.89 242.121L375.548 242.294C375.353 242.392 375.067 242.53 374.698 242.688C373.942 243.012 372.836 243.422 371.434 243.772C368.629 244.472 364.633 244.929 359.876 243.957L359.876 243.957C353.498 242.652 349.933 239.931 347.963 237.522L346.06 234.38ZM346.06 234.38C346.397 235.2 346.979 236.32 347.963 237.522L346.06 234.38Z" fill="#FFA706" stroke="white"/>
<path d="M383.771 219.15L383.771 219.15C384.83 219.946 385.612 220.749 386.136 221.368C386.136 221.368 386.136 221.368 386.136 221.368L385.794 221.706C385.876 221.803 385.951 221.895 386.02 221.981L383.771 219.15ZM383.771 219.15C381.65 217.558 378.426 216.001 373.968 216.02L383.771 219.15ZM356.204 222.036L356.677 221.731C356.928 221.568 357.297 221.337 357.766 221.06L357.766 221.06C358.708 220.504 360.06 219.762 361.696 219.019L361.696 219.019C364.967 217.534 369.388 216.04 373.968 216.02L356.204 222.036ZM356.204 222.036L356.593 222.513M356.204 222.036L356.593 222.513M356.593 222.513C356.72 222.668 356.885 222.857 357.092 223.074L356.593 222.513Z" fill="#FFA706" stroke="white"/>
<path d="M394.111 195.526L394.11 195.526C393.837 195.367 393.444 195.159 392.949 194.934C391.957 194.484 390.549 193.966 388.853 193.647L388.853 193.647C385.458 193.012 380.922 193.185 376.282 196.314C372.961 198.554 370.421 201.682 368.217 204.432L368.217 204.433L368.056 204.634C368.056 204.634 368.056 204.634 368.056 204.634C368.056 204.634 368.056 204.634 368.056 204.634C367.014 205.934 366.047 207.141 365.105 208.121L365.105 208.121C364.42 208.835 363.748 209.428 363.07 209.85L362.101 210.454L363.227 210.806C363.293 210.826 363.362 210.848 363.434 210.869L363.434 210.869C364.223 211.107 365.38 211.385 366.859 211.557L366.859 211.557C369.819 211.901 374.065 211.812 379.231 210.098L379.232 210.098C384.099 208.483 387.942 204.932 390.565 201.794L390.565 201.794C391.877 200.223 392.886 198.753 393.567 197.676L393.567 197.676C393.907 197.138 394.166 196.697 394.339 196.391L394.34 196.39C394.355 196.364 394.369 196.339 394.381 196.317L394.645 195.862L394.192 195.574C394.164 195.556 394.12 195.531 394.112 195.527L394.111 195.526Z" fill="#FFA706" stroke="white"/>
<path d="M396.586 169.69C396.309 169.628 395.915 169.558 395.424 169.504L395.424 169.504C394.442 169.396 393.072 169.355 391.482 169.587L391.482 169.587C388.3 170.054 384.248 171.618 380.661 175.934L380.661 175.934C378.093 179.025 375.89 183.02 374.327 186.241L374.327 186.241C373.547 187.851 372.926 189.269 372.501 190.283L372.501 190.283C372.299 190.764 372.142 191.154 372.032 191.431L371.785 192.049L372.418 192.177C372.551 192.203 372.713 192.232 372.905 192.256C373.525 192.335 374.438 192.372 375.622 192.21M396.586 169.69L396.524 170.191L396.568 170.21L396.559 170.284L396.559 170.284L396.504 170.719L396.459 170.709L396.459 170.709C396.444 170.706 396.429 170.703 396.414 170.699C396.326 170.969 396.218 171.292 396.087 171.66C395.67 172.832 395.03 174.457 394.135 176.266M396.586 169.69L396.632 169.7L397.197 169.825L397.024 170.401L397.002 170.474L397.002 170.474C396.9 170.804 396.746 171.283 396.535 171.876L396.535 171.877C396.113 173.063 395.465 174.707 394.561 176.537M396.586 169.69L396.586 169.689L396.524 170.191M394.135 176.266C392.403 179.774 389.729 183.949 385.906 186.867L385.935 186.923L386.122 187.286L385.744 187.497L385.806 187.592C385.806 187.592 385.806 187.592 385.806 187.592M394.135 176.266L394.561 176.537C394.561 176.537 394.561 176.537 394.561 176.537M394.135 176.266L394.561 176.537M385.806 187.592L385.743 187.497L385.708 187.516L385.294 187.746L385.132 187.432C381.002 190.354 377.751 191.389 375.53 191.693L375.622 192.209C375.622 192.209 375.622 192.21 375.622 192.21M385.806 187.592C381.441 190.764 377.991 191.885 375.622 192.21M385.806 187.592C389.917 184.606 392.753 180.195 394.561 176.537M375.622 192.21L396.524 170.191M396.524 170.191L396.112 170.018L396.092 170.084L396.221 170.139C396.334 170.16 396.435 170.18 396.522 170.199L396.524 170.191ZM396.092 170.084L396.218 170.138C396.175 170.131 396.129 170.123 396.082 170.115C396.085 170.104 396.089 170.094 396.092 170.084L396.092 170.084Z" fill="#FFA706" stroke="white"/>
<path d="M375.907 172.181L375.906 172.181C375.806 172.173 375.716 172.161 375.636 172.147L375.099 172.054L375.211 171.49C375.264 171.223 375.343 170.836 375.451 170.352C375.669 169.365 376.003 167.972 376.465 166.346C377.39 163.094 378.83 158.911 380.887 155.189L375.907 172.181ZM375.907 172.181C376.372 172.22 377.073 172.189 378.031 171.914C379.947 171.364 382.897 169.84 387.066 165.953C390.995 162.291 393.382 157.315 394.787 153.257L394.787 153.257C395.49 151.228 395.948 149.428 396.229 148.134L396.229 148.133C396.37 147.488 396.467 146.969 396.528 146.611M375.907 172.181L396.528 146.611M396.528 146.611C396.536 146.57 396.543 146.53 396.549 146.492L396.637 145.935L396.111 145.855C396.09 145.851 396.086 145.851 396.083 145.85C396.08 145.85 396.078 145.85 396.062 145.847L396.062 145.847L396.055 145.846C395.774 145.807 395.373 145.768 394.878 145.76L394.878 145.76C393.889 145.744 392.521 145.849 390.964 146.311L396.528 146.611ZM390.964 146.311C387.85 147.234 383.989 149.576 380.887 155.189L390.964 146.311Z" fill="#FFA706" stroke="white"/>
<path d="M377.277 147.906L377.309 147.316C377.323 147.059 377.346 146.7 377.382 146.254L377.382 146.253C377.461 145.297 377.602 143.942 377.854 142.348L377.854 142.348C378.359 139.16 379.308 135.014 381.084 131.185L381.515 131.444L381.084 131.185C383.55 125.87 386.865 122.927 389.589 121.322L377.277 147.906ZM377.277 147.906L377.822 147.903M377.277 147.906L377.822 147.903M377.822 147.903C377.989 147.902 378.202 147.894 378.456 147.873L378.457 147.873C379.116 147.817 380.05 147.666 381.159 147.29L381.159 147.29C383.376 146.537 386.284 144.881 389.076 141.272L389.076 141.272C393.672 135.327 395.072 129.911 395.322 125.976L395.322 125.976C395.446 124.008 395.283 122.412 395.089 121.305L395.089 121.305C394.991 120.751 394.885 120.321 394.804 120.028L394.804 120.028C394.803 120.022 394.801 120.016 394.799 120.01C394.79 119.976 394.779 119.937 394.768 119.901L394.634 119.453L394.217 119.515C394.189 119.519 394.159 119.524 394.131 119.529C394.123 119.53 394.116 119.532 394.108 119.533L394.108 119.533L394.104 119.533C393.85 119.579 393.49 119.658 393.048 119.789L393.048 119.789M377.822 147.903L393.048 119.789M393.048 119.789C392.163 120.052 390.95 120.519 389.589 121.322L393.048 119.789Z" fill="#FFA706" stroke="white"/>
<path d="M376.257 126.285L376.256 126.286C376.118 126.419 375.993 126.538 375.882 126.639L375.155 127.308L375.081 126.235C375.065 125.998 375.047 125.709 375.03 125.372L375.03 125.372C374.978 124.36 374.93 122.923 374.947 121.225C374.982 117.83 375.278 113.392 376.323 109.218C377.303 105.3 379.207 101.681 380.971 98.9871L380.971 98.9871C381.853 97.6399 382.701 96.524 383.38 95.717L376.257 126.285ZM376.257 126.285C376.813 125.746 377.594 124.937 378.491 123.857C380.285 121.697 382.544 118.454 384.405 114.119C387.173 107.677 387.327 102.75 386.784 99.4252L386.784 99.4252C386.512 97.7617 386.065 96.4993 385.684 95.6495C385.494 95.2258 385.321 94.905 385.194 94.6888L384.883 94.1614L384.472 94.5405C384.41 94.5971 384.339 94.6651 384.258 94.7456L384.258 94.7456M376.257 126.285L384.258 94.7456M384.258 94.7456L384.256 94.7473M384.258 94.7456L384.256 94.7473M384.256 94.7473C384.017 94.9868 383.719 95.3133 383.38 95.717L384.256 94.7473Z" fill="#FFA706" stroke="white"/>
<path d="M369.835 106.177L369.63 105.237C369.58 105.007 369.522 104.722 369.459 104.389L369.459 104.389C369.277 103.423 369.057 102.042 368.906 100.376L368.906 100.376C368.603 97.0445 368.572 92.5763 369.662 88.024L369.662 88.024C370.565 84.2514 372.05 80.6094 373.542 77.747L373.542 77.7468C374.289 76.316 375.037 75.0799 375.716 74.1198L369.835 106.177ZM369.835 106.177L370.441 105.535M369.835 106.177L370.441 105.535M370.441 105.535C371.809 104.088 374.757 100.495 377.665 92.4447L377.665 92.4447C379.852 86.3921 379.856 81.3431 379.31 77.8008L379.31 77.8007M370.441 105.535L379.31 77.8007M377.583 72.0057L377.869 72.6439C377.979 72.8897 378.124 73.2385 378.284 73.6838L377.583 72.0057ZM377.583 72.0057L377.116 72.4393M377.583 72.0057L377.116 72.4393M377.116 72.4393C376.716 72.8102 376.239 73.3792 375.716 74.1197L377.116 72.4393ZM379.31 77.8007C379.037 76.0297 378.627 74.6364 378.284 73.6838L379.31 77.8007Z" fill="#FFA706" stroke="white"/>
<path d="M353.071 82.1993L353.071 82.1992L353.005 82.2409C351.199 79.1267 349.838 75.0074 348.994 71.3706C348.571 69.5505 348.276 67.8484 348.12 66.4492L353.071 82.1993ZM353.071 82.1993L353.005 82.241C354.63 85.0421 357.754 87.5619 360.452 89.3744C361.804 90.2828 363.054 91.017 363.968 91.5245C364.362 91.7435 364.694 91.9206 364.942 92.0506L365.61 92.3995M353.071 82.1993L365.61 92.3995M365.61 92.3995L365.604 91.6157M365.61 92.3995L365.604 91.6157M365.604 91.6157C365.585 89.2669 365.033 82.8857 362.143 75.0759C359.993 69.2663 356.499 66.318 353.531 64.8278C352.05 64.0842 350.705 63.7057 349.729 63.5128L349.729 63.5128C349.241 63.4165 348.846 63.3666 348.571 63.3404L348.571 63.3404L348.567 63.34C348.562 63.3396 348.555 63.3389 348.546 63.3382C348.529 63.3366 348.506 63.3346 348.49 63.3334L348.054 63.3001M365.604 91.6157L348.054 63.3001M348.054 63.3001L348.013 63.7675M348.054 63.3001L348.013 63.7675M348.013 63.7675C347.958 64.3915 347.992 65.3135 348.12 66.4491L348.013 63.7675Z" fill="#FFA706" stroke="white"/>
<path d="M369.949 110.764L370.61 110.799L370.391 110.106C370.324 109.894 370.237 109.629 370.126 109.318C369.821 108.462 369.341 107.264 368.642 105.89L368.642 105.89C367.244 103.142 364.966 99.6883 361.449 96.8767L361.449 96.8767C356.26 92.7292 351.482 91.2867 347.845 91.4563L347.273 91.483L347.441 92.0931C347.508 92.3371 347.604 92.6612 347.734 93.0508C348.039 93.9636 348.531 95.2376 349.28 96.684C350.778 99.5765 353.307 103.163 357.428 105.924C363.835 110.218 368.133 110.666 369.949 110.764Z" fill="#FFA706" stroke="white"/>
<path d="M353.265 111.221L353.759 111.172C355.412 111.01 357.015 111.016 358.796 111.527L353.265 111.221ZM353.265 111.221L353.366 111.761M353.265 111.221L353.366 111.761M353.366 111.761C353.408 111.984 353.47 112.279 353.559 112.634L353.366 111.761ZM365.415 115.416L365.46 115.348C362.848 113.219 360.724 112.08 358.796 111.527L365.415 115.416ZM365.415 115.416L365.415 115.416L365.46 115.348C368.858 118.118 371.002 121.481 372.296 124.146L372.296 124.146C372.942 125.478 373.377 126.639 373.651 127.466C373.749 127.764 373.827 128.018 373.885 128.222L374.067 128.853L373.472 128.866C373.456 128.866 373.441 128.867 373.426 128.867L373.423 128.867L373.421 128.867C372.716 128.887 371.687 128.916 370.215 128.596C368.3 128.181 365.682 127.179 362.201 124.82C362.201 124.82 362.201 124.82 362.201 124.82L365.415 115.416ZM353.559 112.634C353.77 113.48 354.136 114.665 354.75 116.018L353.559 112.634Z" fill="#FFA706" stroke="white"/>
<path d="M355.035 127.288L354.482 127.241L354.556 127.841C354.745 129.36 355.164 132.304 356.203 135.545C357.241 138.782 358.91 142.355 361.621 145.099C367.271 150.819 372.715 151.851 374.725 152.228L375.347 152.344L375.247 151.667C375.209 151.414 375.157 151.091 375.088 150.71L375.088 150.709C374.906 149.713 374.605 148.307 374.126 146.668C373.168 143.395 371.497 139.187 368.643 135.473C365.722 131.673 363.134 129.689 360.801 128.619L360.801 128.619C358.667 127.641 356.762 127.434 355.035 127.288Z" fill="#FFA706" stroke="white"/>
<path d="M372.938 171.77L373.543 171.929L373.497 171.262C373.48 171.003 373.453 170.672 373.415 170.279L373.415 170.279C373.314 169.253 373.127 167.804 372.784 166.108L372.784 166.108C372.098 162.718 370.785 158.329 368.273 154.368C365.703 150.315 363.317 148.128 361.106 146.887L361.106 146.887C359.084 145.753 357.227 145.421 355.545 145.164L355.007 145.081L355.033 145.668C355.101 147.225 355.284 150.246 356.053 153.609C356.82 156.966 358.18 160.708 360.627 163.674C365.729 169.862 370.993 171.259 372.938 171.77Z" fill="#FFA706" stroke="white"/>
<path d="M365.374 172.607L365.374 172.607C363.782 168.071 361.572 165.611 359.314 164.116L359.086 164.555L359.314 164.116C357.676 163.031 356.048 162.471 354.632 161.984L354.622 161.98C354.622 161.98 354.622 161.98 354.622 161.98C354.266 161.858 353.927 161.741 353.6 161.62L352.976 161.389L352.996 162.092C353.125 166.59 353.34 173.311 356.434 180.02C359.858 187.448 365.707 190.453 367.882 191.544L368.677 191.942L368.529 191.019C368.24 189.21 368.061 187.418 367.881 185.598L367.881 185.598L367.877 185.564C367.782 184.612 367.687 183.653 367.574 182.686L367.574 182.686C367.21 179.56 366.662 176.281 365.374 172.607Z" fill="#FFA706" stroke="white"/>
<path d="M360.461 191.651C359.261 186.823 357.302 184.032 355.205 182.21C353.668 180.875 352.089 180.083 350.701 179.387L350.686 179.379C350.686 179.379 350.685 179.379 350.685 179.379C350.644 179.358 350.603 179.337 350.562 179.316C350.277 179.174 350.004 179.036 349.738 178.896L349.116 178.568L349.076 179.295C348.823 183.875 348.781 190.575 351.307 197.821L351.307 197.821C354.018 205.597 359.365 208.652 361.632 209.948L361.634 209.949L361.637 209.95C361.682 209.976 361.721 209.998 361.76 210.021C361.791 210.039 361.823 210.057 361.859 210.077L362.603 210.499L362.534 209.612C362.42 208.133 362.349 206.752 362.279 205.391C362.279 205.391 362.279 205.391 362.279 205.391L362.278 205.382C362.065 201.224 361.863 197.295 360.461 191.651ZM360.461 191.651L359.999 191.754M360.461 191.651L359.999 191.754M359.999 191.754C361.388 197.343 361.587 201.227 361.801 205.381L361.801 205.384L350.022 179.603C350.142 179.664 350.264 179.725 350.386 179.786C350.427 179.807 350.468 179.828 350.51 179.849C351.905 180.549 353.435 181.317 354.922 182.608C356.925 184.347 358.826 187.031 359.999 191.754Z" fill="#FFA706" stroke="white"/>
<path d="M341.201 190.478L341.809 190.879C341.87 190.92 341.933 190.961 341.997 191.003C342.095 191.068 342.196 191.134 342.296 191.2L342.314 191.212C343.839 192.212 345.678 193.419 347.289 195.304C348.917 197.208 350.296 199.782 350.942 203.501C351.61 207.339 351.668 209.583 351.675 211.978C351.675 212.117 351.676 212.257 351.676 212.398C351.676 212.474 351.676 212.551 351.676 212.628L351.676 212.628L351.676 212.636C351.679 214.638 351.682 216.848 351.997 220.239L352.111 221.477L351.221 220.639C350.705 220.153 350.139 219.688 349.541 219.201L341.201 190.478ZM341.201 190.478L341.107 191.213M341.201 190.478L341.107 191.213M341.107 191.213C340.556 195.529 340.063 201.318 342.018 208.47L342.018 208.47C343.116 212.488 344.909 214.956 346.778 216.8L346.778 216.801C347.656 217.666 348.549 218.393 349.386 219.074L349.394 219.081L349.395 219.081M341.107 191.213L349.395 219.081M349.395 219.081C349.424 219.105 349.446 219.123 349.47 219.143M349.395 219.081L349.47 219.143M349.47 219.143C349.491 219.16 349.513 219.178 349.541 219.201L349.47 219.143Z" fill="#FFA706" stroke="white"/>
<path d="M342.326 223.357L342.326 223.359C341.952 225.544 341.547 227.916 341.462 230.943L341.425 232.268L340.622 231.205C340.24 230.699 339.842 230.204 339.436 229.698L339.414 229.67L339.414 229.67L339.402 229.656C337.252 226.977 334.939 224.097 334.332 218.819L342.326 223.357ZM342.326 223.357C342.332 223.321 342.339 223.281 342.346 223.24C342.355 223.187 342.365 223.132 342.373 223.083C342.805 220.553 343.173 218.252 342.911 215.453C342.484 210.882 341.381 208.008 339.962 205.995C338.69 204.19 337.175 203.093 335.699 202.091L335.059 201.656L334.99 202.442C334.793 204.687 334.609 206.401 334.452 207.797L334.452 207.798M342.326 223.357L334.452 207.798M334.452 207.798C334.432 207.982 334.412 208.159 334.393 208.332M334.452 207.798L334.393 208.332M334.356 208.658L334.352 208.696C334.227 209.797 334.126 210.694 334.058 211.529L334.356 208.658ZM334.356 208.658C334.368 208.551 334.38 208.443 334.393 208.332M334.356 208.658L334.393 208.332" fill="#FFA706" stroke="white"/>
<path d="M327.725 210.506L327.194 209.97L326.961 210.669C326.628 211.667 326.294 212.583 325.972 213.466L325.949 213.531L325.949 213.531L325.948 213.533C324.593 217.242 323.464 220.333 323.694 225.955L323.694 225.955C323.8 228.519 324.557 230.994 325.522 233.343C326.126 234.815 326.803 236.217 327.451 237.562L327.467 237.594L327.467 237.595L327.474 237.609C327.682 238.038 327.886 238.461 328.086 238.881L328.701 240.178L328.976 238.812C329.575 235.837 330.341 233.935 331.035 232.214L331.035 232.214L331.035 232.214L331.035 232.214L331.035 232.213L331.035 232.213L331.035 232.213L331.035 232.213L331.036 232.212L331.036 232.212L331.036 232.212L331.036 232.212L331.036 232.212L331.036 232.211L331.036 232.211L331.036 232.211L331.036 232.211L331.036 232.211L331.036 232.21L331.036 232.21L331.037 232.21L331.037 232.21L331.037 232.21L331.037 232.209L331.037 232.209L331.037 232.209L331.037 232.209L331.037 232.209L331.037 232.208L331.037 232.208L331.037 232.208L331.037 232.208L331.038 232.207L331.038 232.207L331.038 232.207L331.038 232.207L331.038 232.207L331.038 232.206L331.038 232.206L331.038 232.206L331.038 232.206L331.038 232.206L331.038 232.205L331.038 232.205L331.039 232.205L331.039 232.205L331.039 232.205L331.039 232.204L331.039 232.204L331.039 232.204L331.039 232.204L331.039 232.204L331.039 232.203L331.039 232.203L331.039 232.203L331.039 232.203L331.04 232.202L331.04 232.202L331.04 232.202L331.04 232.202L331.04 232.202L331.04 232.201L331.04 232.201L331.04 232.201L331.04 232.201L331.04 232.201L331.04 232.2L331.041 232.2L331.041 232.2L331.041 232.2L331.041 232.2L331.041 232.199L331.041 232.199L331.041 232.199L331.041 232.199L331.041 232.199L331.041 232.198L331.041 232.198L331.041 232.198L331.042 232.198L331.042 232.198L331.042 232.197L331.042 232.197L331.042 232.197L331.042 232.197L331.042 232.196L331.042 232.196L331.042 232.196L331.042 232.196L331.042 232.196L331.042 232.195L331.043 232.195L331.043 232.195L331.043 232.195L331.043 232.195L331.043 232.194L331.043 232.194L331.043 232.194L331.043 232.194L331.043 232.194L331.043 232.193L331.043 232.193L331.043 232.193L331.044 232.193L331.044 232.193L331.044 232.192L331.044 232.192L331.044 232.192L331.044 232.192L331.044 232.192L331.044 232.191L331.044 232.191L331.044 232.191L331.044 232.191L331.044 232.19L331.045 232.19L331.045 232.19L331.045 232.19L331.045 232.19L331.045 232.189L331.045 232.189L331.045 232.189L331.045 232.189L331.045 232.189L331.045 232.188L331.045 232.188L331.045 232.188L331.046 232.188L331.046 232.188L331.046 232.187L331.046 232.187L331.046 232.187L331.046 232.187L331.046 232.187L331.046 232.186L331.046 232.186L331.046 232.186L331.046 232.186L331.046 232.186L331.047 232.185L331.047 232.185L331.047 232.185L331.047 232.185L331.047 232.185L331.047 232.184L331.047 232.184L331.047 232.184L331.047 232.184L331.047 232.183L331.047 232.183L331.047 232.183L331.048 232.183L331.048 232.183L331.048 232.182L331.048 232.182L331.048 232.182L331.048 232.182L331.048 232.182L331.048 232.181L331.048 232.181L331.048 232.181L331.048 232.181L331.048 232.181L331.049 232.18L331.049 232.18L331.049 232.18L331.049 232.18L331.049 232.18L331.049 232.179L331.049 232.179L331.049 232.179L331.049 232.179L331.049 232.179L331.049 232.178L331.05 232.178L331.05 232.178L331.05 232.178L331.05 232.178L331.05 232.177L331.05 232.177L331.05 232.177L331.05 232.177L331.05 232.176L331.05 232.176L331.05 232.176L331.05 232.176L331.051 232.176L331.051 232.175L331.051 232.175L331.051 232.175L331.051 232.175L331.051 232.175L331.051 232.174L331.051 232.174L331.051 232.174L331.051 232.174L331.051 232.174L331.051 232.173L331.052 232.173L331.052 232.173L331.052 232.173L331.052 232.173L331.052 232.172L331.052 232.172L331.052 232.172L331.052 232.172L331.052 232.172L331.052 232.171L331.052 232.171L331.052 232.171L331.053 232.171L331.053 232.171L331.053 232.17L331.053 232.17L331.053 232.17L331.053 232.17L331.053 232.169L331.053 232.169L331.053 232.169L331.053 232.169L331.053 232.169L331.053 232.168L331.054 232.168L331.054 232.168L331.054 232.168L331.054 232.168L331.054 232.167L331.054 232.167L331.054 232.167L331.054 232.167L331.054 232.167L331.054 232.166L331.054 232.166L331.054 232.166L331.055 232.166L331.055 232.166L331.055 232.165L331.055 232.165L331.055 232.165L331.055 232.165L331.055 232.165L331.055 232.164L331.055 232.164L331.055 232.164L331.055 232.164L331.055 232.164L331.056 232.163L331.056 232.163L331.056 232.163L331.056 232.163L331.056 232.163L331.056 232.162L331.056 232.162L331.056 232.162L331.056 232.162L331.056 232.161L331.056 232.161L331.056 232.161L331.057 232.161L331.057 232.161L331.057 232.16L331.057 232.16L331.057 232.16L331.057 232.16L331.057 232.16L331.057 232.159L331.057 232.159L331.057 232.159L331.057 232.159L331.057 232.159L331.058 232.158L331.058 232.158L331.058 232.158L331.058 232.158L331.058 232.158L331.058 232.157L331.058 232.157L331.058 232.157L331.058 232.157L331.058 232.157L331.058 232.156L331.058 232.156L331.059 232.156L331.059 232.156L331.059 232.156L331.059 232.155L331.059 232.155L331.059 232.155L331.059 232.155L331.059 232.155L331.059 232.154L331.059 232.154L331.059 232.154L331.059 232.154L331.06 232.154L331.06 232.153L331.06 232.153L331.06 232.153L331.06 232.153L331.06 232.152L331.06 232.152L331.06 232.152L331.06 232.152L331.06 232.152L331.06 232.151L331.06 232.151L331.061 232.151L331.061 232.151L331.061 232.151L331.061 232.15L331.061 232.15L331.061 232.15L331.061 232.15L331.061 232.15L331.061 232.149L331.061 232.149L331.061 232.149L331.061 232.149L331.062 232.149L331.062 232.148L331.062 232.148L331.062 232.148L331.062 232.148L331.062 232.148L331.062 232.147L331.062 232.147L331.062 232.147L331.062 232.147L331.062 232.147L331.062 232.146L331.063 232.146L331.063 232.146L331.063 232.146L331.063 232.146L331.063 232.145L331.063 232.145L331.063 232.145L331.063 232.145L331.063 232.145L331.063 232.144L331.063 232.144L331.063 232.144L331.064 232.144L331.064 232.143L331.064 232.143L331.064 232.143L331.064 232.143L331.064 232.143L331.064 232.142L331.064 232.142L331.064 232.142L331.064 232.142L331.064 232.142L331.064 232.141L331.065 232.141L331.065 232.141L331.065 232.141L331.065 232.141L331.065 232.14L331.065 232.14L331.065 232.14L331.065 232.14L331.065 232.14L331.065 232.139L331.065 232.139L331.065 232.139L331.066 232.139L331.066 232.139L331.066 232.138L331.066 232.138L331.066 232.138L331.066 232.138L331.066 232.138L331.066 232.137L331.066 232.137L331.066 232.137L331.066 232.137L331.066 232.137L331.067 232.136L331.067 232.136L331.067 232.136L331.067 232.136L331.067 232.136L331.067 232.135L331.067 232.135L331.067 232.135L331.067 232.135L331.067 232.135L331.067 232.134L331.067 232.134L331.068 232.134L331.068 232.134L331.068 232.133L331.068 232.133L331.068 232.133L331.068 232.133L331.068 232.133L331.068 232.132L331.068 232.132L331.068 232.132L331.068 232.132L331.068 232.132L331.069 232.131L331.069 232.131L331.069 232.131L331.069 232.131L331.069 232.131L331.069 232.13L331.069 232.13L331.069 232.13L331.069 232.13L331.069 232.13L331.069 232.129L331.069 232.129L331.07 232.129L331.07 232.129L331.07 232.129L331.07 232.128L331.07 232.128L331.07 232.128L331.07 232.128L331.07 232.128L331.07 232.127L331.07 232.127L331.07 232.127L331.07 232.127L331.07 232.127L331.071 232.126L331.071 232.126L331.071 232.126L331.071 232.126L331.071 232.126L331.071 232.125L331.071 232.125L331.071 232.125L331.071 232.125L331.071 232.125L331.071 232.124L331.071 232.124L331.072 232.124L331.072 232.124L331.072 232.124L331.072 232.123L331.072 232.123L331.072 232.123L331.072 232.123L331.072 232.122L331.072 232.122L331.072 232.122L331.072 232.122L331.072 232.122L331.073 232.121L331.073 232.121L331.073 232.121L331.073 232.121L331.073 232.121L331.073 232.12L331.073 232.12L331.073 232.12L331.073 232.12L331.073 232.12L331.073 232.119L331.073 232.119L331.074 232.119L331.074 232.119L331.074 232.119L331.074 232.118L331.074 232.118L331.074 232.118L331.074 232.118L331.074 232.118L331.074 232.117L331.074 232.117L331.074 232.117L331.074 232.117L331.075 232.117L331.075 232.116L331.075 232.116L331.075 232.116L331.075 232.116L331.075 232.116L331.075 232.115L331.075 232.115L331.075 232.115L331.075 232.115L331.075 232.115L331.075 232.114L331.076 232.114L331.076 232.114L331.076 232.114L331.076 232.114L331.076 232.113L331.076 232.113L331.076 232.113L331.076 232.113L331.076 232.113L331.076 232.112L331.076 232.112L331.076 232.112L331.077 232.112L331.077 232.111L331.077 232.111L331.077 232.111L331.077 232.111L331.077 232.111L331.077 232.11L331.077 232.11L331.077 232.11L331.077 232.11L331.078 232.108C331.87 230.143 332.558 228.396 332.77 225.531L332.77 225.531C333.115 220.852 332.487 217.729 331.399 215.4C330.413 213.294 329.058 211.851 327.725 210.506Z" fill="#FFA706" stroke="white"/>
<path d="M318.738 218.89L318.53 218.41L318.53 218.41C318.53 218.41 318.53 218.41 318.738 218.89ZM318.738 218.89L318.741 218.891L321.133 221.733M318.738 218.89L318.736 218.889L318.301 218.653C318.33 218.582 318.37 218.531 318.402 218.498C318.425 218.476 318.444 218.462 318.453 218.455C318.471 218.442 318.487 218.432 318.499 218.425C318.505 218.422 318.51 218.419 318.516 218.416L318.523 218.413L318.527 218.411L318.528 218.41L318.529 218.41L318.459 218.442L318.402 218.498C318.259 218.641 318.052 218.854 317.796 219.134C317.285 219.693 316.584 220.516 315.819 221.575L315.819 221.575C314.291 223.692 312.512 226.753 311.506 230.528C310.08 235.873 310.321 239.529 310.925 241.859C311.227 243.025 311.622 243.858 311.943 244.403C311.943 244.403 311.943 244.403 311.943 244.403L312.341 244.144M312.341 244.144C312.349 244.159 312.358 244.173 312.366 244.187C312.359 244.193 312.353 244.199 312.346 244.205L312.644 244.607C312.648 244.612 312.652 244.618 312.656 244.623C312.667 244.614 312.679 244.604 312.69 244.594L313.02 244.313C313.018 244.31 313.016 244.307 313.013 244.304C313.048 244.271 313.085 244.236 313.122 244.2M312.341 244.144C312.046 243.644 311.673 242.861 311.385 241.75L312.341 244.144ZM313.122 244.2L313.452 244.601C313.452 244.601 313.452 244.601 313.452 244.601C313.92 244.153 314.578 243.46 315.345 242.473C316.881 240.5 318.854 237.353 320.607 232.661C320.607 232.661 320.607 232.661 320.607 232.661L320.162 232.437M313.122 244.2C313.574 243.767 314.217 243.09 314.971 242.121M313.122 244.2L314.971 242.121M320.162 232.437C321.995 227.533 321.554 224.101 320.695 221.909M320.162 232.437C318.426 237.082 316.478 240.185 314.971 242.121M320.162 232.437L314.971 242.121M320.695 221.909L321.133 221.733M320.695 221.909L321.133 221.733M320.695 221.909C320.261 220.804 319.717 220 319.281 219.473C319.218 219.397 319.157 219.327 319.099 219.262C319.127 219.23 319.157 219.186 319.181 219.128C319.209 219.059 319.227 218.969 319.216 218.866C319.205 218.762 319.167 218.676 319.126 218.612C319.097 218.568 319.066 218.534 319.04 218.509C319.03 218.5 319.021 218.492 319.013 218.485C318.997 218.472 318.983 218.461 318.97 218.453C318.963 218.449 318.957 218.445 318.951 218.441L318.943 218.436L318.939 218.434L318.937 218.433L318.936 218.432L318.991 218.463L319.04 218.509C319.189 218.649 319.394 218.859 319.627 219.14L319.627 219.141C320.095 219.707 320.674 220.563 321.133 221.733" fill="#FFA706" stroke="white"/>
<path d="M304.833 223.526C304.835 223.527 304.837 223.529 304.839 223.53C305.002 223.654 305.223 223.84 305.472 224.097L305.472 224.098C305.98 224.622 306.6 225.443 307.06 226.628L307.06 226.628C307.982 228.999 308.262 232.815 305.776 238.646L305.776 238.646C304.147 242.466 302.105 245.272 300.469 247.121C299.651 248.047 298.935 248.733 298.422 249.189L298.422 249.189C298.219 249.369 298.048 249.515 297.914 249.624L297.503 249.958L297.211 249.456C297.13 249.318 297.035 249.142 296.93 248.928L296.93 248.928C296.638 248.329 296.282 247.434 296.018 246.24L296.483 246.152L296.018 246.24C295.49 243.851 295.332 240.272 296.795 235.482L304.833 223.526ZM304.833 223.526L304.525 223.267L304.24 223.536L304.239 223.537C304.233 223.543 304.223 223.553 304.212 223.563C304.06 223.706 303.843 223.916 303.576 224.19L304.833 223.526ZM301.479 226.61L301.479 226.61C302.293 225.561 303.036 224.745 303.576 224.19L301.479 226.61ZM301.479 226.61C299.852 228.709 297.937 231.743 296.795 235.482L301.479 226.61Z" fill="#FFA706" stroke="white"/>
<path d="M117.31 274.358L116.884 274.334L116.889 273.917C116.852 273.691 116.811 273.373 116.789 272.977L116.789 272.976C116.741 272.134 116.775 270.937 117.105 269.526C117.766 266.698 119.612 263.017 124.34 259.613L124.371 259.667L124.371 259.667L124.34 259.613C127.319 257.468 131.095 256.074 134.116 255.217L134.116 255.217C135.629 254.789 136.956 254.493 137.906 254.305C138.355 254.215 138.72 254.15 138.98 254.106L139.524 254.014L139.5 254.608C139.49 254.84 139.469 255.139 139.428 255.496L139.428 255.496L139.428 255.498C139.322 256.4 139.082 257.677 138.543 259.165L138.543 259.165C137.464 262.145 135.188 265.973 130.408 269.357L130.408 269.357C126.336 272.239 122.993 273.484 120.662 274.008C119.497 274.27 118.586 274.351 117.965 274.367L117.965 274.367C117.689 274.374 117.469 274.368 117.31 274.358Z" fill="#FFA706" stroke="white"/>
<path d="M98.3082 265.712L98.3082 265.712C98.3098 266.074 98.3392 266.361 98.3707 266.561C98.3708 266.562 98.3709 266.562 98.371 266.563L98.3713 266.564L98.372 266.569L98.4281 266.939L98.7735 266.969C98.9362 266.984 99.1739 266.999 99.4832 267.002L99.4832 267.002C100.121 267.009 101.064 266.968 102.284 266.771C104.723 266.377 108.27 265.363 112.712 262.89L112.712 262.89C117.84 260.034 120.271 256.906 121.418 254.481C121.991 253.269 122.242 252.235 122.35 251.503L122.35 251.503C122.393 251.206 122.413 250.959 122.421 250.769L122.444 250.231L121.949 250.261C121.714 250.276 121.372 250.3 120.944 250.339C120.944 250.339 120.944 250.339 120.944 250.339L120.951 250.857L98.3082 265.712ZM98.3082 265.712C98.3051 264.985 98.4197 263.953 98.8842 262.73L98.3082 265.712Z" fill="#FFA706" stroke="white"/>
<path d="M105.81 243.162C104.853 242.861 103.505 242.476 101.943 242.133C98.8222 241.449 94.8286 240.935 91.3801 241.636L91.4363 242.146L91.3801 241.636C85.4133 242.849 82.3115 245.847 80.7083 248.551L80.7082 248.551C79.9095 249.899 79.4871 251.168 79.264 252.098L105.81 243.162ZM105.81 243.162C106.288 243.311 106.667 243.44 106.928 243.531C106.937 243.534 106.945 243.536 106.948 243.537C106.95 243.538 106.951 243.538 106.951 243.539C106.952 243.539 106.952 243.539 106.952 243.539L107.363 243.671L107.247 244.14C107.184 244.395 107.087 244.746 106.943 245.169L106.943 245.169C106.632 246.076 106.104 247.312 105.229 248.622C103.475 251.249 100.34 254.162 94.8331 255.324L94.8331 255.324C90.0726 256.328 86.1175 255.901 83.3547 255.223L105.81 243.162Z" fill="#FFA706" stroke="white"/>
<path d="M88.5979 234.38L88.5983 234.379C88.7515 234.004 88.8548 233.692 88.921 233.461L89.0488 233.015L88.6659 232.852L88.6352 232.839L88.6315 232.837L88.6315 232.837C88.3885 232.736 88.0313 232.592 87.5747 232.423C86.6617 232.085 85.3551 231.65 83.7773 231.257C80.6245 230.471 76.3807 229.854 72.0387 230.536L72.0434 230.604L72.0434 230.604L72.0387 230.536C66.3616 231.43 63.058 234.255 61.1697 236.896C59.6984 238.953 59.0912 240.888 58.8763 241.709L58.7685 242.121L59.1102 242.294C59.3054 242.392 59.5911 242.53 59.9603 242.688C60.716 243.012 61.8219 243.422 63.2246 243.772C66.0294 244.472 70.0252 244.929 74.7817 243.957L74.7818 243.957C81.16 242.652 84.7256 239.931 86.6955 237.522L88.5979 234.38ZM88.5979 234.38C88.2611 235.2 87.6788 236.32 86.6955 237.522L88.5979 234.38Z" fill="#FFA706" stroke="white"/>
<path d="M50.8875 219.15L50.8872 219.15C49.8283 219.946 49.0459 220.749 48.5223 221.368C48.5221 221.368 48.522 221.368 48.5219 221.368L48.8639 221.706C48.7819 221.803 48.7067 221.895 48.6384 221.981L50.8875 219.15ZM50.8875 219.15C53.0085 217.558 56.2325 216.001 60.6906 216.02L50.8875 219.15ZM78.4545 222.036L77.9814 221.731C77.7298 221.568 77.3612 221.337 76.8919 221.06L76.8918 221.06C75.9498 220.504 74.5985 219.762 72.9621 219.019L72.9621 219.019C69.6908 217.534 65.2698 216.04 60.6907 216.02L78.4545 222.036ZM78.4545 222.036L78.0647 222.513M78.4545 222.036L78.0647 222.513M78.0647 222.513C77.9386 222.668 77.7737 222.857 77.5659 223.074L78.0647 222.513Z" fill="#FFA706" stroke="white"/>
<path d="M40.5472 195.526L40.5481 195.526C40.8211 195.367 41.2142 195.159 41.7094 194.935C42.701 194.485 44.1094 193.966 45.8051 193.647L45.8054 193.647C49.2 193.012 53.7362 193.185 58.3759 196.314C61.6968 198.554 64.237 201.682 66.441 204.432L66.4413 204.433L66.6023 204.634C66.6023 204.634 66.6024 204.634 66.6025 204.634C66.6025 204.634 66.6025 204.634 66.6025 204.634C67.6441 205.934 68.6115 207.141 69.5532 208.121L69.5534 208.122C70.2378 208.835 70.9098 209.428 71.5879 209.85L72.5569 210.454L71.4315 210.806C71.3647 210.827 71.2959 210.848 71.2246 210.869L71.2238 210.87C70.4347 211.107 69.2785 211.386 67.7996 211.558L67.7994 211.558C64.8395 211.901 60.5929 211.813 55.4267 210.099L55.4267 210.099C50.5592 208.483 46.7165 204.933 44.0935 201.794L44.0934 201.794C42.7812 200.223 41.772 198.754 41.0913 197.677L41.0911 197.676C40.7512 197.138 40.4923 196.697 40.3188 196.391L40.3185 196.39C40.3036 196.364 40.2897 196.34 40.2767 196.317L40.0133 195.863L40.4667 195.574C40.4946 195.556 40.5385 195.531 40.5461 195.527L40.5472 195.526Z" fill="#FFA706" stroke="white"/>
<path d="M38.0719 169.69C38.3491 169.628 38.7435 169.558 39.2345 169.504L39.2346 169.504C40.2166 169.396 41.586 169.355 43.1763 169.587L43.1764 169.587C46.3584 170.054 50.4104 171.618 53.9968 175.934L53.9969 175.934C56.5653 179.025 58.7685 183.02 60.3308 186.241L60.3308 186.241C61.1115 187.851 61.7322 189.269 62.1573 190.283L62.1574 190.283C62.3587 190.764 62.5161 191.154 62.6263 191.431L62.8727 192.05L62.2402 192.177C62.1075 192.203 61.9449 192.232 61.7534 192.256C61.1332 192.335 60.2202 192.372 59.0364 192.21M38.0719 169.69L38.1347 170.191L38.0902 170.21L38.0996 170.284L38.0996 170.284L38.1546 170.719L38.1989 170.709L38.1996 170.709C38.2141 170.706 38.229 170.703 38.2444 170.699C38.3319 170.969 38.4405 171.292 38.5713 171.66C38.9882 172.832 39.6284 174.457 40.5229 176.266M38.0719 169.69L38.0258 169.7L37.4614 169.825L37.634 170.401L37.656 170.474L37.6562 170.474C37.758 170.804 37.9123 171.283 38.1231 171.876L38.1232 171.877C38.5453 173.063 39.1928 174.707 40.0975 176.537M38.0719 169.69L38.0726 169.689L38.1347 170.191M40.5229 176.266C42.2556 179.774 44.929 183.949 48.7523 186.867L48.7233 186.924L48.5362 187.286L48.9147 187.497L48.8525 187.592C48.8525 187.592 48.8525 187.593 48.8525 187.593M40.5229 176.266L40.0976 176.537C40.0976 176.537 40.0976 176.537 40.0975 176.537M40.5229 176.266L40.0975 176.537M48.8525 187.593L48.9147 187.497L48.95 187.516L49.3637 187.746L49.5257 187.432C53.6559 190.354 56.907 191.389 59.1282 191.693L59.0363 192.21C59.0363 192.21 59.0364 192.21 59.0364 192.21M48.8525 187.593C53.2172 190.764 56.6675 191.885 59.0364 192.21M48.8525 187.593C44.7407 184.606 41.9049 180.195 40.0975 176.537M59.0364 192.21L38.1347 170.191M38.1347 170.191L38.5465 170.018L38.5663 170.084L38.4373 170.139C38.3241 170.16 38.2233 170.18 38.1357 170.199L38.1347 170.191ZM38.5665 170.084L38.4397 170.138C38.4833 170.131 38.5287 170.123 38.5759 170.115C38.5727 170.104 38.5696 170.094 38.5665 170.084L38.5665 170.084Z" fill="#FFA706" stroke="white"/>
<path d="M58.751 172.182L58.7518 172.182C58.852 172.173 58.9418 172.161 59.0223 172.147L59.5594 172.054L59.4474 171.491C59.3943 171.223 59.315 170.836 59.2074 170.352C58.9893 169.365 58.6554 167.972 58.1928 166.346C57.268 163.095 55.8287 158.912 53.7708 155.189L58.751 172.182ZM58.751 172.182C58.2864 172.22 57.5855 172.189 56.6268 171.914C54.7113 171.364 51.7613 169.84 47.5918 165.953C43.6633 162.291 41.2767 157.315 39.8714 153.258L39.8713 153.258C39.1687 151.228 38.7107 149.428 38.4288 148.134L38.4287 148.134C38.2886 147.489 38.1915 146.97 38.1297 146.611M58.751 172.182L38.1297 146.611M38.1297 146.611C38.1224 146.57 38.1156 146.531 38.1095 146.492L38.0213 145.935L38.547 145.855C38.568 145.852 38.5717 145.851 38.575 145.851C38.578 145.85 38.5806 145.85 38.5965 145.847L38.5965 145.847L38.6027 145.847C38.8842 145.807 39.285 145.768 39.78 145.76L39.7803 145.76C40.7692 145.744 42.1374 145.85 43.6937 146.311L38.1297 146.611ZM43.6938 146.311C46.8086 147.234 50.6688 149.576 53.7707 155.189L43.6938 146.311Z" fill="#FFA706" stroke="white"/>
<path d="M57.3813 147.906L57.3494 147.316C57.3355 147.059 57.3125 146.7 57.2761 146.254L57.2761 146.254C57.1975 145.297 57.0562 143.942 56.8039 142.348L56.8039 142.348C56.2991 139.16 55.3505 135.014 53.5739 131.185L53.1434 131.444L53.5739 131.185C51.108 125.87 47.7933 122.927 45.0694 121.322L57.3813 147.906ZM57.3813 147.906L56.836 147.903M57.3813 147.906L56.836 147.903M56.836 147.903C56.6693 147.902 56.456 147.894 56.2018 147.873L56.2017 147.873C55.5423 147.817 54.6081 147.666 53.4996 147.29L53.4995 147.29C51.2823 146.537 48.3739 144.881 45.5827 141.272L45.5826 141.272C40.9858 135.327 39.5858 129.911 39.3364 125.976L39.3364 125.976C39.212 124.009 39.3749 122.412 39.5694 121.305L39.5695 121.305C39.6671 120.751 39.7728 120.321 39.8537 120.028L39.8539 120.028C39.8555 120.022 39.8572 120.016 39.8589 120.01C39.8683 119.976 39.879 119.937 39.89 119.901L40.0244 119.453L40.4412 119.515C40.469 119.519 40.4995 119.524 40.5268 119.529C40.5348 119.53 40.5426 119.532 40.5499 119.533L40.5499 119.533L40.5542 119.534C40.8086 119.579 41.1682 119.659 41.6105 119.789L41.6106 119.79M56.836 147.903L41.6106 119.79M41.6106 119.79C42.4949 120.052 43.7078 120.519 45.0693 121.322L41.6106 119.79Z" fill="#FFA706" stroke="white"/>
<path d="M58.4016 126.285L58.4021 126.286C58.5403 126.419 58.6652 126.538 58.776 126.64L59.5035 127.308L59.5769 126.236C59.5931 125.998 59.6108 125.709 59.6283 125.373L59.6283 125.372C59.6804 124.36 59.7286 122.923 59.711 121.226C59.6764 117.83 59.3804 113.392 58.3352 109.219C57.355 105.3 55.451 101.682 53.6871 98.9874L53.6871 98.9873C52.805 97.6402 51.9575 96.5243 51.2786 95.7173L58.4016 126.285ZM58.4016 126.285C57.8451 125.746 57.0643 124.937 56.1673 123.857C54.373 121.697 52.1145 118.454 50.2529 114.119C47.4849 107.677 47.3311 102.751 47.8746 99.4254L47.8746 99.4254C48.1466 97.7619 48.5929 96.4996 48.9741 95.6498C49.164 95.226 49.3375 94.9053 49.4647 94.6891L49.7749 94.1617L50.1866 94.5407C50.2481 94.5973 50.3193 94.6654 50.4006 94.7459L50.4006 94.7459M58.4016 126.285L50.4006 94.7459M50.4006 94.7459L50.4022 94.7476M50.4006 94.7459L50.4022 94.7476M50.4022 94.7476C50.6413 94.9871 50.9391 95.3136 51.2786 95.7173L50.4022 94.7476Z" fill="#FFA706" stroke="white"/>
<path d="M64.8236 106.177L65.0283 105.237C65.0784 105.007 65.1365 104.723 65.1995 104.389L65.1996 104.389C65.3814 103.423 65.6011 102.042 65.7527 100.376L65.7527 100.376C66.0556 97.0446 66.086 92.5764 64.9963 88.0241L64.9963 88.0241C64.0933 84.2516 62.6079 80.6095 61.1159 77.7471L61.1158 77.7469C60.3691 76.3161 59.6207 75.0801 58.9423 74.12L64.8236 106.177ZM64.8236 106.177L64.217 105.536M64.8236 106.177L64.217 105.536M64.217 105.536C62.8488 104.088 59.9014 100.495 56.9929 92.4449L56.9929 92.4448C54.8064 86.3922 54.8023 81.3432 55.3479 77.8009L55.3479 77.8009M64.217 105.536L55.3479 77.8009M57.0753 72.0058L56.7897 72.644C56.6797 72.8899 56.5342 73.2386 56.3739 73.6839L57.0753 72.0058ZM57.0753 72.0058L57.5426 72.4395M57.0753 72.0058L57.5426 72.4395M57.5426 72.4395C57.9422 72.8104 58.4193 73.3793 58.9422 74.1198L57.5426 72.4395ZM55.3479 77.8009C55.6208 76.0298 56.0307 74.6365 56.3738 73.684L55.3479 77.8009Z" fill="#FFA706" stroke="white"/>
<path d="M81.5875 82.1994L81.5875 82.1994L81.6528 82.2411C83.459 79.1269 84.8201 75.0076 85.6645 71.3707C86.0875 69.5507 86.3819 67.8485 86.5384 66.4494L81.5875 82.1994ZM81.5875 82.1994L81.6528 82.2411C80.028 85.0423 76.9047 87.562 74.2064 89.3746C72.8543 90.2829 71.6037 91.0171 70.6905 91.5246C70.2964 91.7437 69.9646 91.9207 69.7159 92.0507L69.0482 92.3996M81.5875 82.1994L69.0482 92.3996M69.0482 92.3996L69.0545 91.6158M69.0482 92.3996L69.0545 91.6158M69.0545 91.6158C69.0734 89.267 69.6249 82.8858 72.5154 75.0761C74.6653 69.2664 78.1595 66.3181 81.1274 64.828C82.6083 64.0844 83.9537 63.7059 84.9293 63.513L84.9295 63.5129C85.417 63.4167 85.8125 63.3668 86.0871 63.3406L86.0871 63.3405L86.0916 63.3401C86.0965 63.3397 86.1036 63.3391 86.1118 63.3384C86.1293 63.3368 86.1517 63.3348 86.168 63.3335L86.6038 63.3003M69.0545 91.6158L86.6038 63.3003M86.6038 63.3003L86.6452 63.7677M86.6038 63.3003L86.6452 63.7677M86.6452 63.7677C86.7004 64.3916 86.6657 65.3136 86.5385 66.4493L86.6452 63.7677Z" fill="#FFA706" stroke="white"/>
<path d="M64.7096 110.764L64.0477 110.8L64.2671 110.106C64.334 109.894 64.4214 109.629 64.5323 109.318C64.8375 108.463 65.3173 107.264 66.0165 105.89L66.0165 105.89C67.4147 103.142 69.6923 99.6884 73.2094 96.8768L73.2094 96.8768C78.3978 92.7293 83.1765 91.2868 86.8127 91.4564L87.3851 91.4831L87.2174 92.0932C87.1504 92.3372 87.0543 92.6613 86.924 93.0509C86.6194 93.9637 86.1274 95.2377 85.378 96.6841C83.8799 99.5766 81.3511 103.163 77.2299 105.924C70.823 110.218 66.5251 110.666 64.7096 110.764Z" fill="#FFA706" stroke="white"/>
<path d="M81.3932 111.221L80.8987 111.173C79.2462 111.01 77.6435 111.017 75.8623 111.527L81.3932 111.221ZM81.3932 111.221L81.292 111.761M81.3932 111.221L81.292 111.761M81.292 111.761C81.2501 111.984 81.1884 112.279 81.0995 112.634L81.292 111.761ZM69.2428 115.417L69.1978 115.348C71.8098 113.219 73.9339 112.08 75.8622 111.527L69.2428 115.417ZM69.2428 115.417L69.2428 115.417L69.1978 115.348C65.8002 118.118 63.656 121.481 62.3627 124.146L62.3626 124.146C61.7162 125.479 61.2807 126.639 61.0074 127.466C60.9087 127.764 60.8315 128.018 60.7728 128.222L60.5909 128.853L61.1865 128.866C61.2021 128.866 61.2171 128.867 61.2317 128.867L61.2347 128.867L61.2372 128.867C61.9427 128.887 62.9713 128.916 64.4437 128.597C66.3585 128.181 68.9762 127.179 72.4568 124.82C72.4568 124.82 72.4568 124.82 72.4568 124.82L69.2428 115.417ZM81.0994 112.634C80.8878 113.48 80.5225 114.665 79.9078 116.018L81.0994 112.634Z" fill="#FFA706" stroke="white"/>
<path d="M79.6233 127.288L80.1765 127.241L80.102 127.841C79.9133 129.36 79.4942 132.304 78.4548 135.545C77.4168 138.782 75.7478 142.355 73.0375 145.099C67.387 150.819 61.9436 151.851 59.9332 152.228L59.311 152.344L59.4113 151.667C59.4487 151.414 59.5014 151.091 59.5704 150.71L59.5706 150.709C59.7523 149.713 60.053 148.307 60.5327 146.668C61.4898 143.395 63.1609 139.187 66.0156 135.473C68.9362 131.673 71.5241 129.689 73.8571 128.619L73.8571 128.619C75.991 127.641 77.8964 127.434 79.6233 127.288Z" fill="#FFA706" stroke="white"/>
<path d="M61.7199 171.77L61.1149 171.929L61.1607 171.262C61.1785 171.003 61.205 170.672 61.2436 170.279L61.2436 170.279C61.3443 169.253 61.5315 167.804 61.8744 166.108L61.8744 166.108C62.5602 162.718 63.8734 158.329 66.3853 154.368C68.955 150.315 71.3413 148.128 73.552 146.887L73.552 146.887C75.5743 145.753 77.4315 145.421 79.1129 145.164L79.6512 145.081L79.6256 145.668C79.5577 147.225 79.3738 150.246 78.6053 153.609C77.8381 156.966 76.4783 160.708 74.0315 163.674C68.9288 169.862 63.6656 171.259 61.7199 171.77Z" fill="#FFA706" stroke="white"/>
<path d="M69.2845 172.607L69.2846 172.607C70.8766 168.071 73.0862 165.611 75.3446 164.116L75.5724 164.555L75.3446 164.116C76.9826 163.031 78.6105 162.471 80.0257 161.984L80.0362 161.98C80.0362 161.98 80.0363 161.98 80.0363 161.98C80.3918 161.858 80.7311 161.741 81.058 161.62L81.6824 161.389L81.6622 162.092C81.533 166.59 81.3181 173.311 78.2245 180.02C74.7999 187.448 68.9509 190.453 66.776 191.544L65.9815 191.942L66.1292 191.019C66.4186 189.21 66.5968 187.418 66.7776 185.598L66.7776 185.598L66.781 185.564C66.8759 184.612 66.9716 183.653 67.084 182.686L67.084 182.686C67.4481 179.56 67.9959 176.281 69.2845 172.607Z" fill="#FFA706" stroke="white"/>
<path d="M74.1979 191.651C75.3972 186.823 77.356 184.032 79.4535 182.21C80.9908 180.876 82.5694 180.083 83.957 179.387L83.9728 179.379C83.9729 179.379 83.973 179.379 83.973 179.379C84.0146 179.358 84.0559 179.337 84.0969 179.317C84.3811 179.174 84.6549 179.036 84.9208 178.896L85.5427 178.569L85.5828 179.295C85.8356 183.876 85.8778 190.576 83.3517 197.821L83.3517 197.821C80.6403 205.598 75.2938 208.652 73.0268 209.948L73.024 209.949L73.0218 209.951C72.9765 209.976 72.9378 209.998 72.8987 210.021C72.8671 210.039 72.8352 210.057 72.7992 210.078L72.0557 210.5L72.1241 209.612C72.2381 208.133 72.3095 206.752 72.3797 205.391C72.3797 205.391 72.3797 205.391 72.3797 205.391L72.3802 205.382C72.5938 201.224 72.7958 197.295 74.1979 191.651ZM74.1979 191.651L74.6596 191.754M74.1979 191.651L74.6596 191.754M74.6596 191.754C73.2709 197.344 73.0713 201.227 72.8578 205.382L72.8577 205.385L84.6365 179.603C84.5163 179.664 84.3948 179.725 84.2723 179.787C84.2312 179.807 84.19 179.828 84.1487 179.849C82.7534 180.549 81.2233 181.317 79.7362 182.608C77.7333 184.347 75.8328 187.031 74.6596 191.754Z" fill="#FFA706" stroke="white"/>
<path d="M93.4571 190.478L92.8496 190.879C92.7877 190.92 92.7249 190.961 92.6615 191.003C92.5628 191.068 92.4625 191.134 92.3618 191.2L92.3441 191.212C90.8193 192.212 88.9801 193.419 87.3693 195.304C85.7417 197.208 84.3627 199.782 83.716 203.501C83.0481 207.339 82.9905 209.583 82.9833 211.978C82.9828 212.117 82.9826 212.257 82.9824 212.398C82.9822 212.474 82.9821 212.551 82.982 212.628L82.982 212.628L82.9819 212.636C82.9793 214.638 82.9764 216.848 82.6617 220.239L82.5468 221.477L83.4368 220.639C83.9531 220.153 84.5195 219.688 85.1173 219.201L93.4571 190.478ZM93.4571 190.478L93.551 191.213M93.4571 190.478L93.551 191.213M93.551 191.213C94.1022 195.529 94.5954 201.318 92.6405 208.47L92.6405 208.47C91.5423 212.488 89.7495 214.956 87.8799 216.8L87.8797 216.801C87.0021 217.666 86.1092 218.393 85.2724 219.074L85.2642 219.081L85.2633 219.081M93.551 191.213L85.2633 219.081M85.2633 219.081C85.2345 219.105 85.2121 219.123 85.1885 219.143M85.2633 219.081L85.1885 219.143M85.1885 219.143C85.1675 219.16 85.1457 219.178 85.1175 219.201L85.1885 219.143Z" fill="#FFA706" stroke="white"/>
<path d="M92.3318 223.357L92.3322 223.359C92.7063 225.544 93.1114 227.916 93.1963 230.943L93.2334 232.268L94.0363 231.205C94.4187 230.699 94.8157 230.204 95.2223 229.698L95.2443 229.67L95.2443 229.67L95.2558 229.656C97.4067 226.977 99.7187 224.097 100.327 218.819L92.3318 223.357ZM92.3318 223.357C92.3259 223.321 92.3191 223.281 92.3121 223.24C92.303 223.187 92.2937 223.132 92.2856 223.083C91.8534 220.553 91.4853 218.252 91.7471 215.453C92.1737 210.882 93.2771 208.008 94.6965 205.995C95.9683 204.19 97.4828 203.093 98.9589 202.091L99.5995 201.656L99.6685 202.442C99.8654 204.687 100.049 206.401 100.206 207.797L100.206 207.798M92.3318 223.357L100.206 207.798M100.206 207.798C100.226 207.982 100.246 208.159 100.266 208.332M100.206 207.798L100.266 208.332M100.302 208.658L100.306 208.696C100.431 209.797 100.533 210.694 100.6 211.529L100.302 208.658ZM100.302 208.658C100.29 208.551 100.278 208.443 100.266 208.332M100.302 208.658L100.266 208.332" fill="#FFA706" stroke="white"/>
<path d="M106.933 210.506L107.464 209.97L107.697 210.669C108.03 211.668 108.364 212.583 108.686 213.467L108.71 213.531L108.71 213.531L108.71 213.533C110.065 217.242 111.195 220.333 110.964 225.955L110.964 225.955C110.858 228.519 110.101 230.995 109.136 233.343C108.532 234.815 107.855 236.217 107.207 237.562L107.191 237.594L107.191 237.595L107.184 237.61C106.976 238.039 106.772 238.461 106.573 238.881L105.957 240.178L105.682 238.813C105.084 235.838 104.317 233.935 103.623 232.214L103.623 232.214L103.623 232.214L103.623 232.214L103.623 232.214L103.623 232.213L103.623 232.213L103.623 232.213L103.623 232.213L103.623 232.213L103.623 232.212L103.622 232.212L103.622 232.212L103.622 232.212L103.622 232.211L103.622 232.211L103.622 232.211L103.622 232.211L103.622 232.211L103.622 232.21L103.622 232.21L103.622 232.21L103.621 232.21L103.621 232.21L103.621 232.209L103.621 232.209L103.621 232.209L103.621 232.209L103.621 232.209L103.621 232.208L103.621 232.208L103.621 232.208L103.621 232.208L103.621 232.208L103.62 232.207L103.62 232.207L103.62 232.207L103.62 232.207L103.62 232.206L103.62 232.206L103.62 232.206L103.62 232.206L103.62 232.206L103.62 232.205L103.62 232.205L103.62 232.205L103.619 232.205L103.619 232.205L103.619 232.204L103.619 232.204L103.619 232.204L103.619 232.204L103.619 232.204L103.619 232.203L103.619 232.203L103.619 232.203L103.619 232.203L103.619 232.203L103.618 232.202L103.618 232.202L103.618 232.202L103.618 232.202L103.618 232.201L103.618 232.201L103.618 232.201L103.618 232.201L103.618 232.201L103.618 232.2L103.618 232.2L103.618 232.2L103.617 232.2L103.617 232.2L103.617 232.199L103.617 232.199L103.617 232.199L103.617 232.199L103.617 232.199L103.617 232.198L103.617 232.198L103.617 232.198L103.617 232.198L103.617 232.198L103.616 232.197L103.616 232.197L103.616 232.197L103.616 232.197L103.616 232.197L103.616 232.196L103.616 232.196L103.616 232.196L103.616 232.196L103.616 232.195L103.616 232.195L103.616 232.195L103.615 232.195L103.615 232.195L103.615 232.194L103.615 232.194L103.615 232.194L103.615 232.194L103.615 232.194L103.615 232.193L103.615 232.193L103.615 232.193L103.615 232.193L103.614 232.193L103.614 232.192L103.614 232.192L103.614 232.192L103.614 232.192L103.614 232.192L103.614 232.191L103.614 232.191L103.614 232.191L103.614 232.191L103.614 232.191L103.614 232.19L103.613 232.19L103.613 232.19L103.613 232.19L103.613 232.189L103.613 232.189L103.613 232.189L103.613 232.189L103.613 232.189L103.613 232.188L103.613 232.188L103.613 232.188L103.613 232.188L103.612 232.188L103.612 232.187L103.612 232.187L103.612 232.187L103.612 232.187L103.612 232.187L103.612 232.186L103.612 232.186L103.612 232.186L103.612 232.186L103.612 232.186L103.612 232.185L103.611 232.185L103.611 232.185L103.611 232.185L103.611 232.185L103.611 232.184L103.611 232.184L103.611 232.184L103.611 232.184L103.611 232.184L103.611 232.183L103.611 232.183L103.611 232.183L103.61 232.183L103.61 232.182L103.61 232.182L103.61 232.182L103.61 232.182L103.61 232.182L103.61 232.181L103.61 232.181L103.61 232.181L103.61 232.181L103.61 232.181L103.61 232.18L103.609 232.18L103.609 232.18L103.609 232.18L103.609 232.18L103.609 232.179L103.609 232.179L103.609 232.179L103.609 232.179L103.609 232.179L103.609 232.178L103.609 232.178L103.609 232.178L103.608 232.178L103.608 232.178L103.608 232.177L103.608 232.177L103.608 232.177L103.608 232.177L103.608 232.177L103.608 232.176L103.608 232.176L103.608 232.176L103.608 232.176L103.608 232.175L103.607 232.175L103.607 232.175L103.607 232.175L103.607 232.175L103.607 232.174L103.607 232.174L103.607 232.174L103.607 232.174L103.607 232.174L103.607 232.173L103.607 232.173L103.607 232.173L103.606 232.173L103.606 232.173L103.606 232.172L103.606 232.172L103.606 232.172L103.606 232.172L103.606 232.172L103.606 232.171L103.606 232.171L103.606 232.171L103.606 232.171L103.606 232.171L103.605 232.17L103.605 232.17L103.605 232.17L103.605 232.17L103.605 232.17L103.605 232.169L103.605 232.169L103.605 232.169L103.605 232.169L103.605 232.169L103.605 232.168L103.605 232.168L103.604 232.168L103.604 232.168L103.604 232.167L103.604 232.167L103.604 232.167L103.604 232.167L103.604 232.167L103.604 232.166L103.604 232.166L103.604 232.166L103.604 232.166L103.604 232.166L103.603 232.165L103.603 232.165L103.603 232.165L103.603 232.165L103.603 232.165L103.603 232.164L103.603 232.164L103.603 232.164L103.603 232.164L103.603 232.164L103.603 232.163L103.603 232.163L103.602 232.163L103.602 232.163L103.602 232.163L103.602 232.162L103.602 232.162L103.602 232.162L103.602 232.162L103.602 232.162L103.602 232.161L103.602 232.161L103.602 232.161L103.602 232.161L103.601 232.161L103.601 232.16L103.601 232.16L103.601 232.16L103.601 232.16L103.601 232.159L103.601 232.159L103.601 232.159L103.601 232.159L103.601 232.159L103.601 232.158L103.601 232.158L103.6 232.158L103.6 232.158L103.6 232.158L103.6 232.157L103.6 232.157L103.6 232.157L103.6 232.157L103.6 232.157L103.6 232.156L103.6 232.156L103.6 232.156L103.6 232.156L103.599 232.156L103.599 232.155L103.599 232.155L103.599 232.155L103.599 232.155L103.599 232.155L103.599 232.154L103.599 232.154L103.599 232.154L103.599 232.154L103.599 232.154L103.599 232.153L103.598 232.153L103.598 232.153L103.598 232.153L103.598 232.153L103.598 232.152L103.598 232.152L103.598 232.152L103.598 232.152L103.598 232.152L103.598 232.151L103.598 232.151L103.598 232.151L103.597 232.151L103.597 232.15L103.597 232.15L103.597 232.15L103.597 232.15L103.597 232.15L103.597 232.149L103.597 232.149L103.597 232.149L103.597 232.149L103.597 232.149L103.597 232.148L103.596 232.148L103.596 232.148L103.596 232.148L103.596 232.148L103.596 232.147L103.596 232.147L103.596 232.147L103.596 232.147L103.596 232.147L103.596 232.146L103.596 232.146L103.596 232.146L103.595 232.146L103.595 232.146L103.595 232.145L103.595 232.145L103.595 232.145L103.595 232.145L103.595 232.145L103.595 232.144L103.595 232.144L103.595 232.144L103.595 232.144L103.595 232.144L103.594 232.143L103.594 232.143L103.594 232.143L103.594 232.143L103.594 232.143L103.594 232.142L103.594 232.142L103.594 232.142L103.594 232.142L103.594 232.141L103.594 232.141L103.594 232.141L103.593 232.141L103.593 232.141L103.593 232.14L103.593 232.14L103.593 232.14L103.593 232.14L103.593 232.14L103.593 232.139L103.593 232.139L103.593 232.139L103.593 232.139L103.593 232.139L103.592 232.138L103.592 232.138L103.592 232.138L103.592 232.138L103.592 232.138L103.592 232.137L103.592 232.137L103.592 232.137L103.592 232.137L103.592 232.137L103.592 232.136L103.592 232.136L103.591 232.136L103.591 232.136L103.591 232.136L103.591 232.135L103.591 232.135L103.591 232.135L103.591 232.135L103.591 232.135L103.591 232.134L103.591 232.134L103.591 232.134L103.591 232.134L103.59 232.134L103.59 232.133L103.59 232.133L103.59 232.133L103.59 232.133L103.59 232.133L103.59 232.132L103.59 232.132L103.59 232.132L103.59 232.132L103.59 232.131L103.59 232.131L103.589 232.131L103.589 232.131L103.589 232.131L103.589 232.13L103.589 232.13L103.589 232.13L103.589 232.13L103.589 232.13L103.589 232.129L103.589 232.129L103.589 232.129L103.589 232.129L103.588 232.129L103.588 232.128L103.588 232.128L103.588 232.128L103.588 232.128L103.588 232.128L103.588 232.127L103.588 232.127L103.588 232.127L103.588 232.127L103.588 232.127L103.588 232.126L103.587 232.126L103.587 232.126L103.587 232.126L103.587 232.126L103.587 232.125L103.587 232.125L103.587 232.125L103.587 232.125L103.587 232.125L103.587 232.124L103.587 232.124L103.587 232.124L103.586 232.124L103.586 232.124L103.586 232.123L103.586 232.123L103.586 232.123L103.586 232.123L103.586 232.123L103.586 232.122L103.586 232.122L103.586 232.122L103.586 232.122L103.586 232.122L103.585 232.121L103.585 232.121L103.585 232.121L103.585 232.121L103.585 232.12L103.585 232.12L103.585 232.12L103.585 232.12L103.585 232.12L103.585 232.119L103.585 232.119L103.585 232.119L103.584 232.119L103.584 232.119L103.584 232.118L103.584 232.118L103.584 232.118L103.584 232.118L103.584 232.118L103.584 232.117L103.584 232.117L103.584 232.117L103.584 232.117L103.584 232.117L103.583 232.116L103.583 232.116L103.583 232.116L103.583 232.116L103.583 232.116L103.583 232.115L103.583 232.115L103.583 232.115L103.583 232.115L103.583 232.115L103.583 232.114L103.583 232.114L103.582 232.114L103.582 232.114L103.582 232.114L103.582 232.113L103.582 232.113L103.582 232.113L103.582 232.113L103.582 232.113L103.582 232.112L103.582 232.112L103.582 232.112L103.582 232.112L103.581 232.112L103.581 232.111L103.581 232.111L103.581 232.111L103.581 232.111L103.581 232.111L103.581 232.11L103.581 232.11L103.58 232.108C102.788 230.143 102.1 228.397 101.889 225.531L101.889 225.531C101.544 220.853 102.171 217.729 103.26 215.401C104.245 213.294 105.6 211.852 106.933 210.506Z" fill="#FFA706" stroke="white"/>
<path d="M115.92 218.89L116.128 218.41L116.129 218.41C116.128 218.41 116.128 218.41 115.92 218.89ZM115.92 218.89L115.917 218.891L113.525 221.733M115.92 218.89L115.922 218.889L116.358 218.653C116.328 218.582 116.288 218.531 116.256 218.498C116.234 218.476 116.215 218.462 116.205 218.455C116.187 218.442 116.172 218.432 116.16 218.425C116.154 218.422 116.148 218.419 116.143 218.416L116.135 218.413L116.132 218.411L116.13 218.41L116.129 218.41L116.2 218.442L116.256 218.498C116.399 218.641 116.607 218.854 116.862 219.134C117.373 219.693 118.074 220.516 118.839 221.575L118.839 221.575C120.367 223.692 122.146 226.753 123.153 230.528C124.578 235.873 124.338 239.529 123.733 241.859C123.431 243.025 123.037 243.858 122.715 244.403C122.715 244.403 122.715 244.403 122.715 244.403L122.317 244.144M122.317 244.144C122.309 244.159 122.3 244.173 122.292 244.187C122.299 244.193 122.306 244.199 122.312 244.205L122.014 244.607C122.01 244.612 122.006 244.618 122.002 244.623C121.991 244.614 121.98 244.604 121.968 244.594L121.638 244.313C121.64 244.31 121.643 244.307 121.645 244.304C121.61 244.271 121.574 244.236 121.536 244.2M122.317 244.144C122.612 243.644 122.985 242.861 123.273 241.75L122.317 244.144ZM121.536 244.2L121.206 244.601C121.206 244.601 121.206 244.601 121.206 244.601C120.739 244.153 120.081 243.46 119.313 242.473C117.777 240.5 115.804 237.353 114.051 232.661C114.051 232.661 114.051 232.661 114.051 232.661L114.496 232.437M121.536 244.2C121.084 243.767 120.441 243.09 119.687 242.121M121.536 244.2L119.687 242.121M114.496 232.437C112.663 227.533 113.104 224.101 113.964 221.909M114.496 232.437C116.232 237.082 118.18 240.185 119.687 242.121M114.496 232.437L119.687 242.121M113.964 221.909L113.525 221.733M113.964 221.909L113.525 221.733M113.964 221.909C114.397 220.804 114.941 220 115.377 219.473C115.44 219.397 115.501 219.327 115.559 219.262C115.531 219.23 115.501 219.186 115.477 219.128C115.449 219.059 115.431 218.969 115.442 218.866C115.453 218.762 115.491 218.676 115.532 218.612C115.561 218.568 115.592 218.534 115.618 218.509C115.628 218.5 115.637 218.492 115.645 218.485C115.661 218.472 115.676 218.461 115.688 218.453C115.695 218.449 115.701 218.445 115.707 218.441L115.716 218.436L115.72 218.434L115.722 218.433L115.723 218.432L115.667 218.463L115.618 218.509C115.469 218.649 115.265 218.859 115.031 219.14L115.031 219.141C114.563 219.707 113.984 220.563 113.525 221.733" fill="#FFA706" stroke="white"/>
<path d="M129.825 223.526C129.823 223.527 129.821 223.529 129.819 223.53C129.657 223.654 129.435 223.84 129.186 224.097L129.186 224.098C128.678 224.622 128.059 225.443 127.598 226.628L127.598 226.628C126.677 228.999 126.396 232.815 128.882 238.646L128.882 238.646C130.512 242.466 132.554 245.272 134.189 247.121C135.007 248.047 135.724 248.733 136.236 249.189L136.236 249.189C136.439 249.369 136.61 249.514 136.745 249.624L137.155 249.958L137.448 249.456C137.528 249.318 137.624 249.142 137.728 248.928L137.729 248.927C138.02 248.329 138.376 247.434 138.64 246.24L138.175 246.152L138.64 246.24C139.168 243.851 139.326 240.272 137.863 235.482L129.825 223.526ZM129.825 223.526L130.133 223.267L130.418 223.536L130.419 223.537C130.426 223.543 130.435 223.553 130.446 223.563C130.598 223.706 130.815 223.916 131.082 224.19L129.825 223.526ZM133.179 226.61L133.179 226.61C132.365 225.561 131.622 224.744 131.082 224.19L133.179 226.61ZM133.179 226.61C134.806 228.709 136.721 231.743 137.863 235.482L133.179 226.61Z" fill="#FFA706" stroke="white"/>
<g clip-path="url(#clip0)">
<path d="M232.633 304.45H202.213C200.619 304.45 199.321 305.504 199.321 306.798V308.927H235.526V306.798C235.526 305.504 234.228 304.45 232.633 304.45Z" fill="#D28904"/>
<path d="M232.633 293.348H202.213V303.115H232.633V293.348Z" fill="#FFA706"/>
<path d="M248.846 239.797H240.952C240.978 238.878 241.016 237.939 241.016 237H193.83C193.83 237.939 193.856 238.878 193.895 239.797H186V240.976C186 255.24 193.226 266.416 202.445 266.447C204.026 268.555 205.788 270.297 207.678 271.685L207.716 272.353C207.819 274.137 209.375 275.661 211.509 276.047H211.689V283.8L211.509 283.821C209.375 284.217 207.806 285.73 207.716 287.515L207.69 287.932C205.955 288.746 204.772 290.238 204.772 291.981H230.049C230.049 290.238 228.866 288.736 227.13 287.932L227.105 287.515C227.002 285.73 225.446 284.207 223.312 283.821H223.132V276.068H223.222L223.312 276.047C225.446 275.65 227.002 274.137 227.105 272.353L227.143 271.696C229.033 270.308 230.795 268.565 232.389 266.457C241.608 266.426 248.833 255.25 248.833 240.986V239.797H248.846ZM188.919 242.155H194.049C194.756 250.576 197.16 258.13 200.696 263.87C194.358 262.377 189.253 253.143 188.919 242.155ZM225.305 286.868H209.542C209.876 286.033 210.725 285.376 211.805 285.146H223.042C224.122 285.365 224.958 286.033 225.305 286.868ZM223.042 274.711H211.805C210.725 274.492 209.889 273.824 209.542 272.99H225.305C224.958 273.835 224.122 274.492 223.042 274.711ZM234.15 263.87C237.686 258.13 240.09 250.576 240.785 242.155H245.928C245.58 253.143 240.476 262.377 234.15 263.87Z" fill="#FFA706"/>
<g clip-path="url(#clip1)">
<path d="M217.44 245L220.04 250.28L225.87 251.13L221.65 255.24L222.65 261.05L217.44 258.31L212.22 261.05L213.22 255.24L209 251.13L214.83 250.28L217.44 245Z" fill="#D28904"/>
</g>
</g>
<defs>
<clipPath id="clip0">
<rect width="63" height="72" fill="white" transform="translate(186 237)"/>
</clipPath>
<clipPath id="clip1">
<rect width="16.87" height="16.05" fill="white" transform="translate(209 245)"/>
</clipPath>
</defs>
</svg>
